<?xml version="1.0" standalone="no"?>
<!DOCTYPE svg PUBLIC "-//W3C//DTD SVG 1.1//EN" "http://www.w3.org/Graphics/SVG/1.1/DTD/svg11.dtd" >
<svg xmlns="http://www.w3.org/2000/svg" xmlns:xlink="http://www.w3.org/1999/xlink" version="1.1">
<metadata></metadata>
<defs>
<font id="intro_head_rbase" horiz-adv-x="759" >
<font-face units-per-em="2048" ascent="1536" descent="-512" />
<missing-glyph horiz-adv-x="286" />
<glyph horiz-adv-x="0" />
<glyph horiz-adv-x="682" />
<glyph unicode=" "  horiz-adv-x="286" />
<glyph unicode="&#x09;" horiz-adv-x="286" />
<glyph unicode="&#xa0;" horiz-adv-x="286" />
<glyph unicode="!" horiz-adv-x="339" d="M160 324l-31 10l-14 39l-6 26l2 31l-7 33l7 29l-11 67l4 35l-10 76l2 63l-2 35l6 80l-2 29l2 98l-4 31l4 32l-2 29l4 100l-6 35v60l2 59l-2 31l-2 32l8 33l27 21l35 -6l35 -11l18 -28l4 -27l-2 -35l2 -37v-26l4 -29l2 -162l-4 -39l4 -65l-2 -92l4 -41l-4 -64l2 -59 l-8 -125l2 -31l-8 -100l2 -94l-22 -27zM168 -16l-49 12l-25 20l-4 52l4 41l25 24l49 17l51 -11l19 -22l10 -47l-10 -56l-21 -24z" />
<glyph unicode="&#x22;" horiz-adv-x="479" d="M137 1042l-33 11l-12 34v31l-2 37l-4 31l-2 33v30l2 37l2 31l-2 35l-4 30l18 31l39 23l33 -19l18 -33v-36l-2 -33l-4 -31v-160l-4 -30l-10 -35zM342 1036l-33 21l-12 30l-4 31v164l-2 33l-2 37l-4 32l16 35l41 13l31 -19l18 -45l-2 -53l2 -29l-2 -37l-4 -32l2 -27v-72 l-4 -31l-12 -32z" />
<glyph unicode="#" horiz-adv-x="966" d="M266 84l-28 18l-19 31l6 31l11 37l10 49l4 51l4 27l-10 41l-29 12h-33l-32 2l-33 -4l-31 14l-10 35l22 29l39 22l29 -6l31 -2l32 2l31 14l23 29l4 39l14 57l2 33l8 33l-2 33l17 65l-15 29l-24 16l-33 -2l-35 6h-29l-30 11l-10 30l22 31l29 21l35 -7l47 4l49 13l22 37 l6 28l5 33l4 37l8 37l2 30l8 29l23 37l34 14l35 -12l10 -35l-4 -28l-4 -39l-8 -35l-8 -31l-4 -37v-35l10 -28l23 -21l34 2l25 2l33 25l20 31l12 45l17 112l8 35l16 39l37 12l35 -14l8 -35l-4 -35l-30 -161l12 -37l28 -17l35 5l62 -9l32 -12l11 -31l-19 -32l-35 -15h-34 l-31 8l-35 -8l-29 -12l-26 -33v-35l-14 -94l-15 -49l-4 -47l-6 -29l12 -35l29 -14l33 4l34 -4h29l33 -14l10 -27l-24 -31l-33 -14l-66 -4l-30 6l-31 -20l-25 -35l-4 -35l-2 -29l-18 -67v-31l-6 -39l-23 -31l-41 -10l-31 12l-14 31l8 33l10 51l9 51l6 29l2 35l-10 30l-27 17 l-29 2l-28 -2l-33 -17l-23 -32l-8 -33l-4 -35v-29l-10 -34l-6 -33l-2 -35l-21 -25zM442 469l27 4l49 12l17 35l4 29l4 37l10 35v32l10 29l6 63l6 25l-10 35l-28 14l-58 -2l-33 -14l-22 -31l-4 -65l-8 -31l-27 -152l12 -35z" />
<glyph unicode="$" horiz-adv-x="882" d="M424 -150l-33 15l-8 31l-4 34l-14 27l-31 23l-31 12l-35 4l-32 10l-29 12l-27 9l-51 39l-14 30l6 41l33 23l34 -4l109 -58l35 -10h78l51 6l31 8l28 2l27 23l24 14l21 25l35 57l10 21l12 37l4 125l-6 34l-20 66l-19 24l-16 35l-29 23l-20 22l-39 25l-43 35l-41 22l-49 25 l-29 18l-55 41l-51 41l-23 23l-37 53l-31 57l-20 66l-6 37l2 47l14 112l19 31l20 31l19 22l20 23l33 24l84 39l32 25l19 39l-2 29l18 24l31 19l21 -15l14 -35l4 -26l14 -31l29 -16l35 -6l26 -3l62 -16l55 -35l14 -37l-14 -38l-37 -23l-37 6l-30 19l-29 10l-33 4l-35 10h-96 l-31 -14l-30 -19l-27 -20l-22 -23l-15 -28l-16 -80l4 -49l10 -41l6 -27l13 -29l18 -20l18 -31l29 -20l47 -37l33 -17l25 -24l45 -23l37 -22l32 -12l27 -19l22 -22l29 -17l21 -24l47 -45l14 -29l16 -25l13 -28l8 -33l20 -59l4 -78l-4 -54l-10 -63l-6 -29l-23 -65l-16 -25 l-20 -26l-25 -31l-25 -23l-22 -18l-31 -14l-31 -17l-32 -12l-31 -6l-29 -25l-16 -35l-4 -26l-12 -35z" />
<glyph unicode="%" horiz-adv-x="823" d="M135 -6l-29 2l-26 18l2 27l12 35l15 30l10 33l14 25l12 31l15 30l10 31l16 29l11 32l10 29l18 27l13 30l10 31l18 39l10 29l19 22l12 41l6 27l17 26l14 29l10 39l15 23l12 32l31 60l12 33l14 28l8 29l15 35l12 26l14 29l15 33l12 35l14 32l11 25l10 31l12 26l14 37l19 29 l10 26l10 33l13 25l12 37l33 34l37 17l28 -4l25 -17l-2 -37l-12 -26l-11 -33l-16 -24l-10 -33l-17 -25l-8 -37l-31 -61l-22 -55l-17 -33l-12 -33l-57 -121l-8 -31l-17 -26l-8 -33l-12 -33l-29 -61l-10 -29l-17 -28l-14 -31l-14 -29l-8 -33l-15 -28l-14 -31l-8 -35l-19 -28 l-26 -54l-13 -37l-14 -26l-10 -31l-45 -94l-8 -31l-17 -31l-22 -61l-31 -27zM307 989l-100 2l-33 17l-24 14l-23 25l-16 26l-13 33l-10 41l-4 47l2 49l10 35l15 29l12 30l53 39l31 13l51 8l47 -13l35 -12l29 -16l20 -23l17 -26l16 -31l8 -37v-49l-2 -47l-8 -39l-12 -27 l-21 -24l-18 -27zM260 1087l37 13l20 22l13 23l10 51l-8 45l-13 23l-18 18l-43 10l-43 -10l-18 -16l-15 -31l-4 -47v-45l17 -27l20 -22zM580 0l-45 6l-33 12l-29 13l-27 26l-30 60l-6 35v49l2 47l6 39l12 28l19 33l24 23l59 26l52 13l49 -9l59 -28l23 -29l18 -29l12 -34 l9 -35l2 -45l-4 -47l-7 -37l-14 -35l-14 -25l-25 -22l-33 -19l-28 -10zM584 102l37 2l26 23l15 25l2 51l-5 41l-12 32l-24 23l-45 10l-35 -6l-21 -29l-14 -28l-4 -43l2 -51l16 -21l17 -25z" />
<glyph unicode="&#x26;" horiz-adv-x="1079" d="M440 -29l-34 6l-31 9l-33 6l-31 12l-30 10l-29 11l-27 18l-24 25l-23 16l-18 25l-31 55l-12 35l-11 61v35l-4 47l2 74l7 39l12 30l4 33l41 86l22 25l13 28l30 41l33 33l19 45l6 41l-17 103l-2 32l2 140l9 36l8 33l24 53l19 31l67 72l29 14l64 17l65 -5l33 -8l24 -4 l54 -45l16 -29l16 -24l7 -39l6 -33l-13 -88l-8 -35l-14 -26l-12 -33l-19 -27l-41 -51l-43 -41l-22 -26l-51 -43l-21 -25l-20 -37v-41l6 -31l28 -63l33 -62l37 -55l63 -80l19 -26l22 -19l25 -26l29 -17l28 -6l23 23l10 28l21 97l6 65v33l20 33l35 18l43 -16l19 -37l-7 -68 l2 -37l-10 -34l-4 -27l-4 -35l-6 -29l-25 -67l2 -41l21 -27l26 -22l31 -10l27 -13l28 -18l27 -27l4 -35l-14 -24l-29 -23l-39 6l-61 25l-56 41h-45l-38 -16l-27 -19l-29 -12l-57 -33l-37 -4l-29 -10zM414 889l28 10l50 37l24 29l19 20l38 53l13 33l8 45l2 49l-12 27l-17 25 l-20 16l-33 10l-31 -6l-28 -20l-21 -25l-16 -27l-12 -30l-9 -27l-2 -102l-2 -35l2 -29l6 -33zM483 94h47l33 8l31 7l31 12l24 14l13 31l-13 37l-24 18l-25 27l-29 20l-43 47l-20 25l-16 25l-23 26l-16 33l-21 20l-18 31l-47 84l-7 35l-22 14l-29 -8l-16 -27l-12 -30l-15 -29 l-24 -61l-9 -117v-49l9 -31l22 -59l21 -31l26 -19l27 -20l31 -16l63 -13z" />
<glyph unicode="'" horiz-adv-x="276" d="M135 1434l35 -21l20 -33l-2 -45l-4 -45v-33l4 -34l-6 -37v-31l2 -33v-35l-18 -32l-31 -11l-29 15l-14 33l-4 28l-2 35l-2 39l4 31l-4 28l-2 29v33l2 39v30l18 31z" />
<glyph unicode="(" horiz-adv-x="522" d="M395 -156l-30 2l-41 15l-31 28l-14 27l-17 23l-14 34l-12 25l-15 31l-16 28l-45 127l-10 33l-11 31l-18 96l-12 27l-5 69l-10 33v29l-6 33l-4 32l2 39l-4 193l10 166l6 32l11 31l12 66l4 32l14 60l13 28l12 35l4 35l12 27l17 28l10 27l8 37l21 29l40 88l19 26l31 27 l41 18l28 -2l17 -20l-2 -31l-15 -27l-10 -28l-16 -27l-15 -29l-8 -32l-12 -29l-12 -27l-13 -39l-20 -53l-4 -33l-13 -36l-22 -91l-4 -36l-6 -31l-4 -64l-9 -34l-4 -25l2 -35l-2 -39l-6 -32l4 -125l-4 -33l6 -35l2 -27l-2 -39l4 -32l6 -25l5 -31v-34l6 -29l6 -37l6 -35 l23 -59l4 -27l18 -65l6 -35l23 -60l16 -28l8 -33l13 -20l45 -97l2 -28z" />
<glyph unicode=")" horiz-adv-x="522" d="M125 -158l-23 15l2 30l17 25l55 121l6 30l13 31l14 33l8 31l12 35l13 53l12 30v37l12 35l4 27l2 31l9 30l6 33v31l8 98l2 166l2 31l-6 65l-2 31l-8 67v33l-7 29l-6 27l-2 40l-8 33l-8 23l-4 41l-10 28l-13 25l-8 37l-14 31l-10 28l-9 35l-12 25l-35 90l-18 33l-13 26 l-2 29l37 14l49 -14l33 -27l19 -28l14 -33l29 -56l26 -61l8 -29l29 -57l6 -37l13 -31l16 -63l8 -31l10 -67l9 -27l12 -61v-31l8 -33l2 -43l-2 -33l4 -24l2 -37l-2 -96l-2 -33l2 -35l-2 -29l-6 -32v-35l-6 -33l-4 -33l-6 -33l-4 -30l-7 -29l-12 -39l-20 -94l-15 -27l-10 -32 l-8 -31l-12 -37l-25 -53l-25 -62l-53 -86l-29 -22l-36 -17z" />
<glyph unicode="*" horiz-adv-x="702" d="M350 899l-33 16l-12 29v31l6 35l-2 39l-16 36h-21l-28 -20l-21 -18l-26 -25l-27 -14l-35 -7l-26 11l-9 24l23 33l24 23l25 18l27 14l24 19l17 35l-15 22l-26 27l-39 28l-39 27l-17 23l5 34l26 17l33 -10l37 -27l41 -33l26 -20h23l14 20v45l-2 29v31l15 47l26 14l27 -14 l14 -33v-43l2 -51l2 -27l13 -20h24l25 18l20 25l27 18l24 18l33 15l33 -12l4 -33l-33 -39l-63 -53l-29 -11l-14 -30l16 -35l27 -21l28 -16l23 -18l27 -17l14 -35l-2 -34l-29 -9l-33 11l-24 20l-27 23l-39 26l-32 17l-13 -25v-90l2 -29l-16 -35z" />
<glyph unicode="+" horiz-adv-x="630" d="M313 401l-32 19l-21 31l2 47l-2 24l2 31l2 53l-22 27l-31 12l-33 8l-28 -4l-31 -2l-33 15l-16 36l16 39l33 21l33 -2l30 4l31 -2l31 12l14 31l4 35l-2 32l-4 37l4 25v37l21 32l32 15l31 -15l23 -49l-5 -30l7 -50l-2 -36l2 -31l12 -31l45 -12l37 -4l43 -2l35 -17l16 -37 l-16 -34l-29 -13h-31l-35 2l-30 -2l-31 -18l-14 -35l-2 -29l-2 -30l2 -29l-2 -37l2 -29l-23 -32z" />
<glyph unicode="," horiz-adv-x="378" d="M152 -236l-33 5l-10 38l4 33l20 27l23 31l18 30l-4 45l-25 31l-18 25l-12 24v35l14 29l18 22l48 4l49 -8l22 -8l15 -31l8 -45l2 -49l-4 -35l-6 -28l-15 -27l-10 -33l-12 -31l-23 -24l-18 -29l-19 -22z" />
<glyph unicode="-" horiz-adv-x="622" d="M150 535l-31 16l-15 39l15 35l31 14l32 8l68 -8l26 8l70 -2h29l31 2l59 -4l35 -16l18 -33l-20 -39l-33 -14l-33 -4h-57l-33 2l-37 -4l-33 2l-30 -2l-27 2l-35 4z" />
<glyph unicode="." horiz-adv-x="335" d="M164 -14l-47 12l-23 22l-10 41l8 52l27 20l49 10l45 -10l27 -18l6 -54l-10 -43l-23 -28z" />
<glyph unicode="/" horiz-adv-x="677" d="M123 0l-33 12l-6 31l6 35l12 31l7 30l12 27l10 37l10 33l4 24l39 129l15 29l32 127l7 35l12 30l8 23l10 31l6 38l23 60l25 92l8 27l14 37l6 34l21 56l8 30l18 60l9 32l22 64l10 53l11 47l14 25l16 70l27 30l45 11l29 -13l8 -33l-8 -28l-9 -31l-12 -33l-8 -35l-6 -30 l-8 -29l-19 -45l-12 -47l-12 -33l-15 -65l-12 -29l-4 -29l-8 -32l-13 -31l-18 -66l-10 -26l-35 -127l-10 -29l-9 -35l-28 -88l-13 -35l-8 -35l-12 -28l-8 -27l-6 -39l-9 -26l-14 -31l-12 -70l-29 -90l-12 -31l-8 -49l-33 -47z" />
<glyph unicode="0" horiz-adv-x="851" d="M424 -27l-47 7l-29 6l-26 12l-29 6l-27 14l-28 23l-60 61l-10 37l-16 25l-11 35l-32 90l-25 200v39l-6 150l6 119l-4 30l6 33l-2 33l6 29v36l4 33l8 27l15 100l26 90l45 90l70 66l57 31l31 10l29 2l49 8l49 -6l29 -12l30 -6l29 -11l25 -12l49 -45l16 -27l19 -22l16 -29 l25 -61l32 -129l21 -181l-2 -32l6 -37l2 -33l-4 -37l-2 -196l2 -35l-6 -35l-2 -31l-19 -123l-12 -36l-2 -37l-23 -62l-16 -30l-16 -25l-15 -29l-20 -22l-19 -25l-30 -24l-25 -15l-29 -14l-30 -10l-29 -9zM381 98h45l39 6l31 9l20 12l16 22l23 21l14 27l17 63l12 33l10 31 l2 34l6 35v33l5 31l6 108l6 29l-4 174l2 35l-8 102l-7 31l-4 35l2 28l-24 136l-27 59l-18 33l-45 53l-33 10l-47 2h-43l-27 -10l-20 -16l-17 -25l-20 -25l-14 -28l-17 -31l-4 -35l-10 -30l-21 -136v-43l-4 -34l-4 -31l-2 -215l-4 -31l8 -35l-2 -26l2 -62l19 -166l22 -67 l6 -29l17 -31l32 -55l31 -12z" />
<glyph unicode="1" horiz-adv-x="591" d="M406 0l-35 4l-31 12l-23 35l7 60l-7 26l7 105l-2 32l-5 31l5 31l-3 31l3 39l-5 32v92l2 33l-2 37v66l7 28l-7 35l5 33l-3 24l3 166l-3 31l3 33l-3 49l11 123l-13 20l-14 -16l-27 -23l-61 -84l-22 -24l-19 -27l-35 -16h-33l-26 22l-8 31l4 29l22 24l29 47l51 60l19 31 l22 24l41 51l57 49l48 13l36 2l35 -19l21 -34l2 -33l-6 -64l4 -32l-2 -103l-2 -24l2 -527l4 -33l-8 -61l6 -33l-4 -30l4 -31l2 -39l-2 -59l2 -68l-6 -29l4 -135l-19 -37z" />
<glyph unicode="2" horiz-adv-x="772" d="M274 -8l-34 6l-80 -2l-51 14l-17 41l4 191l10 37l7 28l14 31l8 35l10 30l19 25l12 29l21 32l12 25l20 27l17 30l22 21l17 33l65 71l21 31l20 23l21 24l14 25l23 26l14 29l20 25l15 30l12 35l16 23l6 34l5 27l6 33l-2 104l-11 33l-34 51l-23 17l-24 8l-31 16l-45 8l-49 -6 l-27 -8l-35 -8l-26 -21l-54 -30l-30 -8l-41 10l-11 45l13 41l30 20l23 21l24 14l27 8l31 15l37 6l30 8l86 6l80 -8l27 -12l33 -11l30 -20l45 -41l35 -45l8 -31l13 -33l6 -30v-136l-6 -36l-15 -58l-16 -32l-8 -31l-15 -31l-71 -108l-17 -23l-18 -31l-23 -24l-38 -52l-27 -26 l-12 -27l-23 -20l-76 -107l-67 -149l-17 -68l-4 -57l13 -35l30 -20l49 -3l54 7h135l35 -7l49 7l45 -2l37 -17l16 -43l-16 -33l-37 -22l-33 6l-31 -6l-67 4l-98 -6l-31 8l-68 -4z" />
<glyph unicode="3" horiz-adv-x="743" d="M274 -25l-67 19l-33 2l-31 10l-63 37l-17 35l9 37l32 26l39 -4l78 -31l53 -10l48 -6l49 2l57 27l23 14l22 23l19 24l14 33l10 31l4 26l8 37l4 25l3 55l-7 45v33l-8 33l-8 26l-14 29l-17 29l-71 57l-60 27h-51l-43 20l-18 31l2 28l8 27l41 12l37 9l84 45l20 24l19 29 l32 63l15 64l-4 131l-11 37l-18 33l-19 22l-20 23l-29 18l-84 6l-75 -4l-33 -14l-25 -4l-24 -21l-33 -6l-29 6l-20 27l-4 33l16 34l84 37l29 17l30 6l33 8l33 2l51 -6l41 4l33 -4l61 -25l25 -18l31 -12l24 -21l57 -115l11 -32v-31l6 -51v-45l-8 -33l-4 -35l-11 -33l-6 -34 l-10 -25l-16 -33l-37 -55l-27 -19l-22 -26l-9 -21l15 -20l55 -35l41 -45l35 -55l24 -56l9 -36l4 -25l4 -92l-4 -47l-7 -31l-2 -29l-6 -30l-10 -37l-16 -27l-9 -35l-20 -30l-18 -23l-52 -43l-26 -14l-27 -23l-31 -8l-28 -14l-35 -7z" />
<glyph unicode="4" horiz-adv-x="798" d="M557 -4l-35 16l-22 23l-2 31l-4 26l2 41l-7 25l5 67l-5 31v51l-16 41l-31 12l-36 -2l-27 7l-168 -5l-31 5l-37 -5l-32 2l-33 -6l-29 19l-14 35l-4 32l12 97l16 22l9 33l14 29l8 34l14 31l9 29l14 28l33 89l12 26l41 129l18 31l119 328l31 36l41 11h35l26 -17l6 -30 l-12 -27l-10 -31l-25 -61l-20 -68l-39 -86l-8 -39l-15 -22l-75 -213l-15 -31l-34 -102l-62 -148l10 -28l27 -17l45 -2l37 4l49 -8l68 8l30 -2l35 14l19 35l2 33l-7 27l5 229l-5 27l5 98l12 27l37 24l32 -8l33 -16l21 -29v-37l-6 -27l4 -65l-6 -143l4 -43l-4 -64l6 -41 l14 -24l35 -19h33l28 -8l19 -33l4 -31l-23 -30l-47 -15l-51 -10l-14 -39v-133l2 -35v-71l6 -29l-10 -27l-35 -12z" />
<glyph unicode="5" horiz-adv-x="770" d="M371 -23l-47 7h-80l-27 12l-37 4l-24 12l-45 27l-31 43l6 39l33 16l35 4l43 -22l43 -19l32 -8l52 4l43 -2l32 12l74 56l19 20l16 37l18 25l15 63l10 33l8 61l-4 93l2 36l-20 125l-11 37l-14 29l-18 22l-29 17l-31 14l-49 10h-33l-49 -4l-78 -20l-69 -6l-33 12l-10 37v31 l6 90l-2 37l2 32l-2 31v39l4 31l2 28l2 64l4 31l-2 65l6 33l-4 37l18 26l54 15h149l29 6l170 2l49 -4l51 -15l17 -45l-21 -32l-33 -19h-65l-37 -4h-35l-33 6l-30 -4l-37 2l-35 -4l-33 2l-33 -12l-18 -33l2 -39l-4 -26v-37l-6 -29l4 -70l-4 -26l-2 -62l-4 -41l12 -24l31 -6 l26 10l64 12l43 -8h47l35 -14l26 -5l27 -18l72 -68l26 -49l15 -37l8 -32l10 -27v-39l10 -33l-6 -227l-10 -31l-2 -32l-8 -35l-41 -90l-39 -50l-19 -30l-22 -15l-27 -20l-53 -35l-33 -12l-28 -6z" />
<glyph unicode="6" horiz-adv-x="804" d="M453 -25l-52 2l-53 7h-29l-34 8l-86 49l-19 29l-45 49l-16 28l-8 33l-17 31l-14 65l-4 66l-10 66l2 36l-9 33l2 33l-4 82l4 47l-4 35l13 67v72l6 25l4 39l6 28l2 31l27 96l4 33l39 96l20 25l39 55l41 49l21 17l28 24l31 21l29 6l57 22l33 13l35 8h30l35 4l31 -12l22 -35 l-12 -41l-35 -23l-26 -2l-37 -4l-27 -14l-35 -6l-30 -21l-27 -22l-25 -19l-22 -18l-21 -31l-18 -20l-59 -125l-17 -68l-6 -63l-8 -37l12 -25h23l28 25l31 10l35 14l28 9l39 6l99 4l32 -2l29 -8l25 -19l28 -10l31 -17l21 -20l16 -29l14 -34l15 -25l22 -100l10 -76l-6 -101 l2 -30l-2 -33l-6 -37v-33l-10 -28l-4 -35l-8 -35l-15 -39l-16 -20l-12 -31l-31 -45l-35 -39l-27 -18l-28 -13l-29 -10l-35 -14zM401 94l45 4l33 13l43 36l23 23l16 33l12 33l19 100l8 26l8 72v49l-14 142l-8 30l-25 64l-26 22l-43 25l-60 8l-49 -2l-33 -14l-33 -6l-63 -33 l-25 -23l-24 -43l-12 -43l2 -37l-5 -61l11 -170l24 -102l27 -62l14 -24l56 -45z" />
<glyph unicode="7" horiz-adv-x="669" d="M172 0l-25 18l-10 31l13 29l4 28l8 31l6 35l10 27l10 30l7 39l14 29l8 33l4 32l15 31l8 27l6 35l12 26l8 31l6 35l21 57l10 53l15 39l10 39l4 29l12 37l6 30l13 27l14 64l12 36l10 23l19 63l6 37l21 60l20 94l-8 33l-23 18h-131l-51 -8h-47l-82 6l-51 -6l-35 16l-16 33 l4 25l14 28l33 19l35 -4l30 8l35 -6l64 -4l100 8l59 -6l56 4l45 -6l67 10l35 -19l12 -32l-10 -133l-33 -86l-30 -134l-11 -30l-12 -29l-4 -37l-22 -61l-13 -66l-12 -24l-8 -41l-10 -29l-25 -94l-14 -35l-9 -27l-4 -28l-8 -35l-12 -37l-41 -158l-14 -28l-11 -33l-4 -33 l-14 -35l-6 -26l-6 -35l-7 -29l-28 -35l-37 -12z" />
<glyph unicode="8" horiz-adv-x="847" d="M420 -23l-70 9l-78 18l-28 16l-35 13l-23 18l-26 25l-39 55l-41 90l-6 33l-4 33l-11 35l-2 49l6 47l3 37l6 26l10 35l43 84l20 29l23 22l25 15l20 26l31 17l14 22l-10 27l-49 45l-19 22l-37 52l-14 30l-14 35l-15 64l-8 79l10 84l7 29l14 39l33 53l39 43l28 21l25 14 l35 10l26 21l35 8l27 -2l49 6l82 -10l61 -17l55 -24l70 -72l45 -90l10 -24l7 -84l-2 -52l-7 -30l-4 -31l-18 -68l-49 -75l-47 -52l-21 -24l-14 -27l12 -22l27 -21l22 -12l47 -45l23 -31l12 -27l21 -26l10 -33l12 -27l10 -69l-4 -47l4 -49l-32 -138l-68 -106l-53 -47l-88 -37 l-39 -8zM426 793l41 8l57 39l25 24l18 25l19 33l14 32l10 66v98l-4 37l-12 29l-16 30l-23 25l-23 21l-30 20l-27 8l-55 8l-47 -6l-62 -24l-43 -54l-14 -24l-16 -33l-7 -90l9 -82l16 -59l18 -33l23 -31l53 -37l25 -20zM471 96l33 10l31 15l26 18l45 54l12 24l29 96l2 56 l-4 75l-8 37l-8 27l-19 29l-18 22l-17 33l-90 65l-61 15l-49 -8l-29 -21l-29 -12l-24 -19l-43 -45l-17 -24l-18 -37l-16 -57l-2 -87l10 -79l16 -68l17 -20l18 -33l25 -27l22 -12l51 -19z" />
<glyph unicode="9" horiz-adv-x="804" d="M244 -18l-31 16l-23 33l13 39l33 22l61 6l35 11l55 22l55 39l47 49l33 47l15 35l14 23l12 34l8 35l11 29l6 65l12 66v35l-10 24l-21 -10l-24 -14l-90 -39l-31 -12l-53 -5l-47 9l-29 2l-64 28l-51 33l-22 23l-52 84l-26 65l-14 70l-5 33v137l15 92l22 68l6 30l17 31l12 29 l41 53l29 27l28 16l29 18l55 25l37 4l103 -2l63 -16l72 -35l37 -33l20 -31l19 -20l28 -66l13 -28l4 -35l10 -29l12 -100l2 -35l8 -68v-28l2 -41l-18 -295l2 -35l-6 -35l-6 -28l-12 -66l-9 -31l-14 -30l-6 -31l-14 -39l-17 -29l-10 -24l-25 -33l-16 -27l-23 -20l-18 -25 l-86 -57l-31 -17l-30 -6l-31 -12l-29 -6l-33 -12zM342 653h45l51 6l66 13l28 14l50 41l18 45l10 45l2 103l-4 32l-4 27l-2 68l-6 38l-8 29l-37 92l-21 31l-38 31l-41 24h-52l-45 -6l-26 -12l-54 -35l-18 -22l-16 -31l-13 -37l-10 -29l-12 -67l-8 -160l8 -31l6 -37l2 -28 l10 -35l33 -49l23 -27l28 -20z" />
<glyph unicode=":" horiz-adv-x="335" d="M164 635l-51 10l-23 29l-4 45l6 49l27 23l45 6l49 -4l27 -21l10 -53l-12 -49l-25 -21zM168 -14l-51 10l-23 22l-8 50l10 45l23 20l45 12l49 -6l27 -28l6 -45l-6 -54l-25 -24z" />
<glyph unicode=";" horiz-adv-x="378" d="M195 639l-48 12l-22 23l-10 41l8 51l27 20l49 11l45 -11l26 -18l6 -53l-10 -43l-22 -29zM152 -236l-33 5l-10 38l4 33l20 27l23 31l18 30l-4 45l-25 31l-18 25l-12 24v35l14 29l18 22l48 4l49 -8l22 -8l15 -31l8 -45l2 -49l-4 -35l-6 -28l-15 -27l-10 -33l-12 -31 l-23 -24l-18 -29l-19 -22z" />
<glyph unicode="&#x3c;" horiz-adv-x="630" d="M514 444l-29 17l-26 12l-31 10l-55 29l-31 16l-31 15l-24 10l-27 16l-29 11l-28 12l-33 18l-25 15l-34 14l-29 25l-16 41l18 36l31 31l30 10l23 19l31 8l26 12l33 19l29 12l24 16l31 15l33 10l24 16l27 17l29 6l30 20l29 11l29 -2l12 -25l4 -31l-20 -33l-43 -38l-47 -17 l-27 -18l-29 -6l-26 -19l-31 -12l-31 -8l-33 -21l-32 -6l-13 -25l17 -24l61 -19l29 -14l28 -20l31 -7l31 -18l29 -16l45 -17l41 -30l20 -37v-33l-12 -18z" />
<glyph unicode="=" horiz-adv-x="630" d="M184 756l-34 2l-27 6l-37 14l-14 37l16 33l49 14l47 4h29l33 -4l67 4l33 6l31 -4l35 2l34 -6l31 2l31 -2l31 -12l18 -43l-12 -33l-39 -20l-31 8l-35 -2l-26 2l-33 -6l-33 4l-35 -6l-34 2l-29 4l-35 -4zM479 530l-37 9l-30 -4h-45l-54 -5l-34 9l-29 -2l-53 2l-45 -7l-33 7 l-37 12l-12 33l14 34l39 21l43 4l51 2l29 -6l100 4l37 2h31l28 -8h35l29 2l33 -18l18 -29l-16 -41l-31 -12z" />
<glyph unicode="&#x3e;" horiz-adv-x="630" d="M111 446l-25 3l-18 18l-2 33l14 30l31 31l30 14l33 13l29 12l30 18l31 11l45 24l47 15l29 14l10 18l-14 19l-31 18l-26 8l-29 13l-31 22l-31 8l-26 19l-35 10l-31 17l-24 10l-31 30l-16 35v31l14 21h27l77 -37l41 -21l29 -12l29 -14l28 -13l23 -10l33 -14l26 -15l31 -14 l41 -20l43 -23l33 -25l12 -43l-12 -36l-27 -33l-33 -6l-24 -19l-33 -10l-33 -14l-24 -9l-29 -14l-29 -22l-26 -9l-27 -14l-61 -35l-29 -10l-31 -14z" />
<glyph unicode="?" horiz-adv-x="755" d="M352 322l-33 18l-18 27l-6 32l2 31l-4 49l6 53v35l20 62l25 59l35 57l18 25l13 31l36 53l13 27l33 63l36 94l9 33l-5 41v53l-6 27l-20 22l-12 31l-25 15l-29 16l-30 8l-95 10l-26 -14l-31 -6l-33 -14l-22 -17l-25 -22l-31 -7l-36 15l-17 41l10 41l50 35l28 14l60 31l30 6 l29 8h37l45 2l51 -4l62 -6l28 -11l58 -26l22 -29l21 -18l22 -56l17 -30l6 -31v-131l-15 -72l-28 -59l-13 -35l-34 -51l-17 -29l-20 -28l-19 -27l-14 -35l-59 -78l-13 -30l-18 -58l-8 -33l-9 -96l3 -37l-3 -28l-16 -35zM354 -16l-47 6l-20 26l-8 45l6 54l20 24l51 6l52 -8 l22 -22l8 -54l-12 -51l-20 -18z" />
<glyph unicode="@" horiz-adv-x="1452" d="M696 -410l-67 11l-37 8l-60 8l-32 16l-31 7l-57 26l-56 35l-28 25l-49 38l-21 27l-25 25l-38 57l-11 21l-20 26l-29 62l-14 36l-8 27l-7 35l-10 29l-16 67l-2 35l-8 29l-9 98l5 35l-3 55l-4 43l4 35v31l9 73l6 29l6 37l2 31l8 30l27 105l39 90l45 84l22 22l19 33l22 21 l21 30l26 19l25 22l27 21l26 12l27 18l31 15l26 16l35 15l29 10l98 18l29 6l34 4l48 -2l49 2l35 -8l49 -2l65 -18l41 -15l31 -16l31 -6l28 -14l31 -19l27 -18l24 -21l21 -20l26 -21l60 -76l32 -65l9 -27l16 -24l16 -35l5 -31l8 -33l20 -63l12 -100l5 -115l-5 -49v-39 l-10 -92l-24 -129l-11 -31l-8 -29l-28 -43l-23 -41l-37 -35l-43 -32l-72 -17l-51 4l-32 11l-27 20l-27 10l-37 54l-32 14l-43 -18l-33 -37l-27 -11l-30 -16l-62 -18l-53 -4l-51 8l-29 6l-31 16l-55 45l-14 19l-19 28l-6 33l-14 35v96l4 39l14 27l10 33l31 59l21 18l22 27 l55 35l27 12l64 21l34 4h47l80 8l15 29l2 36l-4 35l-5 31l-10 27l-18 32l-21 23l-30 12l-101 8l-67 -26l-27 -21h-37l-31 13l-2 43l19 34l26 17l29 12l103 25l49 -4l51 2l35 -11l30 -12l25 -10l27 -25l22 -28l15 -25l24 -66l8 -69l4 -207l-4 -31l6 -33l-4 -84l2 -55l7 -37 l12 -34l14 -31l25 -23l28 -16l52 2l43 14l22 19l29 57l12 27l8 30l4 37l15 60l4 34l-2 35l6 31l2 31v49l-4 53v33l-4 24v37l-2 35l-6 29l-13 35l-4 32l-12 31l-14 31l-9 26l-18 33l-35 51l-16 31l-23 17l-26 24l-25 19l-27 22l-28 14l-25 19l-47 10l-47 19l-31 6l-157 10 l-31 -8l-35 -6l-29 2l-28 -7l-47 -18l-70 -37l-49 -39l-49 -47l-23 -16l-70 -115l-12 -33l-12 -22l-10 -31l-7 -33l-20 -69l-14 -66l-4 -35l-2 -37l-5 -28l5 -33l-7 -29l-2 -102l6 -33l5 -102l12 -72l20 -63l9 -23l10 -41l22 -55l37 -62l17 -30l20 -23l20 -27l50 -49l24 -18 l29 -12l57 -35l27 -10l53 -9l109 -22l65 -6l39 4l62 12l32 2l39 -4l17 -33l-9 -41l-28 -18l-35 -10l-68 -11h-32l-35 2h-31zM700 121l45 6l29 6l29 21l24 14l25 18l22 47l11 109l-6 37l4 67l-13 33l-34 19h-45l-48 -6l-59 -21l-27 -10l-28 -21l-23 -26l-12 -25l-14 -65 l-2 -50l2 -51l6 -26l16 -33l16 -21l31 -14z" />
<glyph unicode="A" horiz-adv-x="888" d="M66 -4l-31 22l-8 33l36 156l13 29l4 32l10 29l41 199l29 92l6 30l31 136l4 28l20 62l4 28l43 164l2 29l15 33l10 65l18 66l11 24l6 33l4 33l20 65l21 31l37 19l32 4l31 -6l33 -15l22 -28l13 -35l6 -37l26 -94l11 -64l37 -119l18 -100l12 -29l4 -37l35 -122l4 -33l33 -129 l6 -37l10 -27l3 -32l30 -97l8 -61l13 -39l2 -25l37 -127l20 -100l-10 -33l-27 -12h-37l-39 20l-26 27l-10 66l-9 32l-12 29l-12 72l-10 33l-7 34l-16 60l-25 37l-32 16h-94l-50 6h-43l-30 -4h-70l-37 -16l-20 -37l-66 -299l-12 -27l-25 -31l-33 -22h-40zM459 539l37 4h63 l27 10l6 33l-17 67l-4 35l-8 33l-4 24l-12 29l-4 37l-8 31l-15 28l-8 66l-14 55l-6 47l-21 90l-8 68l-19 66l-6 6l-14 -66l-21 -141l-10 -23l-20 -104l-2 -31l-11 -33l-8 -28l-18 -60l-2 -39l-8 -30l-21 -58l-2 -39l-6 -26l4 -37l29 -12h34l31 2z" />
<glyph unicode="B" horiz-adv-x="897" d="M270 -6l-32 6h-62l-26 16l-17 29l-2 31v233l2 27l-4 35l2 26l-2 35l4 70l-4 33l4 30l-4 33l2 33l-2 31l4 40l-4 23l2 31l-2 78l4 26l2 31l-6 31l-2 36l6 29l-6 33l6 295l-4 31l-2 32l20 35l33 14l29 3l31 4h36l31 2l31 -6l205 -11l75 -24l48 -25l22 -16l29 -33l35 -51 l22 -64l4 -28l6 -33l4 -105l-8 -34l-18 -66l-17 -27l-18 -22l-18 -27l-25 -28l-55 -39l-15 -19l19 -12l29 -23l26 -14l23 -24l26 -23l49 -82l13 -33l8 -35l6 -38l8 -27l2 -105l-18 -100l-21 -59l-20 -29l-19 -31l-16 -20l-27 -25l-24 -16l-25 -23l-26 -18l-131 -37zM422 819 l31 4l34 15l33 8l55 35l21 20l47 94l8 35v96l-8 27l-6 33l-14 33l-21 24l-20 21l-56 34l-30 9l-35 6h-88l-47 6l-41 -16l-19 -37l2 -402l17 -33l34 -10zM397 109l142 22l30 12l23 17l26 22l19 21l14 26l13 37l6 31l12 25l-2 170l-12 65l-35 59l-19 25l-53 39l-98 31l-49 -2 l-43 4l-62 -6l-28 -19l-17 -37l6 -24l-6 -37l4 -27l-6 -90l4 -61l-2 -86l2 -33l-2 -64l4 -32l-2 -33l21 -41l28 -10l31 -2z" />
<glyph unicode="C" horiz-adv-x="827" d="M432 -23l-96 23l-55 27l-45 36l-25 27l-14 25l-19 24l-16 29l-23 61l-4 35l-8 33l-8 25l-21 106l4 35l-10 96l4 41l-6 31l2 31l-4 53l4 53l-4 29l6 53l-2 43l12 102v33l7 27l4 37l8 32l12 27l6 33l13 35l6 24l14 35l39 55l18 21l52 49l26 14l29 10l33 17l32 2l31 4l98 2 l70 -14l62 -25l32 -8l29 -21l18 -34l-6 -35l-18 -27l-35 -4l-31 6l-28 19l-33 8l-31 12l-31 6l-49 4l-53 -10l-27 -2l-24 -12l-23 -15l-24 -22l-21 -21l-10 -32l-31 -56l-6 -28l-29 -170l-8 -307l4 -33l-2 -29l4 -27l2 -38l-4 -33l7 -29l8 -98l10 -66l12 -30l6 -37l11 -25 l16 -37l16 -24l25 -21l29 -20l26 -15l29 -10l51 2l45 6l51 4l43 11l58 20l26 21h37l31 -25l2 -43l-25 -41l-135 -57l-76 -13l-49 7z" />
<glyph unicode="D" horiz-adv-x="931" d="M197 -4l-47 16l-17 37l-2 31l4 26l-4 39l4 29v70l-6 30v101l6 35l-4 24l2 35l-2 37l4 31l-4 47l2 49l-4 31l4 49l-2 51v47l-2 55l2 27l-2 31l6 32l-4 41l4 29l-6 35l6 158l-8 67l8 96l12 29l31 23l135 -2l35 6l45 -8l84 -3l31 -4l33 -2l61 -18l57 -27l70 -71l14 -23 l13 -27l12 -24l33 -96l6 -37l6 -31l10 -29l2 -34v-35l9 -39l-3 -31l9 -33v-200l-4 -35v-66l-5 -100l-6 -29l-10 -39l-6 -55l-10 -39l-6 -33l-35 -92l-19 -24l-18 -27l-25 -25l-22 -24l-25 -15l-31 -22l-26 -12l-47 -17l-49 -10l-31 -2l-33 2l-129 -6l-31 4zM430 113l31 4 l33 10l57 31l27 6l22 20l18 29l19 25l22 57l19 61l14 70v72l4 26l9 242l-13 195l-4 34l-2 33l-10 31l-4 31l-17 65l-26 53l-23 29l-26 16l-21 23l-29 18l-26 11l-35 4l-27 12l-96 2l-33 -6l-34 -19l-13 -26l2 -31l-4 -41v-29l6 -30l-6 -39l2 -66l2 -24l-2 -221l-4 -33l2 -45 l2 -27l2 -164l-6 -33l4 -34l-4 -105l6 -26v-33l-4 -31v-86l19 -41l26 -14l72 -2z" />
<glyph unicode="E" horiz-adv-x="825" d="M674 -8l-33 8h-63l-33 2l-33 -6l-31 4l-65 -4l-33 6l-29 -4l-30 4l-66 -8l-63 2l-33 16l-19 33l4 234l-6 100l2 35l4 28l-4 37l4 27l3 33l-7 36l-2 37l2 58l2 32l-2 37l7 37l-5 35l5 92l-3 41v29l-2 63l2 37l-4 47l7 82l-7 27v33l2 24l-2 37l-2 35l-4 26l15 37l30 15 l35 -9l29 9l33 -9l98 9l166 -6l98 2l33 -2l28 -17l21 -22l2 -31l-20 -29l-54 -18l-47 4l-33 4l-36 -2l-31 -4l-35 8l-70 -2l-65 -8l-35 -19l-18 -47l-2 -117l4 -67l-4 -29l4 -98l-4 -35l4 -29l-2 -32l14 -41l35 -13l28 -2l33 4l51 -2l62 2l51 -4l59 -2l33 4l35 -16l14 -35 l-16 -41l-31 -18l-61 -6l-31 8l-70 -2l-28 4l-35 -4l-64 -2l-34 4l-31 -23l-16 -28l4 -31l-2 -37l4 -37v-35l-4 -26l4 -37l-6 -209l2 -37l16 -47l37 -16l65 2l35 -6l35 4h70l34 -6l31 4l33 -2l33 2l35 -13l18 -30l-2 -31l-14 -31z" />
<glyph unicode="F" horiz-adv-x="817" d="M195 -2l-35 22l-17 33l4 488l-4 32l7 66l-5 41l5 25l-3 32l3 33l-5 31l2 35l-4 36v37l7 33l-3 31v31l-4 36l4 27v96l-6 72l4 29v55l-6 63l11 33l30 19l35 2l158 -9l45 7l145 -2l39 2l33 -4l29 6l30 -21l19 -39l-19 -39l-28 -18l-52 -2l-47 6l-32 -4h-39l-33 4l-31 -6 l-35 4l-65 -4l-35 -19l-12 -28v-31l-4 -65l2 -62l-2 -39l2 -26l-4 -68l4 -33l-4 -33l-3 -34l7 -66l18 -33l27 -14l69 6l129 -6l31 4l68 -4l30 -18l17 -33l-19 -43l-28 -17h-35l-35 4l-33 -6l-26 4l-39 -4l-64 9h-35l-59 -21l-16 -35l-4 -28l4 -35l-2 -168l4 -29l-6 -31v-39 l6 -69l-6 -64l2 -34l-2 -29v-31l-15 -33l-37 -18h-32z" />
<glyph unicode="G" horiz-adv-x="907" d="M473 -27l-45 2l-51 7l-74 26l-24 23l-27 14l-25 21l-51 73l-26 60l-19 57l-4 33l-8 33l-4 34l-9 33l-4 39l-14 231l4 56l-4 43l6 106l-2 29l6 70l8 34v35l3 27l16 69l2 29l49 133l19 31l24 18l14 25l31 25l31 20l51 21l33 10l63 10l136 -6l61 -19l47 -22l37 -23l14 -32 l-2 -35l-16 -23l-31 -10l-33 4l-30 14l-27 15l-31 12l-30 6h-103l-55 -18l-23 -15l-43 -38l-22 -31l-12 -31l-17 -55l-14 -74l-2 -29l-6 -36l-9 -105l2 -35l-6 -28l2 -37l-2 -35l11 -289l-5 -35l13 -69l8 -27l2 -39l20 -61l7 -31l14 -23l43 -49l27 -26l28 -15l27 -8l53 -4 l47 4l56 33l24 20l23 25l18 27l10 32l25 121l-4 37l6 100l-4 41l2 54l2 28l-18 33l-31 14l-37 -8l-31 2l-37 8l-26 -4h-33l-31 17l-18 35l14 41l33 14l65 -2l37 2l31 6l33 2l33 -6h65l37 6l31 -25l16 -26l4 -70l-6 -69v-35l2 -29v-131l-6 -39l-4 -22l-8 -70l-29 -92l-10 -27 l-23 -24l-41 -56l-20 -22l-31 -13l-29 -20l-24 -8l-35 -4l-31 -13z" />
<glyph unicode="H" horiz-adv-x="1013" d="M199 -4l-39 22l-17 29l7 127l-7 37v39l4 33l-4 129l4 28l-2 119l-4 27l4 121l-2 32l4 64l-2 100l5 82l-5 217v62l-2 28v33l-4 23l-2 34l17 33l30 12l35 7l35 -19l16 -18l9 -33l-3 -35l7 -37l-2 -55l2 -33l-2 -358l14 -31l35 -18l32 -6h35l31 2l47 -2l47 4l31 -2l33 4 l28 -2l31 4h37l31 18l16 27l2 69l-4 48l6 83l-6 269l6 69l10 29l35 23l33 -4l37 -17l20 -31v-30l-4 -33v-135l2 -31v-104l-4 -27l4 -53l-2 -31l4 -55l-2 -33l-4 -31l2 -37l-2 -32v-29l4 -66l-4 -30l2 -37l-2 -27l4 -37v-35l-4 -38l4 -64l-2 -78l4 -45l-6 -63v-64l4 -26v-41 l4 -31l-14 -25l-25 -16l-36 -2l-37 18l-19 25l-2 22l-10 66l4 70l-4 32l6 29v53l-6 45l4 271l-18 32l-33 21l-31 2l-61 -4l-53 8l-173 -6l-32 -4l-33 -19l-14 -32l2 -27l-4 -66l2 -36l-4 -31v-59l4 -39l-2 -56l4 -35l-6 -67l6 -33l-6 -129l-19 -29l-29 -22h-32z" />
<glyph unicode="I" horiz-adv-x="430" d="M242 -2l-31 2l-37 10l-22 31l-7 57l-2 33l4 31l-2 28l5 39l-5 27l2 51l-4 47l7 33l-7 229l4 31l-4 68l4 30l-2 35l2 144l-2 53l5 27l-3 157l-4 37v29l7 35l-3 30l-4 29v37l-4 26l13 33l32 19l31 -4l37 -15l22 -26v-29l7 -96l-2 -35l4 -35v-74l-7 -67l7 -205l-4 -35 l6 -330l-9 -65l3 -29l6 -37l-6 -47l2 -43l-2 -35l8 -125l-2 -32l4 -27l-15 -35z" />
<glyph unicode="J" horiz-adv-x="528" d="M29 -199l8 43l29 19l36 6l27 12l29 17l43 45l14 22l29 64l8 30l6 68l-2 49l2 86l2 25l-4 73l2 84l-4 41l6 33l-4 96l4 39l-4 31l4 31l2 516l-2 31l-6 30l2 94l10 29l27 19h35l39 -19l16 -24l10 -60l4 -258l-2 -33l-4 -30l6 -82l-4 -49l-2 -775l-8 -69l-21 -66l-28 -63 l-17 -27l-16 -22l-51 -47l-33 -17l-29 -22l-90 -17l-39 21z" />
<glyph unicode="K" horiz-adv-x="907" d="M772 -4l-41 12l-22 35l-13 31l-16 26l-10 29l-17 35l-6 31l-12 34l-10 21l-17 26l-10 37l-12 31l-43 86l-6 27l-27 61l-23 60l-28 57l-8 33l-13 34l-32 25l-37 2l-33 -16l-35 -31l-22 -33l4 -67l-4 -267l4 -32l-4 -31l4 -100l-4 -72l4 -35l-17 -29l-37 -18h-32l-35 12 l-15 37v35l-4 35v24l4 41l-6 232l6 65l-4 62l2 30l-4 84l9 101l-5 32l2 56l-4 26l2 37l-2 35l4 29l-4 55l4 92l-4 84l2 25l-2 37l4 34l-6 27v33l-4 26l15 33l32 13l29 2l41 -19l20 -24l5 -23l-3 -35l5 -31l-2 -36l4 -25l-4 -37l6 -84l-6 -47v-125l4 -28l-4 -31l2 -29l14 -27 l29 -10l88 47l20 21l25 26l24 19l58 76l14 30l33 54l22 71l17 25l22 98l10 25l11 69l24 33l33 19l35 -2l31 -19l12 -29l-33 -133l-10 -26l-15 -64l-8 -33l-28 -59l-15 -31l-45 -86l-22 -22l-15 -25l-41 -49l-18 -37v-45l12 -33l15 -28l10 -33l53 -117l8 -33l17 -28l10 -29 l16 -35l6 -24l19 -37l10 -31l12 -27l11 -36l24 -56l19 -26l32 -101l17 -26l10 -27l-4 -37l-21 -14l-30 2z" />
<glyph unicode="L" horiz-adv-x="745" d="M358 -8l-63 8h-35l-35 -2h-32l-29 16l-17 29l-4 37l2 369l2 24l-4 35l4 131l-4 162l4 69l-4 39l4 33l-6 49l2 203l4 31l-6 100v29l-2 32l15 33l26 13l37 -5l33 -12l24 -26l2 -23l-2 -37l5 -29l2 -67l-5 -33l5 -33v-47l4 -53l-2 -25v-88l-4 -49l4 -129l-4 -31l6 -163 l-6 -62l6 -69l-6 -78l4 -47l-7 -115l3 -53l18 -29l31 -18l67 6l31 -4h227l33 -13l21 -32v-29l-21 -23l-35 -14l-162 -8l-63 8l-35 -2z" />
<glyph unicode="M" horiz-adv-x="1277" d="M182 -8l-37 18l-16 35l4 229l-6 31l4 98l-2 33l2 131l-2 35l2 29l-4 31l6 266l-4 33l2 34l-2 95l2 32l-2 33l2 35l-2 59l2 37l-2 78l16 51l35 19l33 -4l37 2l33 -5l39 -14l26 -29l105 -376l12 -64l14 -37l6 -30l23 -60l4 -33l12 -34l76 -318l8 -57l13 -51l16 -15l80 355 l22 63l4 25l13 30l8 33l4 37l43 152l12 28l45 195l25 61l8 37l6 29l11 30l20 31l55 23l51 -2l31 -6l33 -15l22 -31l-6 -235l6 -35l-4 -63l2 -37l-4 -193l4 -37l-2 -32l7 -64l-7 -102l7 -160l-7 -39l4 -35l-6 -153l4 -33v-33l5 -27l-5 -26l7 -37l-13 -29l-26 -16l-33 -4 l-35 18l-22 23v24l-2 33l-7 33l2 35l-4 28l6 115l-6 51l4 37v35l-2 33l7 30l-7 35v35l4 70l-6 131l6 137l-2 94l2 31l-2 41l5 29l-5 41l5 127h-9l-14 -31l-4 -29l-4 -39l-10 -26l-7 -37l-118 -439l-15 -32l-4 -33l-12 -27l-6 -30l-62 -226l-12 -28l-6 -37l-10 -25l-29 -35 l-37 -10l-31 -2l-39 14l-26 29l-21 62l-2 32l-8 37l-12 31l-17 61l-14 27l-8 47l-16 49l-7 33l-20 63l-10 27l-6 35l-13 27l-12 65l-35 96l-82 355l-10 -4l-2 -68l2 -64l-2 -34l4 -33v-31l4 -139l-2 -29l2 -67l-4 -35l4 -33l-2 -25l2 -102l-2 -29l2 -32l-2 -492l-14 -35 l-35 -18z" />
<glyph unicode="N" horiz-adv-x="999" d="M721 -2l-37 18l-29 31l-12 29l-41 125l-8 35l-14 30l-7 29l-34 98l-7 25l-45 121l-16 71l-14 33l-8 33l-15 22l-18 68l-15 31l-4 32l-14 29l-78 252l-4 29l-27 94l-12 27l-8 2l2 -31l-2 -35l4 -35l-2 -33l4 -32l-2 -27l4 -35l-2 -51l4 -180l-6 -31l6 -131l-2 -35l4 -37 l-2 -28l-4 -31l2 -72l4 -49l-6 -45l4 -39l-2 -26v-33l4 -37l-6 -37l4 -129l-18 -31l-49 -12l-47 16l-17 27l-2 164l4 31l-4 38l2 134l-4 82l2 28v49l4 33l-6 78l2 84l-2 37l2 26l-2 39l4 31l-6 31l6 63v37l-4 27l2 104l-2 33l4 154l-2 36l16 35l48 17l51 -2l35 4l32 -19 l31 -33l12 -28l9 -29l4 -35l26 -57l113 -346l4 -29l10 -29l17 -32l30 -90l17 -64l67 -196l11 -50l10 -32l16 -37l8 -33l4 -33l19 -69l12 -31l8 2l2 102l-10 60l4 34v37l-6 47l6 48l-4 47l4 82l-4 26l2 422l-6 51l4 47l-4 27l4 31l-2 35l2 30l-6 99l14 30l27 11l35 -2l31 -11 l20 -28l6 -29l4 -57l-4 -33l4 -37l-4 -33l8 -166l-4 -24l4 -76l-2 -33l-4 -29l4 -169l-4 -29l4 -35l-2 -137l2 -33l-4 -29l4 -30v-33l-4 -35l4 -133l-4 -27v-37l4 -36l-4 -29v-29l-14 -41l-31 -12h-31l-36 2z" />
<glyph unicode="O" horiz-adv-x="946" d="M422 -23l-31 3l-33 10l-30 6l-25 12l-49 37l-41 41l-18 27l-15 24l-22 62l-17 26l-18 64l-31 237l4 39l-6 35v29l4 28v205l4 27l-2 35l2 34v31l8 33l13 100l28 99l15 22l10 35l18 20l13 35l22 27l27 16l22 19l29 18l27 14l30 13l29 6l31 4l49 4l47 -4l37 -6l27 -8l26 -6 l29 -15l53 -31l21 -18l43 -49l28 -57l19 -58l12 -31l8 -34l33 -238v-33l-4 -32l6 -199l-6 -64v-67l-8 -33l-6 -100l-11 -62l-16 -67l-37 -95l-33 -51l-22 -30l-25 -23l-51 -35l-25 -12l-30 -2l-31 -10l-35 -4h-49zM516 92l27 10l30 9l21 20l22 19l35 47l21 61l14 31l4 33 l4 40l11 66l8 94l-2 37l4 29l-2 178l4 27l-6 65l2 37l-8 125l-13 63l-2 37l-14 27l-10 29l-9 36l-14 31l-18 27l-47 43l-29 10l-35 10l-43 -2l-47 4l-29 -10l-26 -8l-21 -17l-41 -47l-26 -49l-27 -104l-16 -96l-5 -72l-2 -31l-4 -98l4 -90l-4 -49v-31l4 -33l2 -133l7 -25 l2 -63l24 -107l19 -57l12 -31l45 -47l27 -14l24 -19l31 -10z" />
<glyph unicode="P" horiz-adv-x="899" d="M219 -6l-35 6l-32 10l-21 37l4 193l-4 30l2 33l-2 37l4 31l-4 32l6 33l-6 33l-2 35l4 47l-2 127l2 53l-2 31l6 84l-2 47l-4 31l6 37l-6 34l2 33l-2 31l2 123l-4 39l2 34l-2 27l6 33l-2 61l19 39l32 21l33 -6h31l35 4h65l39 -7l51 7l47 -7l37 3l31 -11l33 -4l30 -12 l33 -19l31 -12l20 -18l48 -54l18 -26l12 -31l27 -59l8 -37l16 -152l-2 -49l-10 -35v-32l-6 -31l-31 -90l-14 -27l-39 -53l-22 -25l-27 -20l-27 -27l-55 -31l-92 -26l-195 -12l-26 -15l-17 -33l4 -30v-230l-4 -28l2 -142l-16 -47zM369 647l47 2l65 13l33 14l31 8l30 16l50 52 l14 30l18 25l21 70l2 34l6 33l-2 98l-6 62l-6 26l-15 46l-22 49l-21 30l-47 39l-28 6l-37 13l-78 6l-47 -4l-31 2l-33 6l-30 -20l-13 -37v-29l-4 -156l2 -47l-2 -33l2 -32l-2 -31l4 -66l-4 -38l6 -54l-8 -75l17 -35l34 -19z" />
<glyph unicode="Q" horiz-adv-x="976" d="M799 -164l-31 12l-29 17l-59 39l-41 18l-33 35l-41 12l-45 8l-98 -4l-35 9l-27 12l-30 6l-56 29l-18 16l-63 66l-17 26l-10 35l-14 23l-31 96l-4 33l-17 100l-2 35v39l-2 24l-6 41l-4 166l4 100l6 132l6 28l2 37l7 29l2 30l12 68l45 121l16 33l17 24l67 70l31 14l92 35 l27 -2l49 6l49 -6l88 -18l56 -27l24 -14l21 -19l71 -102l13 -33l45 -234l14 -129v-73l4 -39l-6 -96l2 -58l-6 -35l2 -34l-2 -31v-35l-13 -68v-30l-28 -129l-21 -54l-8 -34l-18 -33l-17 -23l-16 -26l-12 -29l14 -31l47 -39l29 -12l26 -16l29 -8l21 -33l-3 -35l-36 -31z M424 98l92 2l27 9l28 6l25 14l22 21l13 22l20 25l39 131l6 30l2 35l7 31l4 68v63l6 80l-2 31l2 45l-4 55l2 31l2 26l-6 105l-4 28l-3 64l-26 131l-21 61l-16 33l-61 64l-60 22l-49 6l-43 -4l-29 -12l-30 -10l-23 -13l-22 -18l-43 -76l-25 -67l-25 -199l2 -35l-6 -125 l-2 -110l2 -99l6 -28l13 -168l8 -31v-29l18 -69l17 -33l10 -25l20 -30l21 -25l55 -29z" />
<glyph unicode="R" horiz-adv-x="894" d="M764 -6l-45 6l-37 25l-23 38l-20 52l-8 32l-15 31l-8 33l-14 29l-8 28l-27 60l-8 26l-27 62l-14 26l-18 66l-13 27l-22 30l-27 27h-37l-69 4l-31 -2l-27 -25l-6 -37l4 -32v-31l2 -35l-2 -375l-10 -28l-25 -27l-34 -6l-33 10l-25 23l-6 32l-2 27l4 74l-6 59l-2 58l6 77v39 l2 39l-6 113l6 37v32l-4 35l6 62l-2 162l-6 32v66l6 33v34l-8 33l2 29l6 35v53l-6 45l6 33l2 30l-6 64l6 35l37 26l55 2l37 9l39 -2l35 -9l31 9l41 -7l53 -2l45 -6l27 4l36 -14l27 -8l33 -15l55 -30l25 -21l22 -26l23 -23l10 -22l22 -31l19 -68l6 -65l10 -41l-4 -49l-6 -37 l-4 -31l-2 -35l-6 -37l-23 -59l-16 -31l-21 -28l-14 -27l-25 -23l-26 -18l-29 -18l-26 -23l-15 -33l6 -37l45 -127l15 -26l8 -31l10 -27l15 -30l8 -27l12 -37l35 -78l12 -40l27 -58l12 -33l2 -28l-22 -29zM340 709h96l31 8l29 2l32 8l33 18l29 15l24 18l45 80l13 35v35l8 28 l2 50l-6 131l-10 30l-56 82l-28 25l-25 14l-29 10l-79 17l-89 6l-34 -4l-29 -10l-21 -19l-14 -39l2 -26l2 -68l-4 -41l-2 -47l4 -35l-4 -82l2 -47l-2 -39l4 -26l-2 -33l2 -31l10 -33l25 -26z" />
<glyph unicode="S" horiz-adv-x="862" d="M410 -23l-48 7l-32 -2l-37 10l-29 2l-35 8l-36 14l-56 31l-28 25l-17 32l8 41l33 23l31 -8l29 -19l90 -37l34 -6l31 -2l53 -8l48 8l61 19l55 37l23 24l20 25l13 26l12 35l8 31l6 29v47l2 49l-2 39l-10 22l-12 37l-13 25l-39 49l-71 67l-29 17l-27 20l-112 64l-51 39 l-31 14l-21 31l-49 45l-45 74l-24 65l-9 61l-4 48l9 79l34 97l17 24l24 17l27 26l29 15l20 22l31 15l49 16h45l49 4l51 2l39 -4l66 -16l28 -13l64 -37l16 -32l-8 -41l-39 -29l-43 10l-24 19l-35 16h-35l-33 10l-51 4l-47 -8l-55 -24l-27 -21l-20 -20l-17 -31l-18 -23l-6 -36 l2 -127l16 -29l10 -31l21 -24l18 -29l84 -64l113 -63l108 -74l93 -86l18 -33l18 -28l17 -27l22 -63v-29l8 -35l3 -51l-5 -49l-6 -35l-6 -29l-6 -30l-10 -31l-15 -31l-10 -26l-20 -33l-27 -21l-18 -24l-25 -23l-53 -39l-31 -10l-65 -16z" />
<glyph unicode="T" horiz-adv-x="786" d="M420 -2l-31 4l-39 8l-18 25l-8 57l2 39l-4 31l4 65l-2 82l4 115l-6 29l4 30l-2 33l2 35v29l2 38l-4 35v58l4 39v30l-4 35v453l-19 35l-31 16l-65 -2l-31 4l-37 -4l-61 8l-35 14l-14 39l14 31l35 21l47 -3l47 7l35 -4l72 4l30 -7l31 3l33 -3l33 7l32 -4l33 8l31 -6l69 -2 l68 8l64 -11l34 -12l13 -45l-15 -39l-47 -14l-86 4l-31 -2l-30 4l-37 -6l-29 -17l-18 -32l-2 -27l6 -33l-4 -37l4 -69l-4 -23l2 -73l-6 -31l8 -62l-6 -30l-2 -33l4 -33v-37l-2 -32l4 -37l-4 -31l2 -43v-113l4 -35l-6 -34l2 -31l-2 -64l4 -51l-2 -47l2 -37l-2 -28l2 -27v-31 l-4 -30l6 -37l2 -29l-10 -31z" />
<glyph unicode="U" horiz-adv-x="935" d="M428 -23l-39 7l-33 2l-57 20l-31 17l-20 20l-23 27l-20 22l-15 31l-16 31l-14 63l-10 25l-3 37l-6 28l-2 70v33l-4 47v49l2 31l-2 165l4 37l-2 70l2 31l-6 102l6 127l-6 94l4 41l-4 88l2 33l-4 33v24l12 35l29 15l35 -2l35 -15l22 -26l4 -27l2 -27l-2 -37l4 -65l-2 -264 l4 -31v-197l-4 -32l4 -29v-39l-6 -61l6 -31l2 -33l-6 -100l2 -70l7 -29l2 -30l16 -70l22 -59l19 -27l27 -20l30 -5l31 -8l47 -4l47 -2l35 6l53 29l23 29l10 22l21 66l4 37l8 32v35l-2 33l4 29l-2 194l4 35l-2 33l4 135l-4 29l2 94l-2 33l2 67l-4 60l6 38l-4 27l4 197l-6 34 l22 27l35 17l33 6l31 -17l20 -39v-32l-4 -27l2 -68l2 -26l-4 -215l2 -49l-2 -29l4 -105l-6 -30l4 -35l-2 -35l2 -59l-4 -64l2 -33l-2 -32l2 -39l4 -43l-6 -49v-33l-4 -33v-35l-17 -94l-30 -96l-17 -27l-16 -24l-27 -23l-22 -20l-31 -15l-57 -20l-64 -10z" />
<glyph unicode="V" horiz-adv-x="890" d="M412 -4l-37 22l-27 27l-2 33l-51 227l-19 55v33l-12 35l-65 287l-4 30l-19 68l-4 29l-10 32l-10 66l-29 127l-10 35l-33 151l-10 33l-4 35l-13 35l-4 33l14 28l29 10l37 9l37 -21l22 -29l7 -32l10 -33l4 -35l12 -31l2 -32l6 -27l13 -37l30 -153l4 -35l13 -29l8 -39l8 -29 l2 -34l29 -123l2 -37l22 -57l9 -70l12 -31l8 -28l21 -125l2 -39l10 -33v-23l8 -34l4 -35l12 -35l5 2l10 35l4 35l6 24l6 70l8 29l33 196l21 62l61 284l12 78l23 82l4 25l8 34l10 66l17 59l2 39l16 60l6 34l23 31l37 19h37l32 -17l11 -35l-11 -28l-24 -135l-17 -56l-16 -102 l-8 -25l-6 -35l-13 -34l-2 -29l-10 -29l-6 -35l-10 -30l-15 -68l-4 -33l-22 -92l-2 -35l-8 -30l-13 -27l-12 -70l-10 -30l-2 -29l-29 -125l-10 -33l-4 -32l-13 -70l-18 -59l-12 -70l-25 -31l-39 -12l-31 4z" />
<glyph unicode="W" horiz-adv-x="1394" d="M1016 -8l-66 4l-35 16l-20 29l-55 326l-9 34l-12 64v37l-12 33l-2 30l-10 37l-7 31l-6 65l-22 90v37l-10 35l-2 27l-11 37l-24 194l-2 31l-13 102h-8l-10 -67v-37l-4 -29l-8 -37l-39 -272l-13 -49v-33l-18 -98l-10 -35l-23 -162l-8 -31l-2 -32l-8 -31l-2 -35l-10 -29 l-9 -32l-2 -35l-28 -162l-21 -31l-33 -16l-34 -4l-29 6l-35 16l-22 29l-23 121l-4 37l-16 63l-3 31l-12 47l-8 49l-2 35l-10 31l-4 30l-15 62l-6 39l-37 186l-12 98l-8 31l-10 29l-2 37l-13 61l-12 27l-2 37l-8 30l-33 195l-8 29l-6 36l8 27l35 21l39 -4l36 -15l21 -33 l14 -98l10 -33l2 -28l11 -31v-37l10 -45l14 -49l13 -100l16 -58v-39l16 -67l17 -97l2 -34l6 -31l10 -27l12 -67l2 -31l29 -156v-30l2 -31l8 -37l11 -94l6 2l2 31l10 61v39l6 29l-2 24l8 53l11 45l2 33l12 64l2 32l6 31l12 39l2 25l19 98l2 37l18 59l4 66l11 35l12 65l2 27 l25 133l2 33l6 28l8 37l8 27l2 31l6 30l25 39l45 19l39 -4l37 -17l20 -29l6 -32l9 -66l18 -61l6 -70l15 -61l2 -29l6 -33l8 -35l8 -36l2 -27l8 -37l21 -131l10 -33l6 -26l4 -35l25 -127l2 -37l41 -279l-2 -34l4 -31l8 -2l6 35l4 30v31l7 29l16 159l27 129v37l22 88l2 31 l16 72l3 59l12 35l2 33l20 100v29l13 43l8 49l8 35l6 69l17 62l8 63l26 33l33 19l35 -5l29 -18l14 -25l-2 -30l-12 -35l-4 -35l-9 -31l-2 -28l-16 -68l-2 -33l-10 -61l-11 -25l-8 -67l-8 -31l-2 -41l-10 -27l-4 -28l-9 -31l-6 -37l-2 -26l-8 -39l-2 -31l-10 -31l-45 -225 v-29l-45 -227l-9 -62l-8 -32l-4 -29l-20 -35z" />
<glyph unicode="X" horiz-adv-x="892" d="M104 -6l-30 20l-2 29l22 61l8 33l11 31l16 25l64 159l6 25l14 33l8 34l39 93l10 30l27 54l37 100l4 39l-8 51l-15 27l-32 90l-9 37l-14 22l-45 125l-41 92l-14 45l-23 43l-10 33l-12 27l-6 30v35l28 19l37 -2l45 -15l33 -33l12 -32l8 -31l15 -27l18 -65l14 -27l13 -33 l16 -30l55 -146l7 -26l14 -31l18 -51l13 -13l10 31l16 29l8 33l13 28l30 88l15 29l12 33l19 41l47 139l14 31l10 33l27 32l41 11h39l26 -15l6 -31l-8 -32l-14 -31l-12 -33l-15 -24l-47 -119l-6 -35l-10 -29l-21 -43l-28 -75l-15 -27l-8 -37l-16 -24l-8 -35l-17 -29l-6 -45 l33 -106l14 -29l8 -37l15 -29l16 -63l14 -25l13 -30l10 -39l29 -58l22 -63l14 -31l43 -127l37 -84l-8 -31l-24 -18l-41 -2l-41 16l-31 31l-8 31l-15 32l-10 25l-14 31l-12 31l-9 32l-12 29l-12 39l-64 158l-14 51l-14 26l-7 29l-14 31l-10 35l-10 24l-13 2l-10 -28l-16 -35 l-8 -29l-25 -53l-12 -53l-74 -193l-31 -61l-8 -37l-14 -25l-11 -29l-18 -43l-41 -45l-35 -22z" />
<glyph unicode="Y" horiz-adv-x="802" d="M420 -2l-33 6l-33 12l-16 29l-4 129l4 68l-2 34l4 48l-4 47l4 100l-6 143l-23 78l-12 31l-16 31l-17 39l-22 77l-13 33l-28 62l-8 28l-15 31l-18 66l-12 26l-11 27l-28 57l-31 96l-27 58l-10 30l6 29l31 19l39 -5l41 -8l26 -35l23 -61l14 -25l8 -49l88 -221l23 -80 l33 -86l8 -31l14 -30l11 -6l18 59l14 23l43 120l17 72l16 33l19 63l26 66l6 26l17 33l18 64l12 28l27 31l41 25h39l27 -23l6 -29l-54 -155l-14 -27l-8 -30l-49 -119l-27 -92l-16 -29l-13 -35l-6 -31l-22 -57l-21 -66l-12 -24l-25 -66l-10 -47l-6 -243l4 -56l-2 -35v-30 l-4 -70l6 -33v-30l-4 -37v-29l-16 -33z" />
<glyph unicode="Z" horiz-adv-x="802" d="M129 -8l-31 18l-20 29l2 27l10 43l8 49l23 57l16 31l10 33l15 32l10 31l8 29l17 26l8 35l28 53l15 35l12 25l10 35l29 57l6 33l12 35l15 22l33 92l16 31l10 33l12 26l9 29l12 27l18 34l11 35l10 23l16 30l23 66l28 57l9 29l12 33l-4 35l-29 8h-31l-34 4h-35l-29 -4l-37 4 l-35 -4l-69 -2l-62 6h-36l-31 10l-19 45l19 49l28 13l35 -9l174 9l47 -9l95 3l32 6l33 -2l33 -4l29 2l34 -2l35 -15l17 -26l2 -29l-21 -92l-26 -56l-23 -61l-14 -29l-23 -65l-41 -90l-8 -29l-12 -25l-41 -90l-19 -67l-16 -25l-8 -35l-17 -28l-8 -33l-12 -23l-27 -63l-14 -29 l-8 -35l-10 -26l-17 -27l-59 -158l-13 -22l-34 -92l2 -25l22 -18l35 -6l35 8l45 -4l45 2l37 -6h31l61 8l33 -6l30 6l35 -2l60 -15l16 -34v-25l-18 -33l-29 -14h-84l-49 4l-29 -2l-37 -2l-32 4l-35 -4l-76 8l-37 -2l-29 2l-30 -4l-54 2l-30 -4z" />
<glyph unicode="[" horiz-adv-x="413" d="M127 -160l-29 21l-16 33l2 34l-2 27l4 49l-4 121l4 49l-4 49v37l4 45l-6 49l2 29v102l4 33l-2 27l2 37l-4 55l2 31l-2 43l4 34l-4 33v31l4 39l-4 35l2 59l-2 31l4 65l-4 41v45l2 39l-2 80l2 31l-2 37l2 26l-4 33l4 72l-2 100l20 31l45 14l70 -2h64l32 -14l15 -29l-17 -39 l-26 -12h-29l-33 -14l-12 -58v-43l-2 -35l-2 -36l2 -27l-4 -29l4 -39l-2 -34l4 -29l-4 -39v-27l6 -53l-6 -49v-70l2 -32v-27l-4 -72l6 -33l-4 -63l4 -31l2 -33l-8 -65l2 -66l4 -36l-2 -68l-4 -27l4 -37v-38l-2 -27l4 -35l-4 -29l2 -34l-2 -39l2 -33v-29l-4 -51l18 -51 l43 -16l49 -11l15 -32l-17 -29l-28 -19l-45 -2h-82z" />
<glyph unicode="\" horiz-adv-x="677" d="M557 -4l-39 18l-22 33l-13 27l-6 28l-12 37l-6 35l-8 27l-15 30l-6 33l-14 29l-8 35l-5 28l-22 62l-4 37l-12 24l-11 33l-6 31l-41 127l-6 28l-10 39l-23 54l-8 30l-4 35l-20 59l-9 37l-10 23l-10 33l-8 36l-11 29l-10 31l-4 33l-8 32l-23 58l-30 92l-4 31l-11 32l8 31 l27 23l45 -23l27 -31l14 -26l2 -33l12 -33l9 -35l8 -24l8 -33l10 -27l13 -30l10 -37l4 -27l16 -65l15 -37l8 -29l10 -28l4 -31l19 -62l14 -32l6 -31l10 -29l9 -28l12 -35l8 -35l12 -27l4 -30l11 -37l12 -27l6 -33l10 -30l13 -31l6 -35l14 -31l6 -28l10 -29l7 -31l12 -30 l4 -39l18 -50l11 -43l14 -26l10 -33l-16 -33z" />
<glyph unicode="]" horiz-adv-x="413" d="M223 -160l-37 8l-57 -2l-31 13l-14 35l10 32l31 13l27 2l34 14l17 35l2 33l-4 32l2 29l2 139l-4 27l4 37l-4 30l-2 35l6 64v39l-2 30l2 31l-4 33l-2 80l6 69l-4 52v47l2 39v47l-2 30l2 31l-4 33l6 37l-6 30l6 35l2 33l-4 37v29l2 34l-4 68l4 29l-4 67l2 37l-2 29l-17 31 l-26 24l-29 -2l-31 12l-16 35l14 27l31 16h29l34 4l93 -2l30 -16l15 -31l4 -33l-2 -37l-6 -67l6 -45l-4 -35l2 -47l-2 -70l4 -30l-4 -136l2 -26l-2 -70l4 -35l-4 -26v-33l4 -35l-4 -61l4 -37l2 -37l-6 -33l-2 -35l6 -262l-2 -31l2 -30l-4 -37l4 -29l-6 -63l4 -33l-4 -39 l4 -27v-32l-2 -37l-2 -33l4 -61l-17 -31l-30 -25l-27 -2h-31z" />
<glyph unicode="^" horiz-adv-x="659" d="M535 668l-37 20l-21 27l-12 37l-8 32l-31 90l-6 37l-25 66l-20 72l-15 34l-12 52l-10 26l-12 17l-15 -19l-10 -24l-27 -101l-16 -47l-12 -45l-10 -29l-11 -36l-39 -123l-8 -37l-24 -31l-48 -10l-38 10l-9 31l29 63l2 37l14 31l11 31l6 32l14 29l4 29l15 30l10 37l6 33 l14 29l15 65l24 56l6 32l33 92l25 33l43 21l39 -25l28 -22l11 -33l4 -27l24 -69l19 -74l12 -31l14 -49l8 -37l15 -26l8 -29l6 -37l14 -29l7 -28l12 -39l8 -27l12 -37l7 -28l10 -31l-2 -33l-25 -10z" />
<glyph unicode="_" horiz-adv-x="724" d="M381 -8l-35 4h-35l-28 -2h-68l-45 6l-51 18l-15 35l11 35l37 12l49 4h84l28 -2l49 -2l50 2h30l29 7l33 -5l35 5l28 -3l35 -24l21 -29l-17 -35l-33 -16h-36l-62 -8l-47 4z" />
<glyph unicode="`" horiz-adv-x="354" d="M246 1530l-49 20l-37 27l-19 20l-12 29l-25 23l-18 37l-2 22l22 14l39 4l39 -16l29 -31l29 -49l10 -28l20 -27l-2 -31z" />
<glyph unicode="a" horiz-adv-x="811" d="M373 -23l-84 5l-29 4l-27 10l-26 8l-23 14l-22 17l-21 16l-28 47l-15 31l-14 51l-2 29v88l4 29l4 26l8 31l11 23l10 30l18 25l15 22l18 23l20 16l25 25l25 14l79 37l31 6l58 8l43 -2l38 4l27 -4l29 11l16 26l-6 60l-4 28l-4 27l-8 33l-11 22l-16 21l-23 16l-22 18l-27 7 l-43 -2l-43 4l-45 -11l-39 -14l-53 -33l-29 -6l-26 17l-12 16l-5 33l17 30l20 17l27 12l24 14l54 23l24 2l31 8l29 2l84 -2l30 -10l41 -10l37 -19l21 -12l22 -18l35 -52l12 -26l13 -31l12 -57l8 -58v-45l4 -41l-2 -57l-2 -25l2 -28l2 -88l-4 -60l4 -22l-4 -103l4 -69l-2 -31 l2 -31l6 -53l-8 -33l-43 -14l-53 12l-21 25l-4 30l-12 11l-16 -8l-39 -35l-27 -19l-47 -18zM350 90l43 2l25 8l51 25l43 27l20 22l17 33l10 37v26l-2 29l2 143v23l-14 35l-27 8l-106 4l-29 -10l-51 -15l-47 -32l-19 -21l-18 -24l-12 -21l-13 -27l-4 -26l-4 -74v-47l4 -25 l21 -51l16 -18l25 -15l28 -12z" />
<glyph unicode="b" horiz-adv-x="888" d="M483 -20l-43 6l-57 12l-25 16l-22 17l-25 12l-24 20l-23 5l-12 -21l-19 -33l-32 -12l-23 -6h-26l-23 18l-8 31l8 59l-2 78l4 41l-4 56v30l4 31l-4 199l2 30v113l-2 43l2 29l-2 26l2 142l-2 26v29l2 29l-2 28l2 86l-2 43v31l4 25l-4 88l-2 26v31l-4 27l10 28l21 13l26 -2 l29 4l24 -15l19 -28l8 -142l-2 -145l2 -33l-2 -39l4 -26l-2 -60l14 -24l21 2l24 16l29 14l27 13l28 8l27 10l33 6l41 2l43 -6h28l52 -20l43 -27l22 -22l35 -37l27 -52l8 -24l12 -27l6 -30l8 -27l15 -117l-2 -31l4 -26l-2 -117l-4 -27l-2 -30l-11 -86l-6 -31l-8 -25l-6 -26 l-10 -31l-29 -53l-29 -43l-41 -45l-22 -15l-25 -10l-26 -16l-25 -6l-29 -6h-45zM496 88l39 6l24 12l21 13l18 22l14 21l25 53l4 31l8 24l15 86v31l6 29l-2 28l4 43l-2 41l2 27l-4 61l-4 29l-5 62l-8 28l-20 58l-31 47l-22 12l-29 18l-25 9h-45l-41 2l-22 -9l-29 -6l-22 -10 l-29 -12l-21 -19l-24 -14l-25 -25l-10 -38v-31l2 -25l-2 -30l4 -31l-4 -27v-29l2 -57v-115l-2 -143l12 -41l19 -39l16 -22l25 -17l22 -14l49 -27l29 -8h27z" />
<glyph unicode="c" d="M469 -20l-86 2l-59 6l-54 18l-24 14l-43 39l-21 15l-16 24l-27 52l-10 24l-18 62l-9 24l-16 150l-2 73l4 45l-2 27l8 88l8 27l2 28l9 31l10 25l8 28l10 29l15 18l14 29l20 21l17 26l20 19l23 16l24 14l82 29l27 4l45 4l41 -2l61 -14l76 -33l27 -20l18 -17l17 -33l-6 -34 l-13 -23l-26 -12l-29 10l-45 33l-27 16l-24 8l-72 9l-43 -5l-25 -6l-26 -10l-21 -16l-18 -23l-17 -22l-14 -23l-10 -24l-6 -27l-10 -25l-9 -61l-4 -23l-4 -28v-31l-2 -29l2 -47v-67l10 -115l7 -25l4 -28l12 -23l22 -55l17 -23l18 -20l62 -31l53 -4l43 4l55 10l29 9l35 26 l32 29l29 8l25 -14l12 -21l8 -28l-14 -39l-25 -21l-22 -12l-49 -31l-27 -6l-29 -14l-26 -6z" />
<glyph unicode="d" horiz-adv-x="897" d="M449 -20l-43 2h-39l-31 2l-25 6l-26 18l-52 25l-20 18l-20 21l-15 24l-18 27l-27 47l-6 27l-12 26l-13 64l-4 32l-10 54l-4 59v86l4 29l4 33v26l4 31l6 29l4 26l17 60l33 82l51 67l22 21l25 12l22 18l27 15l25 10l26 4l31 6l41 2h45l29 -8l24 -4l56 -23l20 -12h23l14 21 l-2 26l4 47l-6 183l4 24v31l-2 29l-4 32l2 25l-4 29l8 30l22 13h41l39 -13l17 -26l8 -54l-2 -28l4 -27l-2 -31l2 -69l-2 -117l2 -27v-71l-2 -31l2 -43l-2 -27l2 -77l-2 -80l4 -33l-4 -275l2 -32v-217l8 -113l-12 -29l-25 -16l-30 4l-35 10l-21 23l-4 24l-12 19l-19 -6 l-20 -21l-23 -14l-45 -35l-24 -4zM389 88l41 2l43 4l25 4l22 11l27 8l22 12l23 21l16 24l17 31l10 39l2 245l2 31l-4 41l2 176l-10 39l-17 35l-71 51l-58 15l-47 2l-41 -2l-41 -15l-37 -16l-39 -45l-12 -21l-12 -28l-8 -29l-23 -115l2 -24l-6 -58v-45l4 -75l2 -21l2 -57 l13 -58l4 -32l10 -23l10 -27l12 -28l19 -21l20 -16l47 -25z" />
<glyph unicode="e" horiz-adv-x="794" d="M375 -23l-29 7l-82 26l-24 19l-41 39l-49 67l-13 27l-22 53l-9 27l-2 34l-10 25l-2 31l-4 28l-4 31l-2 113l10 117l10 57l21 88l10 29l12 26l31 45l37 49l20 17l27 16l78 33l59 10l41 -2l43 -4l54 -8l77 -41l43 -45l29 -49l8 -25l8 -74l-10 -73l-6 -25l-6 -29l-14 -28 l-43 -74l-62 -59l-24 -21l-72 -43l-27 -10l-30 -10l-54 -21l-28 -6l-29 -2l-31 -8l-24 -15l-13 -28l13 -45l16 -43l43 -72l47 -33l27 -6l45 -4l43 2l28 8l31 4l25 13l37 22l36 29l29 12l25 -12l12 -25l4 -32l-14 -31l-21 -21l-24 -20l-25 -14l-29 -11l-28 -14l-55 -14 l-27 -4zM258 430l29 6l57 17l25 10l51 26l72 48l18 22l14 25l15 28l10 27l8 25l6 30l2 43l-2 41l-6 31l-37 45l-20 10l-31 13h-39l-53 -7l-43 -10l-21 -14l-18 -17l-19 -20l-16 -29l-20 -55l-25 -141l2 -58l-4 -57l16 -29z" />
<glyph unicode="f" horiz-adv-x="649" d="M242 -4l-37 16l-15 27l3 31v157l2 29v31l-5 45v26l5 29l-5 29v35l3 65l-3 86l3 47v31l-3 43l3 45v41l-17 45l-92 27l-14 24l2 29l14 22l90 29l14 27l5 110l-2 31l4 35l10 53l8 31l27 53l14 27l16 22l21 17l49 34l27 13l55 14h88l61 -10l29 -15l25 -18l-4 -45l-31 -35h-29 l-26 10h-70l-41 -6l-49 -24l-17 -17l-14 -20l-16 -58l-8 -55l2 -69l-5 -48v-26l17 -31l41 -16l72 2l67 -4l43 -15l14 -20l2 -25l-14 -33l-29 -10l-26 4l-31 -2h-26l-58 -2l-26 6l-31 -14l-12 -33l-3 -118l5 -29l-5 -25v-49l3 -37v-59l-3 -45v-393l3 -27l-15 -27l-24 -14z " />
<glyph unicode="g" horiz-adv-x="884" d="M418 -537l-41 5l-31 2l-27 2l-28 8l-25 14l-24 8l-70 47l-12 33l6 31l14 27l23 10l26 -6l23 -19l24 -16l29 -12l53 -19h43l27 -4l45 6l27 10l49 27l22 16l15 23l16 29l12 26l17 53l6 144l-2 26v29l2 37l-2 43l-10 20l-21 -4l-20 -20l-62 -39l-41 -12l-30 -6l-41 -2l-45 4 l-70 12l-41 22l-21 15l-20 20l-20 17l-19 26l-16 19l-13 26l-12 31l-10 25l-17 61l-4 27l-8 28l-4 33v31l-4 57v47l-2 43v29l8 49l2 31l8 63l25 76l35 80l18 29l56 55l22 20l27 11l41 10l39 8l90 2l55 -14l29 -12l26 -15l25 -20l22 -15l19 -8l16 19l21 30l34 21l33 2l25 -19 l12 -32l-6 -142l2 -69l-2 -74v-43l-2 -70l2 -30l2 -29l-2 -27l-2 -73l4 -39v-31l-4 -45v-27l2 -28v-43l2 -29l-2 -27l2 -30l-2 -33l2 -25v-24l-4 -29l4 -29l-2 -121l-2 -22l-4 -29l-25 -82l-10 -24l-12 -25l-17 -24l-16 -23l-41 -41l-47 -33l-23 -12l-28 -8l-29 -6l-25 -13 l-26 -2h-43zM428 88l41 4l27 4l24 8l27 13l65 53l19 37l8 39v30l-2 29v250l-2 25l4 45v75l-10 56l-19 35l-20 20l-25 18l-47 29l-26 10l-31 6l-41 3l-43 -3l-25 -8l-26 -12l-21 -12l-20 -19l-31 -45l-18 -57l-5 -25l-4 -32l-2 -23l-4 -31l-2 -59v-29l-2 -45l2 -41v-28l4 -27 v-27l8 -57l7 -27l4 -30l10 -27l24 -47l19 -27l16 -16l23 -19l26 -6l27 -8z" />
<glyph unicode="h" horiz-adv-x="858" d="M662 -6l-27 14l-19 29l-4 22v27l-4 57l2 29l-2 29l-2 63l4 45l-2 45v29l-2 57l4 25l-4 29v231l2 29l-2 26l-4 27l-24 49l-23 10l-25 6l-45 7l-41 -7h-30l-27 -8l-53 -28l-27 -17l-20 -18l-25 -37l-10 -41l2 -31l-2 -51l4 -121l-4 -26l2 -29v-82l-2 -31l2 -26l2 -273 l-14 -39l-39 -14l-25 -2l-39 14l-16 29v315l2 27l2 33l-4 28v86l4 31l-4 51l2 576l-2 33l2 28l-2 27l2 59l-6 29v27l6 24l22 15h39l45 -15l17 -18v-29l4 -29v-53l4 -297l-4 -69l12 -21l21 6l47 29l22 12l27 8l27 15l81 18h82l27 -6l51 -20l23 -19l43 -57l14 -39l6 -29l2 -35 v-39l2 -41l-2 -32l4 -25l-4 -31v-376l4 -54l-2 -30l6 -119l-6 -25l-24 -16h-53z" />
<glyph unicode="i" horiz-adv-x="391" d="M190 1137l-38 2l-27 16l-14 25l-9 43l9 39l18 24l21 19l45 2h41l20 -19l20 -24l7 -41l-9 -47l-18 -19l-23 -16zM182 -6l-28 16l-17 25l-6 24v25l-4 29l2 28l-4 121l2 47l-2 172l2 45l-2 176l2 29l-2 29v22l2 33l-4 27l2 30l-2 29l-4 27l10 33l23 8l26 4l27 -4l28 -11 l17 -30l2 -56l4 -26v-92l2 -47l-2 -72l2 -29v-131l2 -26l-4 -46l2 -98l-2 -41v-26l4 -27l-2 -33v-28l2 -25v-31l2 -28v-27l-4 -29l-25 -14z" />
<glyph unicode="j" horiz-adv-x="434" d="M238 1137l-45 4l-21 20l-18 21l-4 39l6 43l16 26l21 15l45 4l43 -4l20 -17l21 -24l2 -43l-5 -41l-18 -25l-20 -12zM61 -526l-30 8l-21 26l-6 29l8 31l27 22l29 9l22 16l37 43l25 51l6 29l10 63l2 54v120l2 33v70l2 33l-4 39v178l2 24l-2 88l2 35v55l-2 31v25l4 28l-4 45 l2 41l-2 33l2 25l-2 30l-2 27l2 31l-2 26v29l-2 29l6 26l27 17l26 -4l27 4l29 -15l16 -22l2 -57l4 -31l2 -371l-4 -26l2 -31l-2 -31l2 -78l-2 -102l2 -41v-57l-2 -29l2 -86l-2 -27l2 -114l-10 -86l-2 -33l-6 -27l-15 -53l-43 -84l-37 -39l-22 -18l-23 -15l-28 -12l-27 -4z " />
<glyph unicode="k" horiz-adv-x="825" d="M758 -4l-47 2l-54 10l-30 25l-17 28l-30 45l-27 54l-18 26l-43 76l-50 70l-12 24l-31 52l-14 26l-16 23l-31 20h-35l-35 -20l-14 -49v-158l-2 -31l2 -90l-2 -29l2 -30v-27l-12 -33l-27 -12h-25l-26 2l-25 12l-12 29l-4 57l4 33l-4 29v84l2 26l-2 205l2 27v102l2 23l-4 45 v317l4 43l-2 33v55l-2 41l2 29l-2 33v114l-4 23l-2 31l10 28l20 11l27 2l25 -2l30 -11l19 -22v-27l4 -24l2 -119l2 -33l-2 -344l-2 -29v-26l2 -31l-2 -29l2 -28l-2 -76l12 -35l31 -2l74 39l24 16l23 19l55 63l35 45l14 23l37 82l8 24l13 27l20 29l35 12l29 -4l26 4l27 -15 l4 -28l-29 -74l-53 -104l-31 -45l-18 -21l-53 -68l-21 -16l-22 -16l-11 -29l4 -37l15 -26l12 -25l16 -18l15 -27l16 -25l27 -49l18 -24l12 -25l15 -25l16 -22l12 -27l19 -20l12 -29l17 -22l12 -23l61 -98v-27z" />
<glyph unicode="l" horiz-adv-x="382" d="M176 -4l-24 10l-17 27l-6 26l-4 54l2 90l-2 30v27l-2 47v47l4 54l-4 28l2 377l-2 33v28l4 27l-4 178l2 41v129l-4 29l2 55l-4 56l10 28l21 15l22 -2l27 4l28 -17l21 -20l6 -148l-2 -24l4 -29l-4 -78l2 -55l-2 -29l2 -47l-2 -24v-95l4 -37l-4 -47l2 -24v-31l-2 -27l4 -30 l-2 -408v-28l-2 -56l4 -26l2 -27l-2 -33l2 -55l-4 -29l-23 -10l-26 2z" />
<glyph unicode="m" horiz-adv-x="1314" d="M186 -2l-26 2l-29 12l-10 31l-4 57l4 58v26l-2 27l-2 45l2 25v75l2 31l-2 25l2 57l-2 29l2 75l-2 242l-4 27v59l-6 25l8 30l35 17l38 -2l29 -19l23 -30l14 -19l23 4l49 31l26 12l84 35h29l43 4l47 -4l27 -2l22 -10l27 -15l22 -16l17 -16l18 -25l23 -12h24l47 37l52 32 l51 19l43 8l55 8l45 -2l51 -16l27 -19l25 -12l18 -20l25 -50l10 -28l6 -31v-31l4 -41v-57l-2 -31l4 -82l-2 -30l2 -473l4 -27l-8 -31l-25 -14l-53 4l-29 8l-14 25l-6 53l2 27l-4 28l-2 60l2 35v69l2 41l-2 31l2 29l-4 92l4 22l-4 121l4 109l-10 55l-10 22l-17 19l-18 20 l-29 9l-39 2h-41l-29 -7l-28 -8l-25 -14l-22 -16l-43 -33l-23 -37l-8 -53l-2 -72l2 -170l-4 -57l4 -86l-4 -29l4 -29l-2 -30v-80l2 -47v-74l-16 -27l-27 -12h-23l-26 2l-29 14l-12 37v31l2 33l-2 223l2 31l-2 86l2 71l-2 29v82l2 43l-4 68l2 28l-6 31l-13 22l-14 23l-47 25 h-84l-25 -9l-28 -10l-27 -8l-45 -35l-22 -20l-19 -31l-10 -37l-2 -27l-2 -59l4 -33v-164l-4 -34l4 -23v-145l-2 -29v-29l2 -30l-2 -31v-82l-14 -27l-23 -14z" />
<glyph unicode="n" horiz-adv-x="858" d="M715 -4l-27 4l-24 2l-31 10l-17 21l-2 22l-4 60v32l-2 27v29l-2 30l4 33l-2 156l2 33v24l-4 72l4 172l-8 82l-10 29l-14 20l-23 12l-27 11h-41l-65 -5l-31 -8l-26 -14l-23 -14l-43 -33l-18 -25l-21 -35l-10 -51l2 -162l-4 -24l2 -103l-2 -26l2 -33l-2 -27l4 -118l-2 -27 l2 -43l-4 -33l4 -28v-29l-16 -25l-25 -16h-29l-22 4l-27 14l-16 29l4 29l-2 24l2 54l-2 32l2 31v29l-2 26l2 29l-2 25l2 57l-2 33l2 28l-2 29l2 45v25l-2 45l2 28l-2 27l2 31l-2 30l2 41l-2 43v27l-8 115l6 24l37 17h24l45 -15l19 -24v-29l14 -14l23 8l24 18l21 11l24 16 l29 16l24 9l29 12l29 4l26 6l72 -2l41 -4l31 -10l45 -31l18 -16l29 -56l10 -26l4 -23l6 -117l-2 -57l2 -31l-4 -45l2 -305l4 -196l7 -25l-13 -33z" />
<glyph unicode="o" horiz-adv-x="851" d="M381 -20l-29 6l-26 2l-50 24l-24 17l-27 14l-37 39l-16 22l-31 56l-20 49l-15 53l-16 88l-6 62v116l6 60l4 55l4 31l23 84l12 20l23 58l16 26l35 43l24 23l21 14l35 19l41 16l41 10l57 2h43l29 -4l55 -18l22 -11l23 -14l43 -35l35 -45l29 -51l10 -29l12 -22l6 -29l10 -31 l5 -24l6 -31l4 -59l8 -58l-4 -84l2 -34l-2 -29l-14 -88l-5 -23l-26 -82l-12 -30l-15 -21l-12 -31l-16 -20l-23 -20l-21 -21l-22 -18l-47 -29l-53 -12l-31 -6h-84zM381 90l86 2l27 10l24 9l25 16l18 23l19 28l12 27l10 26l8 29l6 29l2 26l7 35l4 27l2 31l-2 32v47l4 37l-6 84 l-9 58l-8 28l-4 27l-20 53l-13 27l-16 20l-20 23l-48 28l-26 5l-39 2l-43 -5l-51 -14l-27 -26l-27 -35l-26 -45l-4 -29l-10 -29l-11 -55l-2 -31l-4 -24l-4 -62l4 -86v-57l2 -33l4 -26l23 -89l10 -30l10 -21l17 -24l18 -25l25 -20l22 -13z" />
<glyph unicode="p" horiz-adv-x="890" d="M184 -512l-28 12l-17 23l-6 53v27l-2 32l2 27l-2 29l2 30l-2 33l-2 90l2 25l-2 256l2 29l2 26l-4 33v84l2 31l2 24l-2 29l-2 31v26l4 33l-4 127l2 25v49l-2 26v146l-6 84l10 33l25 12l30 -2l37 -10l23 -25l6 -31l10 -20l23 8l24 14l25 21l24 14l105 43l45 2l29 4h43 l57 -14l25 -10l43 -33l18 -16l14 -29l13 -21l10 -30l8 -23l10 -33l11 -57l10 -92l2 -55l2 -29v-86l-4 -33l-2 -27l-13 -92l-12 -53l-31 -86l-28 -49l-19 -27l-30 -33l-29 -28l-29 -17l-24 -10l-23 -12l-41 -12l-104 -7l-27 7l-90 28l-27 -2l-12 -22v-60l-2 -32l2 -27v-72 l-2 -43l4 -28l-2 -111l8 -90l-10 -27l-25 -8zM401 86h29l39 4l43 8l25 11l22 14l23 20l18 21l29 47l20 53l13 62l8 118v144l-4 53v29l-7 28l-2 25l-14 59l-27 49l-16 23l-22 14l-70 9h-43l-27 -5l-28 -10l-54 -24l-22 -15l-45 -43l-21 -35l-8 -43v-362l2 -31v-30l-4 -39 l2 -47l12 -52l23 -24l24 -15l27 -8l27 -4z" />
<glyph unicode="q" horiz-adv-x="884" d="M688 -516l-26 10l-19 27l-4 55l2 29l-4 88v28l-2 33l4 45l-2 129l-2 27l4 59l-4 31l-8 18l-23 -4l-45 -41l-53 -26l-29 -6l-26 -4l-45 -5h-41l-58 13l-49 26l-65 60l-35 41l-27 51l-33 121l-4 57l-6 29l-4 28l2 179l2 24l18 115l9 24l20 58l15 24l10 27l37 47l18 19 l45 32l25 13l80 24l45 2l43 -4l45 -12l39 -17l28 -16l23 -12l24 -25h19l35 51l34 15l35 2l25 -17l10 -26l-2 -31l-4 -41l4 -74l-2 -143l-2 -27l2 -32v-41l2 -29l-2 -29v-30l2 -31l-4 -184l2 -27l-2 -74l2 -24v-119l-2 -29v-28l2 -29v-154l-2 -26l2 -33l2 -82l2 -33v-26 l2 -23l-6 -31l-27 -14zM387 88l70 2l41 6l49 19l20 16l41 39l19 37l10 41v28l-2 86l2 27l-2 64l2 26l-2 150l4 53l-2 35l-10 39l-17 37l-22 18l-25 20l-24 11l-23 18l-29 8l-24 11l-45 2l-41 -9l-27 -6l-24 -10l-25 -12l-22 -33l-23 -37l-8 -22l-10 -29l-15 -88l-2 -29 l-4 -172l4 -57v-27l8 -55l11 -53l12 -31l22 -49l17 -21l20 -20l23 -15l28 -14z" />
<glyph unicode="r" horiz-adv-x="626" d="M209 -2l-41 2l-39 14l-14 41l2 99l2 32l-4 72v180l4 29l-2 29l-4 401l-7 33l9 26l20 15h41l43 -10l21 -31l2 -23l14 -20l18 12l21 21l20 18l25 12l53 25l31 10l55 10l56 -10l30 -8l21 -23l4 -34l-8 -31l-21 -23l-29 -4l-28 8h-31l-27 2l-28 -4l-27 -10l-26 -8l-25 -14 l-23 -13l-41 -41l-20 -39l-8 -38l2 -27l-2 -43l2 -33v-41l-4 -29l4 -30l-2 -27l2 -26l-2 -60l2 -55l-4 -58v-88l4 -28v-92l-4 -29l-13 -29z" />
<glyph unicode="s" horiz-adv-x="692" d="M340 -20l-33 2l-26 6l-25 8l-29 4l-26 6l-25 14l-49 23l-21 18l-24 17l-14 24l4 39l12 23l22 12l29 -6l25 -12l80 -47l57 -13l72 -8l43 6l24 8l25 15l22 22l25 43l6 31l2 43l-4 49l-10 25l-17 28l-20 23l-37 29l-37 22l-22 12l-45 17l-39 18l-49 29l-72 49l-49 66l-13 30 l-8 27l-6 27l-4 84l6 28l6 25l13 24l12 31l41 39l22 10l21 19l96 22l31 -2h71l27 -4l57 -18l27 -4l27 -15l24 -14l19 -31v-35l-9 -22l-22 -17l-31 7l-28 8l-41 16l-43 10l-29 11l-88 -7l-25 -12l-24 -20l-15 -19l-6 -26l-4 -43l2 -47l10 -23l17 -27l20 -22l19 -10l24 -21 l27 -12l39 -23l133 -69l41 -35l18 -19l37 -45l23 -51l8 -24l4 -29l2 -86l-4 -27l-16 -55l-13 -27l-32 -49l-21 -20l-78 -37l-28 -8l-27 -6l-41 -2h-43z" />
<glyph unicode="t" horiz-adv-x="653" d="M420 -20l-45 2l-29 8l-27 12l-24 6l-21 19l-22 12l-33 45l-12 25l-14 24l-17 55l-10 82v121l-4 25l2 33l-2 26l2 29v74l2 24l-4 78l2 57l-2 62l2 30l-17 25l-43 18l-49 11l-14 22l-2 29l16 27l45 12h47l15 18v33l2 29v28l-2 29v88l-6 57l8 23l20 20l54 -6l30 -12l17 -23 l6 -57v-59l2 -23l-4 -106l16 -31l29 -10l57 2l55 -2l58 2l26 -19l17 -24v-25l-15 -22l-30 -13l-25 -4l-31 2h-57l-29 2l-26 -2l-29 -12l-12 -29v-30l-2 -29l4 -31l-4 -291l4 -40v-107l8 -53l12 -58l27 -51l43 -35l41 -8l70 2l26 4l29 11l33 -2l22 -17l6 -24l-8 -33l-26 -21 l-56 -16l-30 -6l-29 -8z" />
<glyph unicode="u" horiz-adv-x="864" d="M346 -25l-41 5l-31 4l-26 8l-70 41l-33 45l-22 59l-4 25l-10 100v45l2 23l-2 245l2 25l-2 57l2 72l-2 27l2 26l-5 31l3 31l-7 82l11 30l22 15h25l28 2l27 -17l21 -24l2 -31v-27l2 -28l2 -148l-2 -30l2 -29l-2 -23l2 -32l-4 -101l2 -28v-25l-2 -31v-28l6 -84l-2 -45l4 -25 l14 -59l12 -23l21 -24l20 -11l27 -10h88l29 12l26 7l54 28l22 21l21 22l22 33l8 43v27l2 57l-4 76l4 104l-4 27l4 26l-2 33l2 29l-2 33l2 24l-2 29l2 31l-4 55l4 33v55l-2 29l13 30l30 15l25 -2l27 2l24 -11l12 -45l2 -24l-2 -103l2 -118l-4 -54l4 -28v-492l7 -53l-7 -31 l-24 -12l-49 -2l-31 14l-21 21l-2 30l-12 11l-18 -4l-68 -48l-49 -22l-25 -10l-26 -8z" />
<glyph unicode="v" horiz-adv-x="741" d="M354 -4l-43 12l-18 29l-12 31l-7 26l-6 29l-26 82l-6 26l-33 113l-4 31l-11 22l-8 27l-6 31l-113 391l-8 24l-4 29l-8 29l4 30l27 11l24 2l29 -2l29 -13l24 -24l29 -117l8 -24l6 -29l10 -29l7 -31l8 -26l37 -137l6 -33l8 -25l51 -225l10 -25l7 -28h10l39 180l12 39l6 29 l6 26l8 31l11 27l14 75l45 152l14 69l15 41l14 56l23 30l28 13l58 -4l22 -15l4 -24l-12 -58l-43 -133l-4 -32l-17 -56l-10 -22l-4 -31l-26 -84l-7 -31l-8 -24l-8 -29l-6 -27l-10 -26l-7 -33l-18 -53l-4 -31l-16 -55l-9 -21l-8 -32l-8 -27l-10 -25l-13 -57l-24 -29l-27 -14z " />
<glyph unicode="w" horiz-adv-x="1146" d="M319 -2l-40 12l-23 31l-12 57l-8 27l-7 29l-2 24l-14 53l-6 29l-4 27l-8 26l-7 31l-4 29l-14 51l-6 31l-21 88l-6 24l-10 58l-21 77l-4 31l-12 53l-6 31l-14 55l-11 58l9 26l24 17l25 -6l30 4l29 -15l21 -26l6 -33l2 -23l12 -57l4 -29l15 -57l2 -24l8 -29l8 -31l2 -26 l8 -39l10 -43l7 -33l6 -23l24 -141l6 -55l15 -86l12 2l14 73l11 66l24 111l4 28l6 25l15 61l4 27l8 29l4 24l8 31l13 72l24 98l4 26l15 56l16 26l31 17l26 -2h27l31 -15l18 -28l8 -31l15 -84l8 -27l18 -84l9 -30l4 -25l16 -57l4 -33l41 -184l12 -88l9 -29l4 -29l6 -22l8 -2 l6 28l2 29l10 51l2 29l11 43l4 43l8 29l12 53l8 55l13 55l4 29l12 60l14 51l5 33l30 135l19 28l30 15l27 2h27l24 -17l6 -26l-26 -111l-8 -57l-9 -27l-18 -84l-6 -22l-25 -115l-8 -31l-4 -24l-14 -58l-9 -57l-16 -57l-4 -25l-8 -27l-19 -83l-2 -25l-10 -31l-4 -26l-6 -29 l-23 -31l-26 -10h-31l-23 2l-30 8l-23 27l-6 31l-8 30l-2 29l-27 100l-4 31l-16 55l-17 86l-8 27l-65 342l-11 -2l-8 -31l-4 -28l-8 -27l-2 -33l-29 -139l-16 -57l-29 -150l-12 -43l-4 -29l-11 -24l-14 -86l-6 -21l-14 -57l-19 -31l-33 -10h-39z" />
<glyph unicode="x" horiz-adv-x="827" d="M90 -4l-20 14l4 37l37 68l12 30l24 52l17 22l24 51l15 25l10 31l14 26l17 21l24 57l29 51l8 39l-14 47l-33 66l-16 22l-13 31l-14 21l-14 22l-78 156l-14 24l-15 27v20l25 17l59 -4l39 -13l27 -22l18 -41l21 -35l16 -22l88 -183l8 -18l13 -25l14 -4l59 129l39 70l12 31 l15 22l10 27l14 20l13 29l28 24l52 13h45l22 -13l4 -24l-162 -295l-18 -39l-16 -25l-11 -26l-8 -39l4 -35l15 -22l12 -29l31 -51l24 -51l15 -23l20 -45l21 -37l22 -49l16 -25l13 -28l16 -23l12 -24l13 -33l-2 -25l-23 -8l-29 -4l-26 4l-35 10l-29 21l-12 26l-14 25l-13 27 l-14 24l-14 23l-13 26l-79 146l-11 28l-10 21l-18 24l-21 -16l-24 -41l-13 -31l-22 -36l-19 -41l-41 -74l-18 -39l-23 -39l-12 -25l-14 -24l-25 -25l-35 -12l-30 -2z" />
<glyph unicode="y" d="M180 -520l-33 2l-24 16l-17 29v35l15 30l24 21l54 59l12 31l14 23l43 106l8 29l11 24l6 33l10 27v47l-14 82l-29 94l-8 25l-6 30l-19 56l-10 20l-12 55l-10 29l-11 27l-4 26l-16 56l-12 26l-13 55l-12 33l-6 21l-8 26l-7 31l-10 29l-6 26l-12 27l-29 106l-10 27l-6 31 l4 28l22 9l45 4l46 -10l22 -29l25 -86l6 -29l10 -26l20 -82l13 -27l4 -27l14 -43l10 -43l9 -28l6 -25l10 -27l8 -30l8 -27l7 -29l14 -38l26 -101l7 -31l10 -30l8 2l10 31l66 278l6 33l16 55l4 29l37 131l6 29l17 53l4 30l8 29l6 23l25 30l26 15h46l36 -13l7 -28l-17 -53 l-6 -31l-8 -25l-6 -26l-11 -31l-6 -31l-14 -49l-10 -29l-15 -55l-8 -25l-12 -61l-12 -25l-15 -53l-10 -55l-20 -53l-5 -29l-8 -29l-10 -26l-4 -29l-10 -25l-6 -26l-9 -29l-8 -31l-18 -63l-13 -57l-16 -43l-6 -27l-8 -23l-6 -28l-11 -31l-6 -29l-10 -24l-8 -27l-10 -26 l-25 -52l-12 -24l-13 -29l-67 -88l-21 -18l-22 -15z" />
<glyph unicode="z" horiz-adv-x="714" d="M113 -4l-29 14l-14 37l4 27l6 43l12 43l14 26l15 21l16 29l17 22l16 27l12 20l45 76l23 31l14 28l51 84l15 27l14 22l47 78l15 23l88 143l-2 27l-21 14h-55l-31 -4h-90l-27 4l-26 -2l-88 -2l-31 14l-14 29l2 33l12 26l31 17l28 -4l27 6h29l28 -4l29 4l88 -2l25 -4l30 4 l60 -4l26 6l29 -2h59l27 -19l14 -28v-27l-10 -45l-14 -39l-15 -27l-14 -20l-16 -29l-17 -22l-12 -29l-47 -72l-12 -24l-33 -51l-31 -43l-45 -74l-12 -27l-47 -75l-17 -23l-12 -25l-33 -47l-43 -73v-27l23 -12l30 -2l29 4l27 -2l30 4l103 -6l31 2l41 -2l61 6l31 -19l12 -43 l-12 -41l-31 -14l-27 -4l-43 2l-28 -4l-29 4l-29 -4h-30l-27 2l-229 2z" />
<glyph unicode="{" horiz-adv-x="608" d="M410 -152l-33 5l-29 16l-22 25l-19 26l-14 27l-10 30l-9 86l2 68l-2 33v45l5 70l-7 26l7 35l-3 49l3 84l-7 31l-2 33l-12 28l-35 60l-24 14l-35 16l-31 9l-31 18l-20 33l14 30l33 21l35 6l29 16l24 17l25 29l18 28l14 66v33l5 30l-5 53l2 140l3 33l-5 40l7 187l10 39 l10 28l18 25l31 20l25 15l33 12l49 4l51 -18l14 -31l-10 -35l-41 -18l-45 -8l-14 -31l-13 -70l2 -166l-2 -34l2 -193l-4 -33l-2 -32l-8 -37l-4 -29l-12 -37l-19 -27l-14 -26l-27 -21l-10 -30l14 -23l21 -18l18 -27l13 -33l12 -26l4 -33l6 -35l8 -37l4 -26l-2 -35l4 -47 l-2 -49l2 -103l-4 -29l2 -84l5 -55l-3 -33l13 -32l18 -29l37 -16l39 -21l12 -31l-14 -26l-53 -15h-45z" />
<glyph unicode="|" horiz-adv-x="260" d="M158 -199l-33 2l-33 11l-22 32v60l-4 31l-3 63l5 33l-7 78l2 280l3 33l-3 27l3 36l-3 33l3 68l-3 33l3 22l-3 107l3 26l-3 39v45l5 33l-2 45v29l2 39l-5 36l5 27l-7 33l5 65v35l-5 29l2 33l-2 129l2 30v29l3 29l-5 39v26l-4 31l13 31l45 16l51 -16l16 -27l6 -25l5 -28 l-3 -66l5 -35l-5 -32l5 -35l2 -49l-2 -109l-5 -33v-360l7 -68l-4 -30v-97l4 -30l-4 -33l2 -27l-2 -32v-66l2 -37l-5 -33l3 -30l2 -33l-7 -35l7 -78l-2 -67l4 -41v-33l-2 -35l-5 -33l3 -34l6 -29l-2 -60l-9 -26z" />
<glyph unicode="}" horiz-adv-x="608" d="M147 -154l-51 17l-16 31l16 32l74 29l20 27l11 34l2 37l-2 103l4 30l-2 131l4 52l-6 49v31l4 30l10 68l18 63l33 66l23 14l12 29l-6 16l-25 29l-18 29l-25 55l-18 67l-2 31l2 31l-8 139l4 58l-4 32l-2 39l4 80l-8 125l-19 27l-45 12l-37 20l-12 29l16 35l52 8h49l84 -37 l14 -28l16 -35l9 -35l8 -346l-4 -64l4 -45l-2 -33l6 -32l2 -27l10 -33l12 -32l21 -27l33 -21l61 -20l35 -16l12 -35l-16 -35l-33 -21l-33 -2l-26 -14l-27 -20l-25 -29l-16 -29l-6 -26l-4 -39l-6 -35l-4 -258l8 -62v-34l-6 -52v-45l-13 -65l-12 -35l-20 -18l-25 -27l-29 -12 l-28 -9z" />
<glyph unicode="~" horiz-adv-x="632" d="M418 623l-51 4l-33 12l-37 16l-27 13l-49 10l-55 -14l-39 -7l-31 15l-4 39l12 37l25 14l33 18l51 -2l49 -4l35 -12l31 -12l30 -17l52 -6l88 18l34 -8l5 -39l-13 -45l-22 -12l-37 -12z" />
<glyph unicode="&#xa2;" horiz-adv-x="827" d="M426 -4l-27 20l-14 27l4 35l-4 33l-16 43l-31 22l-59 14l-27 25l-53 35l-52 78l-26 57l-21 94v37l-12 98l4 52l-2 47l8 100l11 70l12 22l6 31l14 29l11 30l12 31l33 43l30 35l29 14l29 17l53 28l29 23l18 41v61l14 31l29 22l31 -16l10 -37l2 -35l-2 -26l18 -35l33 -25 l39 -6l43 -16l45 -29l27 -22l16 -41l-12 -41l-27 -17l-33 4l-57 43l-29 7l-30 10l-51 8l-50 -4l-28 -6l-31 -17l-29 -18l-20 -27l-19 -20l-12 -35l-12 -22l-8 -33l-6 -35l-13 -137l2 -49l-6 -48l4 -34l4 -64l17 -61l6 -33l10 -37l12 -22l25 -31l18 -19l25 -20l33 -14l78 -9 l47 7h34l111 63l29 8l30 -14l11 -43l-15 -41l-24 -19l-60 -38l-30 -7l-31 -12l-37 -10l-31 -21l-18 -32l4 -47l-12 -48z" />
<glyph unicode="&#xa3;" horiz-adv-x="827" d="M295 -8l-33 8l-29 -2l-61 2h-33l-33 12l-16 37l-2 33l8 47l27 39l18 31l35 49l14 37l19 24l8 31l6 33l8 28l7 35l2 31l-2 70l-5 28v41l-22 29l-37 20l-33 2l-35 11l-12 30l15 35l28 17l29 -7l29 19l8 31l-6 30l-4 35l-7 33l-4 35l-16 51l-16 78l2 98l6 35l10 37l14 26 l17 27l22 31l21 24l20 15l33 14l31 14l32 6l33 9l94 8l33 -6l64 -17l30 -6l27 -18l29 -17l24 -26l8 -29v-31l-16 -22l-35 -13l-33 9l-61 34l-37 13l-33 10l-100 -4l-25 -14l-24 -17l-27 -22l-14 -27l-8 -29l-8 -39l-3 -30l7 -68l47 -231l22 -37l33 -14l39 -5l35 5l33 -3 l32 7l35 -2l33 -21l16 -31l-18 -34l-33 -13l-63 4l-99 -4l-26 -12l-15 -35l-2 -37l4 -59l-2 -35l-6 -33l-6 -65l-14 -53l-13 -33l-4 -37l-14 -31l-21 -24l-30 -52l-8 -26l26 -6h62l30 -4l133 -3l31 3l49 6l64 -4h33l51 -13l18 -26l-4 -35l-18 -23l-27 -22h-35l-35 4h-26 l-35 -4l-33 6l-30 -4l-33 4h-33l-33 2l-35 -6h-30z" />
<glyph unicode="&#xa5;" horiz-adv-x="905" d="M428 -4l-35 12l-16 53l4 107l-6 63v66l4 29l-21 30l-34 17l-29 2l-33 4l-31 -4l-36 16l-19 29l17 22l36 17l31 6l39 -4l29 2l34 18l19 41l-23 35l-28 18l-33 5l-68 -9l-32 23l-17 27l17 28l30 8h37l31 5l29 16l4 27l-23 59l-8 33l-10 30l-17 33l-10 33l-12 27l-21 59 l-14 29l-8 30l-25 66l-16 31l-19 65l-26 53l-6 35l-17 31l-10 31l4 28l29 19l41 -2l39 -17l28 -24l19 -45l45 -142l14 -26l12 -37l19 -60l10 -26l10 -29l17 -35l33 -92l6 -37l12 -32l12 -37l15 2l12 26l37 107l4 27l16 45l10 36l17 31l18 62l13 28l36 97l7 36l10 31l12 29 l14 28l29 35l39 19l35 -4l28 -15l7 -28l-15 -29l-8 -33l-10 -31l-12 -24l-31 -101l-17 -32l-20 -56l-8 -34l-12 -27l-21 -63l-25 -58l-20 -63l-14 -29l-21 -63l4 -27l29 -19l49 5l49 -21l21 -22l-19 -31l-32 -19l-52 7h-49l-33 -21l-18 -37l22 -37l31 -18l101 -4l30 -17 l17 -24l-17 -27l-35 -18l-61 -4l-33 2l-35 -13l-18 -28v-29l4 -35v-32l-4 -31l-2 -37l4 -25l-2 -30v-39l4 -33l-20 -27l-35 -12z" />
<glyph unicode="&#xa8;" horiz-adv-x="518" d="M379 1554l-47 9l-17 20l-10 41l8 41l23 21l41 14l45 -8l18 -25l9 -43l-7 -49l-26 -16zM137 1559l-43 10l-22 12l-6 45l6 37l22 18l45 17l39 -4l21 -27l8 -39l-12 -45l-19 -16z" />
<glyph unicode="&#xa9;" horiz-adv-x="1312" d="M705 -18l-50 8h-53l-31 -2l-26 6h-35l-59 16l-91 41l-28 17l-25 12l-26 22l-29 15l-19 28l-40 50l-15 28l-20 21l-11 28l-18 31l-10 39l-21 55l-16 68l-6 33l-6 63l-9 37v35l-2 26l-2 50l6 84l-2 41l5 30l14 58l4 32l6 39l6 35l19 55l14 29l23 64l73 108l23 19l43 36 l65 33l31 21l27 10l32 8l27 10l37 9l31 8l30 4l50 -2l34 2l47 -4l31 4l33 -8l33 -2l28 -5l29 -12l62 -22l86 -43l22 -19l27 -16l67 -82l49 -80l13 -29l10 -34l10 -23l19 -70l6 -34l8 -33l14 -168v-51l2 -45l-4 -35v-33l-6 -31v-32l-10 -33l2 -35l-8 -29l-11 -26l-20 -70 l-12 -29l-11 -30l-20 -31l-16 -29l-19 -24l-18 -31l-21 -18l-45 -50l-26 -18l-29 -14l-41 -27l-45 -16l-25 -13l-35 -4l-30 -8l-49 -12zM702 84l31 10l31 2l67 23l29 8l80 49l29 23l22 18l19 31l22 26l33 54l10 28l25 70l26 133l4 33l3 70l6 51l-23 223l-10 29l-2 28l-27 70 l-10 24l-55 95l-92 90l-27 18l-94 33l-29 12l-119 8l-63 -4l-80 -14l-59 -20l-107 -76l-41 -49l-22 -23l-15 -29l-20 -30l-35 -92l-6 -39l-10 -31v-33l-19 -102l2 -203l27 -135l8 -25l4 -30l16 -31l11 -37l18 -35l37 -57l68 -66l24 -16l31 -23l31 -12l28 -14l29 -11l33 -10 l34 -8l31 4zM674 319l-51 3l-66 12l-31 16l-51 39l-18 31l-21 22l-12 31l-14 37l-13 61l-6 37l-6 29l2 39l-6 45l8 121l6 35l19 67l12 29l14 24l41 56l27 20l22 21l31 18l33 8l31 6l49 7l84 -11l33 -10l28 -14l29 -23l14 -35l-4 -43l-27 -14l-32 4l-27 21l-31 8l-28 8l-41 4 l-49 -6l-31 -14l-23 -25l-18 -25l-12 -24l-13 -29l-8 -28l-14 -101l2 -135l8 -33l2 -33l12 -26l7 -37l30 -49l27 -19l31 -10h47l45 -6l61 21l31 12l27 6l36 -10l9 -31l-15 -39l-28 -22l-50 -29l-32 -6l-35 -2z" />
<glyph unicode="&#xab;" horiz-adv-x="692" d="M340 467l-25 10l-24 15l-31 24l-27 23l-22 20l-29 16l-26 25l-23 23l-27 22l-22 35l2 57l23 37l22 19l25 26l30 19l23 14l27 25l26 18l25 20l26 29l27 4l12 -18v-31l-16 -41l-27 -33l-22 -20l-23 -27l-24 -18l-27 -27l-12 -22l10 -37l39 -27l39 -39l24 -18l27 -35l12 -39 l-2 -29zM610 467l-30 10l-29 23l-25 20l-45 37l-28 27l-29 14l-23 20l-30 25l-25 37l2 49l29 41l45 45l31 19l26 24l21 21l28 16l39 33l35 18l16 -18l5 -35l-15 -37l-28 -41l-54 -33l-22 -20l-25 -25l-12 -24l10 -35l27 -19l20 -22l27 -21l29 -26l26 -37l10 -37v-33z" />
<glyph unicode="&#xad;" horiz-adv-x="622" d="M150 535l-31 16l-15 39l15 35l31 14l32 8l68 -8l26 8l70 -2h29l31 2l59 -4l35 -16l18 -33l-20 -39l-33 -14l-33 -4h-57l-33 2l-37 -4l-33 2l-30 -2l-27 2l-35 4z" />
<glyph unicode="&#xae;" horiz-adv-x="1048" d="M471 174l-25 8l-36 4l-56 15l-35 12l-53 27l-53 32l-20 29l-21 21l-20 28l-33 58l-15 34l-10 29l-4 29l-12 30l-6 33l-6 31l-7 39v29l4 51l-2 78l5 38l6 33l10 29v37l22 59l17 31l12 29l12 22l21 27l24 24l23 27l25 18l26 21l51 31l50 18l49 10h30l31 8l47 -4l49 6 l111 -26l43 -12l31 -15l26 -16l52 -35l22 -23l16 -26l23 -23l20 -30l15 -23l26 -63l11 -70l8 -29l2 -39l6 -28l2 -33l-4 -98l2 -35l-8 -66l-14 -61l-29 -96l-21 -27l-14 -23l-39 -55l-20 -18l-29 -29l-25 -18l-55 -25l-96 -27l-31 -2l-33 -10l-47 6zM475 276l51 7l43 -7 l35 5l29 6l57 16l27 23l28 16l25 20l23 27l14 21l14 30l17 29l8 31l24 129l4 86l-4 43v41l-2 32l-20 95l-10 24l-27 66l-16 22l-43 52l-29 14l-27 12l-28 19l-31 4l-35 10l-31 -2l-45 4l-47 -6l-35 4l-92 -29l-28 -16l-25 -21l-23 -14l-20 -31l-20 -20l-17 -27l-22 -65 l-17 -90l-8 -74v-47l4 -45l2 -33l6 -66l6 -36l11 -29l8 -35l24 -53l21 -37l22 -19l25 -16l23 -24l28 -19l29 -10l33 -4l30 -8zM422 424l-37 20l-14 31l2 35l-4 61v35l6 33l-6 68l6 36l-4 64l4 35l-6 61l2 35l-2 29l20 37l31 16l47 2l61 -6l56 -2l57 -33l23 -20l18 -33l6 -31 l4 -49l2 -45l-10 -35l-41 -55l-16 -33l-6 -33l18 -59l12 -25l21 -59l6 -27l-6 -35l-33 -14l-39 14l-27 33l-8 29l-14 35l-27 90l-20 33l-21 -3l-14 -36l4 -86l-4 -33l2 -29l-20 -31zM520 764l43 10l25 21l10 43l-6 47l-19 28l-45 11l-41 -17l-16 -28l-4 -35l2 -37l12 -31z " />
<glyph unicode="&#xb4;" horiz-adv-x="354" d="M109 1534l-27 14v27l27 53l16 27l12 26l35 25l37 18h35l16 -20v-25l-18 -26l-21 -29l-16 -20l-19 -27l-34 -33z" />
<glyph unicode="&#xb8;" horiz-adv-x="411" d="M182 -455l-30 2l-29 9l-33 18l-24 37l20 39h35l35 -8l32 -7l31 7l29 14l20 25l6 40l-10 54l-24 22l-29 8l-37 5l-39 12l-18 37l10 39l10 36l13 35l24 27l37 18l16 -14l6 -39l-12 -27l6 -36l31 -19l31 -10l30 -21l43 -47l15 -32l-2 -56v-51l-21 -27l-16 -22l-25 -29 l-30 -14l-31 -8l-31 -13z" />
<glyph unicode="&#xbb;" horiz-adv-x="692" d="M82 469l-12 31l10 53l24 35l46 30l20 27l43 37l10 27l-10 32l-27 17l-22 20l-31 27l-27 16l-24 33l-10 61l10 33l41 -24l59 -47l25 -15l31 -22l26 -23l23 -22l28 -23l25 -39l-4 -57l-25 -37l-24 -18l-23 -25l-28 -18l-27 -19l-23 -22l-26 -23l-31 -22l-20 -15zM346 465 l-12 33l12 59l27 33l26 26l31 19l23 18l26 25l13 31l-15 34l-22 17l-41 28l-37 35l-27 37l-14 39l-2 27l10 16l29 -6l26 -21l52 -41l49 -36l30 -19l25 -24l25 -23l24 -37l2 -59l-24 -33l-25 -25l-29 -16l-24 -20l-39 -35l-68 -58l-22 -18z" />
<glyph unicode="&#x2c6;" horiz-adv-x="581" d="M440 1532l-41 12l-34 29l-21 26l-25 23l-28 14l-35 -14l-14 -29l-25 -24l-37 -25l-39 -8l-30 -4l-23 6v31l25 28l16 19l21 24l22 17l18 31l41 20l41 12l35 2l43 -12l37 -22l21 -29l28 -33l33 -33l18 -24l9 -29l-25 -6z" />
<glyph unicode="&#x2da;" horiz-adv-x="430" d="M215 1493l-51 2l-33 16l-27 17l-22 33l-12 30l-9 47l11 54l10 30l27 23l22 22l27 19h55l51 -2l31 -15l22 -18l27 -31l12 -30l4 -54v-43l-36 -65l-29 -19l-31 -10zM213 1575l49 14l10 51l-10 48l-51 18l-45 -20l-14 -50l12 -47z" />
<glyph unicode="&#x2dc;" horiz-adv-x="561" d="M371 1561l-45 2l-31 18l-29 12l-28 9l-48 6l-45 -11l-36 -12l-27 29l8 41l21 16l30 23l43 2l49 -8l27 -2l27 -21l30 -10l45 -6l50 4l39 14l26 -27l-10 -34l-21 -21l-32 -14z" />
<glyph unicode="&#x401;" horiz-adv-x="825" d="M557 1554l-47 9l-16 20l-11 41l9 41l22 21l41 14l45 -8l18 -25l9 -43l-6 -49l-27 -16zM315 1559l-43 10l-22 12l-6 45l6 37l22 18l45 17l39 -4l21 -27l8 -39l-12 -45l-19 -16zM674 -8l-33 8h-63l-33 2l-33 -6l-31 4l-65 -4l-33 6l-29 -4l-30 4l-66 -8l-63 2l-33 16 l-19 33l4 234l-6 100l2 35l4 28l-4 37l4 27l3 33l-7 36l-2 37l2 58l2 32l-2 37l7 37l-5 35l5 92l-3 41v29l-2 63l2 37l-4 47l7 82l-7 27v33l2 24l-2 37l-2 35l-4 26l15 37l30 15l35 -9l29 9l33 -9l98 9l166 -6l98 2l33 -2l28 -17l21 -22l2 -31l-20 -29l-54 -18l-47 4l-33 4 l-36 -2l-31 -4l-35 8l-70 -2l-65 -8l-35 -19l-18 -47l-2 -117l4 -67l-4 -29l4 -98l-4 -35l4 -29l-2 -32l14 -41l35 -13l28 -2l33 4l51 -2l62 2l51 -4l59 -2l33 4l35 -16l14 -35l-16 -41l-31 -18l-61 -6l-31 8l-70 -2l-28 4l-35 -4l-64 -2l-34 4l-31 -23l-16 -28l4 -31 l-2 -37l4 -37v-35l-4 -26l4 -37l-6 -209l2 -37l16 -47l37 -16l65 2l35 -6l35 4h70l34 -6l31 4l33 -2l33 2l35 -13l18 -30l-2 -31l-14 -31z" />
<glyph unicode="&#x402;" horiz-adv-x="1079" d="M711 -20l-37 8l-21 32l-6 29l8 23l90 67l15 21l20 28l8 33l15 76l8 25l4 139l-2 71l2 68l-6 76l2 53l-2 41l-6 27l-10 30l-25 31l-25 16l-47 3l-55 -5l-29 -8l-30 -14l-31 -6l-33 -19l-26 -20l-23 -43l-12 -49v-31l6 -31l-2 -39l2 -34l-6 -35l4 -33l2 -29l-6 -172l4 -28 l-4 -82l4 -84l-4 -72l-17 -31l-34 -20l-29 2l-37 20l-12 47l-4 48v36l2 35l-4 29l2 197l-2 32l4 35v64l-4 36l6 37l-4 92l2 37l-4 37l4 25v69l-4 37l4 31l-2 33l2 264l-4 35l-15 35l-31 12l-67 -2l-47 2l-47 -2l-33 6l-39 16l-16 35l16 43l33 12h37l34 5l31 -5l37 5h31 l30 -5l302 5l69 -7l33 5l29 -3l36 3l33 -17l17 -41l-21 -41l-35 -16l-63 6l-66 -2l-32 -4l-54 -2l-51 -13l-14 -38l2 -99l-4 -35l4 -28l-2 -33l2 -72l-2 -28v-35l14 -25h21l61 33l29 18l34 13l66 16l47 2l49 -2l39 -8l29 -18l49 -46l33 -51l10 -71v-48l4 -55l-2 -33l2 -30 v-70l4 -31v-47l-6 -51l2 -51l-2 -49l-12 -72l-2 -29l-6 -30l-13 -29l-6 -29l-55 -82l-23 -26l-26 -13l-60 -28z" />
<glyph unicode="&#x403;" horiz-adv-x="749" d="M383 1534l-27 14v27l27 53l16 27l13 26l34 25l37 18h35l17 -20v-25l-19 -26l-20 -29l-17 -20l-18 -27l-35 -33zM209 -4l-47 16l-23 25v26l-8 35l-2 33l4 31v28l-4 31v86l2 45l-2 322l4 45l-4 104l4 43v35l-4 37l4 25l-6 53l2 33l4 28l-4 39l4 62l-4 157l4 45l17 33l30 23 l62 -6l34 8l31 -6l127 -5l33 7l49 -2l33 2l45 -9l33 9h28l37 -25l17 -33l-17 -35l-37 -20l-34 -8l-35 4l-49 4l-39 -6h-49l-33 6l-29 -4l-72 4l-36 -18l-11 -29v-168l-4 -35l4 -33l-2 -166l2 -30l-4 -27v-67l4 -35l-4 -29l2 -37l-2 -29l4 -34l-2 -33l-2 -92l-2 -31l4 -168 l2 -33l-4 -61l4 -33l-4 -61l6 -31l-12 -27z" />
<glyph unicode="&#x404;" horiz-adv-x="819" d="M530 -23l-129 7h-30l-33 10l-27 10l-80 62l-20 22l-35 49l-37 94l-18 62l-6 37v32l-9 31l-10 137l2 29l-6 33v121l-4 49l2 37l4 32v66l2 33l6 31v30l15 96l2 41l14 31l6 27l8 39l11 26l30 62l35 41l60 51l61 25l31 6l112 14l115 -14l29 -6l47 -17l41 -27l20 -34l-8 -31 l-20 -27l-29 -12l-37 8l-29 17l-28 4l-31 20l-27 6l-98 -2l-33 -8l-32 -16l-39 -31l-17 -27l-18 -22l-25 -55l-24 -107l-8 -61l2 -37l-5 -31l3 -31l-7 -32l-2 -39l15 -33l32 -21l33 7l195 -7l49 4l45 -2l29 -20l18 -29l-16 -39l-31 -18l-37 -6l-27 4l-34 -6l-31 2l-37 -2 h-90l-33 6l-31 -6l-34 -19l-13 -28l2 -27l-2 -35l9 -71l-2 -31l4 -31v-31l22 -127l23 -67l16 -27l21 -22l47 -39l24 -13l33 -8l51 -4h49l68 10l33 13l28 14l37 14h37l29 -24l-2 -39l-19 -33l-22 -22l-94 -31l-58 -17h-33z" />
<glyph unicode="&#x405;" horiz-adv-x="862" d="M410 -23l-48 7l-32 -2l-37 10l-29 2l-35 8l-36 14l-56 31l-28 25l-17 32l8 41l33 23l31 -8l29 -19l90 -37l34 -6l31 -2l53 -8l48 8l61 19l55 37l23 24l20 25l13 26l12 35l8 31l6 29v47l2 49l-2 39l-10 22l-12 37l-13 25l-39 49l-71 67l-29 17l-27 20l-112 64l-51 39 l-31 14l-21 31l-49 45l-45 74l-24 65l-9 61l-4 48l9 79l34 97l17 24l24 17l27 26l29 15l20 22l31 15l49 16h45l49 4l51 2l39 -4l66 -16l28 -13l64 -37l16 -32l-8 -41l-39 -29l-43 10l-24 19l-35 16h-35l-33 10l-51 4l-47 -8l-55 -24l-27 -21l-20 -20l-17 -31l-18 -23l-6 -36 l2 -127l16 -29l10 -31l21 -24l18 -29l84 -64l113 -63l108 -74l93 -86l18 -33l18 -28l17 -27l22 -63v-29l8 -35l3 -51l-5 -49l-6 -35l-6 -29l-6 -30l-10 -31l-15 -31l-10 -26l-20 -33l-27 -21l-18 -24l-25 -23l-53 -39l-31 -10l-65 -16z" />
<glyph unicode="&#x406;" horiz-adv-x="430" d="M242 -2l-31 2l-37 10l-22 31l-7 57l-2 33l4 31l-2 28l5 39l-5 27l2 51l-4 47l7 33l-7 229l4 31l-4 68l4 30l-2 35l2 144l-2 53l5 27l-3 157l-4 37v29l7 35l-3 30l-4 29v37l-4 26l13 33l32 19l31 -4l37 -15l22 -26v-29l7 -96l-2 -35l4 -35v-74l-7 -67l7 -205l-4 -35 l6 -330l-9 -65l3 -29l6 -37l-6 -47l2 -43l-2 -35l8 -125l-2 -32l4 -27l-15 -35z" />
<glyph unicode="&#x407;" horiz-adv-x="430" d="M326 1554l-47 9l-17 20l-10 41l8 41l23 21l41 14l45 -8l18 -25l8 -43l-6 -49l-27 -16zM84 1559l-43 10l-23 12l-6 45l6 37l23 18l45 17l39 -4l20 -27l9 -39l-13 -45l-18 -16zM242 -2l-31 2l-37 10l-22 31l-7 57l-2 33l4 31l-2 28l5 39l-5 27l2 51l-4 47l7 33l-7 229l4 31 l-4 68l4 30l-2 35l2 144l-2 53l5 27l-3 157l-4 37v29l7 35l-3 30l-4 29v37l-4 26l13 33l32 19l31 -4l37 -15l22 -26v-29l7 -96l-2 -35l4 -35v-74l-7 -67l7 -205l-4 -35l6 -330l-9 -65l3 -29l6 -37l-6 -47l2 -43l-2 -35l8 -125l-2 -32l4 -27l-15 -35z" />
<glyph unicode="&#x408;" horiz-adv-x="528" d="M29 -199l8 43l29 19l36 6l27 12l29 17l43 45l14 22l29 64l8 30l6 68l-2 49l2 86l2 25l-4 73l2 84l-4 41l6 33l-4 96l4 39l-4 31l4 31l2 516l-2 31l-6 30l2 94l10 29l27 19h35l39 -19l16 -24l10 -60l4 -258l-2 -33l-4 -30l6 -82l-4 -49l-2 -775l-8 -69l-21 -66l-28 -63 l-17 -27l-16 -22l-51 -47l-33 -17l-29 -22l-90 -17l-39 21z" />
<glyph unicode="&#x409;" horiz-adv-x="1404" d="M104 -6l-41 4l-26 25l-10 32v33l20 29l25 10l22 18l12 29l21 23l12 20l8 37l13 27l18 61l4 37v35l29 213l-2 32l12 113l-2 33l4 31l2 108l8 35l-2 37l5 31l-3 34l3 33l-3 33l9 156l6 51v30l16 33l33 15l39 -2l33 2l34 4l31 -6l103 6l98 -6l33 4l32 -4l37 4l33 -7l29 -14 l18 -35v-49l4 -43l-4 -139l2 -31l-4 -41l8 -129l-4 -24l19 -37l28 -23l31 4l129 -4l100 -18l84 -53l29 -15l25 -28l18 -31l18 -23l11 -30l10 -27l10 -37l12 -29l7 -32l-2 -31l2 -98v-29l-7 -35l-4 -39l-61 -149l-39 -52l-27 -18l-20 -22l-25 -19l-125 -43l-30 -4h-54l-55 -6 l-29 8l-32 2l-33 -6l-39 4l-33 -2l-35 12l-16 31v31l4 55v37l-6 49l6 197l-4 65l2 62l-4 39l4 69l-2 31l2 29l-4 71l4 33l-4 27l4 166l-2 34l2 66l-2 47l4 80l-6 35l-14 43l-37 16l-35 -6l-47 -4l-82 4l-37 -4l-33 -8l-18 -37l-6 -35l2 -31l-2 -69l-6 -33l-2 -98l-7 -64v-51 l-12 -148l2 -65l-10 -62l-10 -131l-11 -39l-2 -69l-8 -29l-18 -102l-12 -31l-7 -33l-14 -30l-53 -84l-45 -43l-25 -15zM981 113l27 4l32 14l29 10l55 31l21 23l33 55l24 55l2 33l6 35v28l4 54v51l-16 61l-6 35l-8 31l-19 22l-22 23l-23 29l-26 14l-33 12l-31 12l-84 9 l-82 -2l-28 -19l-17 -35l4 -28l-4 -35l4 -205l-6 -63l4 -39l-4 -95l4 -36l-4 -31l23 -35l37 -16z" />
<glyph unicode="&#x40a;" horiz-adv-x="1404" d="M774 -4l-37 6l-35 14l-12 27l-4 68l2 32v31l-4 33l6 37v32l-4 31l4 94v37l-4 33l4 236l-16 24l-37 14l-31 5h-137l-37 -5l-37 5l-30 -2l-33 8l-31 -23l-18 -35l-7 -34l9 -80l-2 -31l2 -68l-6 -75l4 -37l-4 -51l2 -33l-2 -49l4 -35l-2 -27v-35l-2 -34l2 -27l-5 -41 l-12 -31l-37 -12l-30 4l-35 12l-19 45l2 54l-2 30l2 64l-4 35l4 41l-4 194l2 33l-2 39l4 31v28l-4 33l4 35v268l-4 33l6 31l-2 194l2 25l-4 37l-4 59v35l-2 26l17 35l28 8l33 3l35 -11l24 -28l-2 -25l7 -33l2 -162l-5 -51l5 -53l-5 -27l5 -34l-5 -33l5 -27l-2 -39l18 -28 l35 -15l45 -4l39 4h49l37 4l67 -4l68 2l33 13l14 32l4 72l-2 133l4 35l-4 98l2 33l-2 37l4 31v32l12 33l35 17l29 2l37 -17l14 -33l2 -49l-4 -57l6 -29l2 -28l-6 -72l4 -135l-4 -35l2 -35v-31l12 -30l37 -15l29 -4l45 2l82 -10l39 -2l33 -10l26 -4l35 -15l31 -20l24 -10 l25 -19l61 -76l13 -36l14 -25l6 -33l10 -33l7 -34l4 -35l-2 -49l2 -47l-6 -70l-15 -59l-37 -95l-18 -28l-21 -23l-16 -22l-51 -41l-25 -25l-94 -37l-113 -10l-51 4l-31 -4l-34 2l-35 -4h-31zM870 115h54l86 8h30l31 14l74 58l18 24l17 33l10 22l10 35l6 33l6 61v97l-4 32 l-6 35l-20 58l-43 63l-47 31l-31 18l-64 11h-98l-31 8l-30 -19l-21 -35l-2 -106l4 -33l-4 -35l4 -30l-4 -305l2 -31l17 -33z" />
<glyph unicode="&#x40b;" horiz-adv-x="1093" d="M375 -4l-33 18l-20 33l4 35l-2 29l4 39l-4 28l4 29l-6 41v28l4 62l-2 72l2 51l-2 49l2 33l-2 86l2 26l-7 486l3 30l6 43l-6 56l-13 30l-30 21l-39 -6l-31 2l-35 -4l-27 8l-36 2l-35 -8l-31 24l-12 37l14 35l33 19l31 6l30 -6h52l53 2h65l31 2l37 -7l35 -2l45 9h51l33 -7 l39 5l30 -2h29l39 6l47 -4l49 -15l19 -43l-17 -35l-37 -18l-32 -6l-35 2l-33 -2l-33 6l-35 -2l-45 -6l-51 -15l-16 -28v-37l-6 -68l2 -53l6 -49l-4 -35l-2 -65l2 -35l10 -23l27 8l59 35l35 8l26 13l66 16l49 4l84 -14l33 -10l26 -25l23 -22l21 -27l10 -25l20 -121l-4 -83 l2 -33l-2 -39l-4 -31l6 -63l-4 -72l2 -29l-2 -133v-37l2 -24v-31l4 -33l-4 -35l4 -32l6 -27l-12 -31l-33 -12h-32l-37 8l-19 27l-6 65v33l-2 31l4 31l-6 34l4 27l-4 51l4 47l-4 209l4 31l-6 86l4 57l-4 66l-16 31l-21 20l-29 20l-49 5l-39 -5l-47 -10l-28 -10l-62 -37 l-20 -20l-27 -31l-10 -45l-4 -100l4 -39l-4 -197l4 -37l-4 -31l2 -270l-19 -33l-30 -16z" />
<glyph unicode="&#x40c;" horiz-adv-x="907" d="M444 1534l-26 14v27l26 53l17 27l12 26l35 25l37 18h35l16 -20v-25l-18 -26l-21 -29l-16 -20l-19 -27l-35 -33zM772 -4l-41 12l-22 35l-13 31l-16 26l-10 29l-17 35l-6 31l-12 34l-10 21l-17 26l-10 37l-12 31l-43 86l-6 27l-27 61l-23 60l-28 57l-8 33l-13 34l-32 25 l-37 2l-33 -16l-35 -31l-22 -33l4 -67l-4 -267l4 -32l-4 -31l4 -100l-4 -72l4 -35l-17 -29l-37 -18h-32l-35 12l-15 37v35l-4 35v24l4 41l-6 232l6 65l-4 62l2 30l-4 84l9 101l-5 32l2 56l-4 26l2 37l-2 35l4 29l-4 55l4 92l-4 84l2 25l-2 37l4 34l-6 27v33l-4 26l15 33 l32 13l29 2l41 -19l20 -24l5 -23l-3 -35l5 -31l-2 -36l4 -25l-4 -37l6 -84l-6 -47v-125l4 -28l-4 -31l2 -29l14 -27l29 -10l88 47l20 21l25 26l24 19l58 76l14 30l33 54l22 71l17 25l22 98l10 25l11 69l24 33l33 19l35 -2l31 -19l12 -29l-33 -133l-10 -26l-15 -64l-8 -33 l-28 -59l-15 -31l-45 -86l-22 -22l-15 -25l-41 -49l-18 -37v-45l12 -33l15 -28l10 -33l53 -117l8 -33l17 -28l10 -29l16 -35l6 -24l19 -37l10 -31l12 -27l11 -36l24 -56l19 -26l32 -101l17 -26l10 -27l-4 -37l-21 -14l-30 2z" />
<glyph unicode="&#x40e;" horiz-adv-x="851" d="M389 1538l-31 2l-30 16l-27 11l-29 18l-22 19l-21 26l-2 35l13 31h34l29 -19l55 -28l31 -13l43 -6l51 8l29 9l27 12l26 27l27 18l33 -12l18 -27l-6 -37l-21 -29l-20 -18l-25 -18l-32 -11l-31 -10l-27 -4l-49 -2zM213 -16l-35 16l-18 35l8 41l27 22l34 8l25 7l47 39l21 24 l12 31l20 29l35 118l4 54l-4 47l-12 32l-8 29l-13 33l-14 31l-37 92l-8 33l-37 92l-8 32l-10 23l-37 96l-8 35l-11 29l-26 59l-8 37l-15 22l-12 33l-8 33l-13 29l-12 37l-12 26l-12 35l-25 61l12 29l31 17l31 2l47 -17l29 -31l12 -28l20 -68l15 -31l8 -30l12 -29l12 -37 l13 -24l8 -29l12 -35l14 -29l7 -30l12 -35l29 -61l6 -27l26 -62l60 -208l10 -7l6 27l23 59l90 344l10 27l16 62l17 69l18 53l4 37l17 31l2 35l12 26l25 35l61 8l49 -8l6 -35l-10 -28l-18 -66l-4 -26l-17 -31l-12 -68l-14 -28l-7 -31l-14 -35l-20 -98l-13 -25l-34 -133 l-13 -27l-6 -22l-6 -39l-19 -63l-12 -27l-18 -66l-4 -32l-15 -35l-14 -60l-12 -24l-11 -37l-14 -64l-24 -77l-43 -103l-21 -33l-51 -59l-41 -31l-27 -10l-28 -12z" />
<glyph unicode="&#x40f;" horiz-adv-x="1013" d="M528 -250l-30 2l-33 17l-12 22l2 33l2 131l-21 31l-39 16l-180 -8l-53 18l-21 51l4 123l-4 23l-2 37l6 63l-4 35l-2 49l6 47l3 72l-7 45l4 51l-2 29l2 74l-6 67l6 31l3 31l-5 32l2 31l-2 31l2 37l-4 147l7 47v31l-5 29l2 32l-6 29v105l11 22l28 19l37 -2l33 -15l24 -20 l2 -101v-32l7 -187l-4 -33l6 -165l-6 -29l6 -186l-2 -27v-184l-7 -52l7 -45l-4 -176l20 -51l29 -16l34 -2h33l35 4l64 -4l32 6l37 2l35 -2l31 -6l33 4h34l31 12l16 31l2 41l-4 28l4 35l-4 35l4 258l-4 35v39l4 30l-4 31l2 330l5 35l-3 32l-6 33l4 35l-2 35l4 24l-2 174 l15 29l39 19l32 4l35 -23l17 -35l-2 -61l2 -35l-2 -27l2 -36l-4 -66l4 -61l-4 -82l4 -35l2 -82l-6 -68l4 -28l-2 -33l4 -72l-4 -61v-70l2 -26l-2 -35l2 -31l-2 -33l2 -35v-36l-4 -25l6 -37l-4 -65l4 -66l-4 -68l2 -26v-39l-23 -27l-29 -16l-67 -4l-35 4h-68l-34 4l-31 -18 l-23 -29l2 -78l-2 -51l2 -29l-18 -35z" />
<glyph unicode="&#x410;" horiz-adv-x="888" d="M66 -4l-31 22l-8 33l36 156l13 29l4 32l10 29l41 199l29 92l6 30l31 136l4 28l20 62l4 28l43 164l2 29l15 33l10 65l18 66l11 24l6 33l4 33l20 65l21 31l37 19l32 4l31 -6l33 -15l22 -28l13 -35l6 -37l26 -94l11 -64l37 -119l18 -100l12 -29l4 -37l35 -122l4 -33l33 -129 l6 -37l10 -27l3 -32l30 -97l8 -61l13 -39l2 -25l37 -127l20 -100l-10 -33l-27 -12h-37l-39 20l-26 27l-10 66l-9 32l-12 29l-12 72l-10 33l-7 34l-16 60l-25 37l-32 16h-94l-50 6h-43l-30 -4h-70l-37 -16l-20 -37l-66 -299l-12 -27l-25 -31l-33 -22h-40zM459 539l37 4h63 l27 10l6 33l-17 67l-4 35l-8 33l-4 24l-12 29l-4 37l-8 31l-15 28l-8 66l-14 55l-6 47l-21 90l-8 68l-19 66l-6 6l-14 -66l-21 -141l-10 -23l-20 -104l-2 -31l-11 -33l-8 -28l-18 -60l-2 -39l-8 -30l-21 -58l-2 -39l-6 -26l4 -37l29 -12h34l31 2z" />
<glyph unicode="&#x411;" horiz-adv-x="894" d="M344 -6l-33 6h-69l-45 4l-47 16l-17 29v31l-2 35v63l2 29l-2 33l2 202l-2 29l4 61l-4 37l2 31l-4 33l4 33l-4 28l6 66l-2 170l-6 49l4 31v45l2 32l-2 31l2 105l-4 28v39l2 25l-2 33l2 32l16 37l31 10h33l35 7l104 -2l31 4h37l33 -6l28 4l35 -7l68 7l30 -2l72 2l29 -4 l32 -17l21 -24v-27l-16 -33l-35 -10l-37 2h-29l-31 -4l-30 4l-137 -10l-68 12h-33l-31 -6l-32 -10l-21 -35v-37l-2 -35l6 -65l-6 -33l6 -37l-4 -37l2 -102l19 -31l49 -18l127 2l96 -19l31 -4l31 -18l30 -13l25 -20l22 -14l29 -27l37 -49l37 -90l4 -33l14 -57l4 -35v-97 l-6 -36l-2 -29l-14 -70l-10 -28l-13 -29l-10 -31l-14 -24l-21 -29l-24 -27l-80 -61l-27 -12l-65 -21h-31l-29 -10h-51l-45 6zM317 111l35 6h109l33 10l30 -2l35 14l53 35l35 53l8 33l15 31l8 33v41l8 32l-4 45l2 52l-2 32l-10 35l-4 29l-11 31l-14 30l-16 25l-23 24l-22 21 l-27 12l-25 15l-38 12h-48l-30 4l-43 4l-62 -8l-26 -12l-17 -46l2 -30l-2 -54v-86l-2 -32l4 -43l-4 -37l6 -35l-4 -29v-30l-4 -43l4 -39l2 -84l19 -33z" />
<glyph unicode="&#x412;" horiz-adv-x="897" d="M270 -6l-32 6h-62l-26 16l-17 29l-2 31v233l2 27l-4 35l2 26l-2 35l4 70l-4 33l4 30l-4 33l2 33l-2 31l4 40l-4 23l2 31l-2 78l4 26l2 31l-6 31l-2 36l6 29l-6 33l6 295l-4 31l-2 32l20 35l33 14l29 3l31 4h36l31 2l31 -6l205 -11l75 -24l48 -25l22 -16l29 -33l35 -51 l22 -64l4 -28l6 -33l4 -105l-8 -34l-18 -66l-17 -27l-18 -22l-18 -27l-25 -28l-55 -39l-15 -19l19 -12l29 -23l26 -14l23 -24l26 -23l49 -82l13 -33l8 -35l6 -38l8 -27l2 -105l-18 -100l-21 -59l-20 -29l-19 -31l-16 -20l-27 -25l-24 -16l-25 -23l-26 -18l-131 -37zM422 819 l31 4l34 15l33 8l55 35l21 20l47 94l8 35v96l-8 27l-6 33l-14 33l-21 24l-20 21l-56 34l-30 9l-35 6h-88l-47 6l-41 -16l-19 -37l2 -402l17 -33l34 -10zM397 109l142 22l30 12l23 17l26 22l19 21l14 26l13 37l6 31l12 25l-2 170l-12 65l-35 59l-19 25l-53 39l-98 31l-49 -2 l-43 4l-62 -6l-28 -19l-17 -37l6 -24l-6 -37l4 -27l-6 -90l4 -61l-2 -86l2 -33l-2 -64l4 -32l-2 -33l21 -41l28 -10l31 -2z" />
<glyph unicode="&#x413;" horiz-adv-x="749" d="M209 -4l-47 16l-23 25v26l-8 35l-2 33l4 31v28l-4 31v86l2 45l-2 322l4 45l-4 104l4 43v35l-4 37l4 25l-6 53l2 33l4 28l-4 39l4 62l-4 157l4 45l17 33l30 23l62 -6l34 8l31 -6l127 -5l33 7l49 -2l33 2l45 -9l33 9h28l37 -25l17 -33l-17 -35l-37 -20l-34 -8l-35 4l-49 4 l-39 -6h-49l-33 6l-29 -4l-72 4l-36 -18l-11 -29v-168l-4 -35l4 -33l-2 -166l2 -30l-4 -27v-67l4 -35l-4 -29l2 -37l-2 -29l4 -34l-2 -33l-2 -92l-2 -31l4 -168l2 -33l-4 -61l4 -33l-4 -61l6 -31l-12 -27z" />
<glyph unicode="&#x414;" horiz-adv-x="1054" d="M956 -254l-34 14l-15 39v86l6 74l-20 25l-33 22l-63 -12l-64 10l-28 -2l-37 -4l-95 8l-28 -8l-39 -2l-31 6h-31l-34 -2l-146 4l-51 -4l-27 2l-32 -18l-15 -31l-2 -37l4 -61v-33l4 -23l-22 -32l-33 -19l-33 21l-20 28l-4 64l-8 26v68l-5 47v55l13 39l26 17l39 8l29 14 l29 49l16 19l8 30l13 27l10 31l2 35l20 61l21 137l-2 37l4 39l2 31l6 41l2 30v37l6 33l4 33v39l6 51l-2 51l4 37l-2 27l11 75l4 164l6 35l-2 35l4 61l22 35l31 21l35 -6l31 4l33 -4l63 8l39 -4h27l36 2l31 -6l49 6l51 -6l35 2l35 -5l33 9l33 -19l12 -53v-86l2 -29l-2 -26 l4 -37l-4 -103l6 -26l-6 -76l4 -96l-2 -31l2 -31l-6 -69l2 -101l4 -32l-4 -93l2 -39l4 -26l-4 -35v-98l4 -37l-2 -37l2 -63l-4 -37l16 -27l33 -18l39 6l31 -21l14 -41v-100l-4 -66l-8 -49l-2 -41l-25 -35zM442 106l70 7l49 -7l150 9l34 16l17 31l-4 28l2 33l-4 51l2 50l4 34 l-4 52l4 77l-6 43l6 123l-4 31l2 35l4 31l-2 294l-4 25v39l4 31l-2 104l2 33l-21 24l-32 19l-29 4h-35l-37 -4l-63 6l-39 -4l-33 -2l-29 -19l-20 -30l-4 -35v-33l-4 -33l-10 -272l-9 -29l-2 -63l-22 -236v-32l-8 -31l-3 -31l-34 -194l-23 -64l-8 -35l-14 -30v-27l30 -12 l33 -4l27 8l39 -8z" />
<glyph unicode="&#x415;" horiz-adv-x="825" d="M674 -8l-33 8h-63l-33 2l-33 -6l-31 4l-65 -4l-33 6l-29 -4l-30 4l-66 -8l-63 2l-33 16l-19 33l4 234l-6 100l2 35l4 28l-4 37l4 27l3 33l-7 36l-2 37l2 58l2 32l-2 37l7 37l-5 35l5 92l-3 41v29l-2 63l2 37l-4 47l7 82l-7 27v33l2 24l-2 37l-2 35l-4 26l15 37l30 15 l35 -9l29 9l33 -9l98 9l166 -6l98 2l33 -2l28 -17l21 -22l2 -31l-20 -29l-54 -18l-47 4l-33 4l-36 -2l-31 -4l-35 8l-70 -2l-65 -8l-35 -19l-18 -47l-2 -117l4 -67l-4 -29l4 -98l-4 -35l4 -29l-2 -32l14 -41l35 -13l28 -2l33 4l51 -2l62 2l51 -4l59 -2l33 4l35 -16l14 -35 l-16 -41l-31 -18l-61 -6l-31 8l-70 -2l-28 4l-35 -4l-64 -2l-34 4l-31 -23l-16 -28l4 -31l-2 -37l4 -37v-35l-4 -26l4 -37l-6 -209l2 -37l16 -47l37 -16l65 2l35 -6l35 4h70l34 -6l31 4l33 -2l33 2l35 -13l18 -30l-2 -31l-14 -31z" />
<glyph unicode="&#x416;" horiz-adv-x="1271" d="M74 -6l-21 16l-2 33l15 43l84 205l28 53l10 31l41 92l11 35l16 30l10 29l15 27l14 33l12 24l12 37l43 88v39l-20 39l-18 26l-23 27l-12 27l-19 28l-20 21l-10 33l-27 61l-8 27l-12 32l-15 27l-8 33l-10 29l-6 38l-9 29l-4 39l-12 55l10 29l31 23l31 4l35 -21l20 -29 l10 -36l2 -29l11 -39l6 -29l43 -159l26 -60l19 -28l12 -27l43 -53l49 -43l23 -19l22 -26l35 4l14 24l-4 31v229l4 33l-4 29l4 67l-6 66l4 31l-4 28l17 35l49 15l53 -17l16 -33v-32l-4 -58l4 -35l2 -32l-6 -29l4 -31l-4 -33l4 -38l-6 -66l2 -29l6 -30l-4 -35l2 -66l11 -22 l30 -4l27 24l23 13l24 20l21 33l24 20l14 29l21 25l12 30l19 31l30 92l9 35l12 31l6 30l12 31l15 102l20 29l35 19l35 -2l28 -21l11 -31l-25 -120l-12 -35l-4 -27l-11 -37l-12 -35l-6 -24l-16 -27l-23 -65l-16 -33l-19 -21l-14 -30l-41 -49l-14 -23l-19 -43l6 -43l43 -123 l17 -27l12 -28l29 -62l10 -32l25 -58l12 -35l14 -24l12 -39l17 -21l12 -30l10 -33l13 -35l14 -28l18 -27l50 -121l-7 -27l-20 -16l-59 -6l-41 12l-23 31l-41 90l-18 61l-25 62l-29 57l-34 90l-17 29l-6 29l-78 178l-8 31l-14 32l-25 25l-35 -4l-30 -25l-13 -37v-61l2 -31 l-4 -231l2 -31v-162l4 -26l-2 -54l-20 -45l-47 -20l-49 14l-17 39l4 158l-6 65l2 29l-2 39l4 33v26l-4 35v31l4 35l-4 28l4 35v94l-18 43l-27 27l-37 -4l-22 -25l-16 -36l-23 -64l-14 -31l-11 -24l-30 -62l-9 -32l-14 -27l-22 -70l-29 -57l-57 -160l-15 -24l-26 -70l-25 -29 l-37 -8l-31 -4z" />
<glyph unicode="&#x417;" horiz-adv-x="837" d="M301 -20l-37 4l-55 24l-31 8l-26 21l-31 14l-47 45l-13 33l13 45l37 10l34 -8l29 -24l25 -11l28 -18l35 -17l29 -2l33 -6l47 -4l84 8l80 54l22 22l14 27l17 24l16 33l8 27l6 35l11 84l-11 79v37l-10 33l-14 25l-23 26l-24 21l-19 24l-26 17l-37 10l-31 16l-28 -4h-107 l-35 6l-35 13l-20 30l4 35l16 23l31 14h53l52 4l26 8l33 15l55 30l25 19l22 24l21 29l14 25l10 30l13 29l8 90l-2 43l-12 68l-13 22l-16 23l-25 28l-22 15l-31 12l-37 6l-43 -4l-51 6l-68 -16l-26 -12l-25 -21l-26 -16l-43 -13l-37 21l-9 41l15 35l24 22l29 17l31 20l28 17 l152 28l51 -8l31 -8l68 -10l26 -11l31 -10l26 -20l48 -48l18 -30l25 -53l18 -62v-131l-6 -31l-4 -39l-12 -22l-13 -31l-14 -33l-23 -22l-41 -47l-22 -23l-25 -18l-14 -23l49 -28l51 -45l41 -50l35 -67l27 -86l8 -41v-103l-4 -26l-12 -64l-35 -96l-19 -31l-18 -24l-17 -17 l-28 -22l-23 -29l-26 -14l-31 -19l-90 -36l-37 4z" />
<glyph unicode="&#x418;" horiz-adv-x="1048" d="M190 -4l-34 14l-11 35v236l-4 34l6 93l-2 36l5 33l-7 35l-2 47l6 80l-4 68l2 491l2 29v37l-2 24l2 29l-8 72l8 30l33 17l70 -15l18 -30l8 -88l-2 -37l7 -199l-7 -25l5 -30l-3 -41l3 -29l-5 -35l5 -26l-5 -39l5 -402l-5 -41l2 -34l-6 -35v-166l9 4l14 33l6 30l25 66l8 37 l4 31l12 32l21 45l32 113l13 29l8 37l14 30l64 178l8 37l14 23l8 33l13 26l14 33l6 33l15 28l22 66l4 29l14 32l9 27l12 35l14 29l11 26l18 68l14 30l27 29l37 17l94 4l29 -25l20 -29l-2 -65l-4 -33l4 -35l-4 -30l-2 -50l8 -84l-4 -32l-4 -86l8 -142l-4 -32v-70l2 -39 l-2 -29l4 -30l-6 -33l4 -35v-47l-2 -39l4 -49l-6 -189l6 -63l-4 -33v-24l4 -37l6 -35l-12 -33l-35 -8l-35 -2l-30 18l-19 23l-6 31l-2 63l-2 25v37l-2 32l6 78l-4 66l2 84l-4 30v35l4 33l-6 80l4 33l-4 30l2 51l4 25v133l-4 29l6 100l-2 27l2 69l6 37l-4 31v35l4 29l-10 6 l-12 -29l-11 -35l-10 -24l-10 -50l-8 -30l-29 -72l-12 -49l-62 -166l-6 -31l-39 -94l-4 -33l-12 -24l-12 -37l-13 -27l-10 -28l-8 -35l-107 -275l-6 -37l-12 -24l-12 -35l-8 -29l-13 -34l-12 -23l-27 -35l-28 -12z" />
<glyph unicode="&#x419;" horiz-adv-x="1048" d="M553 1530l-94 8l-39 -4l-31 14l-31 8l-28 19l-19 33l2 39l29 20l33 -8l26 -14l25 -7l37 -2l43 -4l78 13l28 6l23 12h33l28 -16l4 -41l-18 -29l-33 -21l-28 -6l-33 -10zM190 -4l-34 14l-11 35v236l-4 34l6 93l-2 36l5 33l-7 35l-2 47l6 80l-4 68l2 491l2 29v37l-2 24l2 29 l-8 72l8 30l33 17l70 -15l18 -30l8 -88l-2 -37l7 -199l-7 -25l5 -30l-3 -41l3 -29l-5 -35l5 -26l-5 -39l5 -402l-5 -41l2 -34l-6 -35v-166l9 4l14 33l6 30l25 66l8 37l4 31l12 32l21 45l32 113l13 29l8 37l14 30l64 178l8 37l14 23l8 33l13 26l14 33l6 33l15 28l22 66l4 29 l14 32l9 27l12 35l14 29l11 26l18 68l14 30l27 29l37 17l94 4l29 -25l20 -29l-2 -65l-4 -33l4 -35l-4 -30l-2 -50l8 -84l-4 -32l-4 -86l8 -142l-4 -32v-70l2 -39l-2 -29l4 -30l-6 -33l4 -35v-47l-2 -39l4 -49l-6 -189l6 -63l-4 -33v-24l4 -37l6 -35l-12 -33l-35 -8l-35 -2 l-30 18l-19 23l-6 31l-2 63l-2 25v37l-2 32l6 78l-4 66l2 84l-4 30v35l4 33l-6 80l4 33l-4 30l2 51l4 25v133l-4 29l6 100l-2 27l2 69l6 37l-4 31v35l4 29l-10 6l-12 -29l-11 -35l-10 -24l-10 -50l-8 -30l-29 -72l-12 -49l-62 -166l-6 -31l-39 -94l-4 -33l-12 -24l-12 -37 l-13 -27l-10 -28l-8 -35l-107 -275l-6 -37l-12 -24l-12 -35l-8 -29l-13 -34l-12 -23l-27 -35l-28 -12z" />
<glyph unicode="&#x41a;" horiz-adv-x="907" d="M772 -4l-41 12l-22 35l-13 31l-16 26l-10 29l-17 35l-6 31l-12 34l-10 21l-17 26l-10 37l-12 31l-43 86l-6 27l-27 61l-23 60l-28 57l-8 33l-13 34l-32 25l-37 2l-33 -16l-35 -31l-22 -33l4 -67l-4 -267l4 -32l-4 -31l4 -100l-4 -72l4 -35l-17 -29l-37 -18h-32l-35 12 l-15 37v35l-4 35v24l4 41l-6 232l6 65l-4 62l2 30l-4 84l9 101l-5 32l2 56l-4 26l2 37l-2 35l4 29l-4 55l4 92l-4 84l2 25l-2 37l4 34l-6 27v33l-4 26l15 33l32 13l29 2l41 -19l20 -24l5 -23l-3 -35l5 -31l-2 -36l4 -25l-4 -37l6 -84l-6 -47v-125l4 -28l-4 -31l2 -29l14 -27 l29 -10l88 47l20 21l25 26l24 19l58 76l14 30l33 54l22 71l17 25l22 98l10 25l11 69l24 33l33 19l35 -2l31 -19l12 -29l-33 -133l-10 -26l-15 -64l-8 -33l-28 -59l-15 -31l-45 -86l-22 -22l-15 -25l-41 -49l-18 -37v-45l12 -33l15 -28l10 -33l53 -117l8 -33l17 -28l10 -29 l16 -35l6 -24l19 -37l10 -31l12 -27l11 -36l24 -56l19 -26l32 -101l17 -26l10 -27l-4 -37l-21 -14l-30 2z" />
<glyph unicode="&#x41b;" horiz-adv-x="993" d="M104 -10l-36 6l-29 29l-10 32v33l20 27l21 16l24 21l15 16l45 80l26 92l10 70l3 69l8 37v35l8 39l2 29v36l20 316v37l2 34l7 33l-2 35l12 182l-2 58l4 26l14 37l35 15l66 -3l32 7l29 -7h33l33 9l28 -4l99 -2l30 6l31 -2l33 2l30 -6l64 2l37 -23l12 -33v-221l4 -35 l-6 -129l4 -37v-30l-2 -29l4 -31l-4 -35l6 -116l-4 -70l4 -25l-4 -120l-2 -27l4 -33l-4 -80l4 -55l-4 -96l6 -45l-6 -47l-2 -70l-14 -31l-35 -14l-33 -2l-31 18l-20 43l2 54l-2 131l4 32l-6 33l2 35l-2 64l4 36v29l-2 33l4 98l-6 72l4 31l-2 30l4 35l-2 55l2 31l-2 31l2 84 l-4 63v70l4 31l-6 135l-12 26l-37 21l-35 4l-31 -2h-37l-30 -2l-33 2l-33 -6l-33 2l-34 -12l-19 -35l-6 -39l-4 -90l-4 -39l4 -31l-8 -72v-30l-4 -37l-5 -92l-12 -131l2 -33l-8 -37l-4 -35l2 -31l-6 -63l-6 -33l-4 -39l2 -26l-29 -129l-4 -39l-10 -27l-13 -35l-16 -30 l-10 -33l-15 -27l-43 -47l-28 -16l-29 -25z" />
<glyph unicode="&#x41c;" horiz-adv-x="1277" d="M182 -8l-37 18l-16 35l4 229l-6 31l4 98l-2 33l2 131l-2 35l2 29l-4 31l6 266l-4 33l2 34l-2 95l2 32l-2 33l2 35l-2 59l2 37l-2 78l16 51l35 19l33 -4l37 2l33 -5l39 -14l26 -29l105 -376l12 -64l14 -37l6 -30l23 -60l4 -33l12 -34l76 -318l8 -57l13 -51l16 -15l80 355 l22 63l4 25l13 30l8 33l4 37l43 152l12 28l45 195l25 61l8 37l6 29l11 30l20 31l55 23l51 -2l31 -6l33 -15l22 -31l-6 -235l6 -35l-4 -63l2 -37l-4 -193l4 -37l-2 -32l7 -64l-7 -102l7 -160l-7 -39l4 -35l-6 -153l4 -33v-33l5 -27l-5 -26l7 -37l-13 -29l-26 -16l-33 -4 l-35 18l-22 23v24l-2 33l-7 33l2 35l-4 28l6 115l-6 51l4 37v35l-2 33l7 30l-7 35v35l4 70l-6 131l6 137l-2 94l2 31l-2 41l5 29l-5 41l5 127h-9l-14 -31l-4 -29l-4 -39l-10 -26l-7 -37l-118 -439l-15 -32l-4 -33l-12 -27l-6 -30l-62 -226l-12 -28l-6 -37l-10 -25l-29 -35 l-37 -10l-31 -2l-39 14l-26 29l-21 62l-2 32l-8 37l-12 31l-17 61l-14 27l-8 47l-16 49l-7 33l-20 63l-10 27l-6 35l-13 27l-12 65l-35 96l-82 355l-10 -4l-2 -68l2 -64l-2 -34l4 -33v-31l4 -139l-2 -29l2 -67l-4 -35l4 -33l-2 -25l2 -102l-2 -29l2 -32l-2 -492l-14 -35 l-35 -18z" />
<glyph unicode="&#x41d;" horiz-adv-x="1013" d="M199 -4l-39 22l-17 29l7 127l-7 37v39l4 33l-4 129l4 28l-2 119l-4 27l4 121l-2 32l4 64l-2 100l5 82l-5 217v62l-2 28v33l-4 23l-2 34l17 33l30 12l35 7l35 -19l16 -18l9 -33l-3 -35l7 -37l-2 -55l2 -33l-2 -358l14 -31l35 -18l32 -6h35l31 2l47 -2l47 4l31 -2l33 4 l28 -2l31 4h37l31 18l16 27l2 69l-4 48l6 83l-6 269l6 69l10 29l35 23l33 -4l37 -17l20 -31v-30l-4 -33v-135l2 -31v-104l-4 -27l4 -53l-2 -31l4 -55l-2 -33l-4 -31l2 -37l-2 -32v-29l4 -66l-4 -30l2 -37l-2 -27l4 -37v-35l-4 -38l4 -64l-2 -78l4 -45l-6 -63v-64l4 -26v-41 l4 -31l-14 -25l-25 -16l-36 -2l-37 18l-19 25l-2 22l-10 66l4 70l-4 32l6 29v53l-6 45l4 271l-18 32l-33 21l-31 2l-61 -4l-53 8l-173 -6l-32 -4l-33 -19l-14 -32l2 -27l-4 -66l2 -36l-4 -31v-59l4 -39l-2 -56l4 -35l-6 -67l6 -33l-6 -129l-19 -29l-29 -22h-32z" />
<glyph unicode="&#x41e;" horiz-adv-x="946" d="M422 -23l-31 3l-33 10l-30 6l-25 12l-49 37l-41 41l-18 27l-15 24l-22 62l-17 26l-18 64l-31 237l4 39l-6 35v29l4 28v205l4 27l-2 35l2 34v31l8 33l13 100l28 99l15 22l10 35l18 20l13 35l22 27l27 16l22 19l29 18l27 14l30 13l29 6l31 4l49 4l47 -4l37 -6l27 -8l26 -6 l29 -15l53 -31l21 -18l43 -49l28 -57l19 -58l12 -31l8 -34l33 -238v-33l-4 -32l6 -199l-6 -64v-67l-8 -33l-6 -100l-11 -62l-16 -67l-37 -95l-33 -51l-22 -30l-25 -23l-51 -35l-25 -12l-30 -2l-31 -10l-35 -4h-49zM516 92l27 10l30 9l21 20l22 19l35 47l21 61l14 31l4 33 l4 40l11 66l8 94l-2 37l4 29l-2 178l4 27l-6 65l2 37l-8 125l-13 63l-2 37l-14 27l-10 29l-9 36l-14 31l-18 27l-47 43l-29 10l-35 10l-43 -2l-47 4l-29 -10l-26 -8l-21 -17l-41 -47l-26 -49l-27 -104l-16 -96l-5 -72l-2 -31l-4 -98l4 -90l-4 -49v-31l4 -33l2 -133l7 -25 l2 -63l24 -107l19 -57l12 -31l45 -47l27 -14l24 -19l31 -10z" />
<glyph unicode="&#x41f;" horiz-adv-x="995" d="M184 -2l-34 12l-19 35l2 35l-2 31l2 51l-4 82l2 26v35l4 31l-6 35l-2 176l6 80v69l-2 33l4 133l-6 131l4 27l-4 53l6 150l-6 26l6 84l-2 31l14 51l31 19l33 2l65 -4l29 4l39 -6h29l37 4l30 -7l127 3l37 -3l162 3l31 -5l32 -10l17 -31l2 -32l-4 -37l6 -35l-6 -164l4 -67 l-2 -33l4 -49l-6 -49l4 -113l-2 -53l4 -64l-6 -70v-90l4 -36l-2 -37l4 -35l-4 -33l-2 -125l4 -37v-63l-2 -31v-57l6 -33l-12 -29l-35 -12h-29l-39 8l-20 29l-2 55l-6 33l4 37l-4 28l2 33l-2 35l4 98l-2 31l2 35l-4 96l4 39l-4 29l2 28l-2 33l4 105l-4 22l4 98l-4 70l2 31v65 l-2 31l4 82l-2 49l2 51l-15 49l-36 19l-31 -4l-29 2l-129 4l-63 -4l-45 4h-48l-34 -21l-15 -30l-2 -133l4 -31l-4 -37l4 -31l-6 -32l4 -236l-6 -49l4 -51l-2 -27l4 -33l-4 -100l4 -37v-33l2 -47l-2 -47l2 -33l-4 -51l2 -86l-4 -65l2 -68l-18 -27l-35 -16z" />
<glyph unicode="&#x420;" horiz-adv-x="899" d="M219 -6l-35 6l-32 10l-21 37l4 193l-4 30l2 33l-2 37l4 31l-4 32l6 33l-6 33l-2 35l4 47l-2 127l2 53l-2 31l6 84l-2 47l-4 31l6 37l-6 34l2 33l-2 31l2 123l-4 39l2 34l-2 27l6 33l-2 61l19 39l32 21l33 -6h31l35 4h65l39 -7l51 7l47 -7l37 3l31 -11l33 -4l30 -12 l33 -19l31 -12l20 -18l48 -54l18 -26l12 -31l27 -59l8 -37l16 -152l-2 -49l-10 -35v-32l-6 -31l-31 -90l-14 -27l-39 -53l-22 -25l-27 -20l-27 -27l-55 -31l-92 -26l-195 -12l-26 -15l-17 -33l4 -30v-230l-4 -28l2 -142l-16 -47zM369 647l47 2l65 13l33 14l31 8l30 16l50 52 l14 30l18 25l21 70l2 34l6 33l-2 98l-6 62l-6 26l-15 46l-22 49l-21 30l-47 39l-28 6l-37 13l-78 6l-47 -4l-31 2l-33 6l-30 -20l-13 -37v-29l-4 -156l2 -47l-2 -33l2 -32l-2 -31l4 -66l-4 -38l6 -54l-8 -75l17 -35l34 -19z" />
<glyph unicode="&#x421;" horiz-adv-x="827" d="M432 -23l-96 23l-55 27l-45 36l-25 27l-14 25l-19 24l-16 29l-23 61l-4 35l-8 33l-8 25l-21 106l4 35l-10 96l4 41l-6 31l2 31l-4 53l4 53l-4 29l6 53l-2 43l12 102v33l7 27l4 37l8 32l12 27l6 33l13 35l6 24l14 35l39 55l18 21l52 49l26 14l29 10l33 17l32 2l31 4l98 2 l70 -14l62 -25l32 -8l29 -21l18 -34l-6 -35l-18 -27l-35 -4l-31 6l-28 19l-33 8l-31 12l-31 6l-49 4l-53 -10l-27 -2l-24 -12l-23 -15l-24 -22l-21 -21l-10 -32l-31 -56l-6 -28l-29 -170l-8 -307l4 -33l-2 -29l4 -27l2 -38l-4 -33l7 -29l8 -98l10 -66l12 -30l6 -37l11 -25 l16 -37l16 -24l25 -21l29 -20l26 -15l29 -10l51 2l45 6l51 4l43 11l58 20l26 21h37l31 -25l2 -43l-25 -41l-135 -57l-76 -13l-49 7z" />
<glyph unicode="&#x422;" horiz-adv-x="786" d="M420 -2l-31 4l-39 8l-18 25l-8 57l2 39l-4 31l4 65l-2 82l4 115l-6 29l4 30l-2 33l2 35v29l2 38l-4 35v58l4 39v30l-4 35v453l-19 35l-31 16l-65 -2l-31 4l-37 -4l-61 8l-35 14l-14 39l14 31l35 21l47 -3l47 7l35 -4l72 4l30 -7l31 3l33 -3l33 7l32 -4l33 8l31 -6l69 -2 l68 8l64 -11l34 -12l13 -45l-15 -39l-47 -14l-86 4l-31 -2l-30 4l-37 -6l-29 -17l-18 -32l-2 -27l6 -33l-4 -37l4 -69l-4 -23l2 -73l-6 -31l8 -62l-6 -30l-2 -33l4 -33v-37l-2 -32l4 -37l-4 -31l2 -43v-113l4 -35l-6 -34l2 -31l-2 -64l4 -51l-2 -47l2 -37l-2 -28l2 -27v-31 l-4 -30l6 -37l2 -29l-10 -31z" />
<glyph unicode="&#x423;" horiz-adv-x="851" d="M213 -16l-35 16l-18 35l8 41l27 22l34 8l25 7l47 39l21 24l12 31l20 29l35 118l4 54l-4 47l-12 32l-8 29l-13 33l-14 31l-37 92l-8 33l-37 92l-8 32l-10 23l-37 96l-8 35l-11 29l-26 59l-8 37l-15 22l-12 33l-8 33l-13 29l-12 37l-12 26l-12 35l-25 61l12 29l31 17l31 2 l47 -17l29 -31l12 -28l20 -68l15 -31l8 -30l12 -29l12 -37l13 -24l8 -29l12 -35l14 -29l7 -30l12 -35l29 -61l6 -27l26 -62l60 -208l10 -7l6 27l23 59l90 344l10 27l16 62l17 69l18 53l4 37l17 31l2 35l12 26l25 35l61 8l49 -8l6 -35l-10 -28l-18 -66l-4 -26l-17 -31 l-12 -68l-14 -28l-7 -31l-14 -35l-20 -98l-13 -25l-34 -133l-13 -27l-6 -22l-6 -39l-19 -63l-12 -27l-18 -66l-4 -32l-15 -35l-14 -60l-12 -24l-11 -37l-14 -64l-24 -77l-43 -103l-21 -33l-51 -59l-41 -31l-27 -10l-28 -12z" />
<glyph unicode="&#x424;" horiz-adv-x="1144" d="M559 -51l-31 20l-18 41l4 31l-14 33l-37 14l-31 2l-47 19l-47 8l-90 47l-41 43l-25 20l-18 35l-17 23l-14 28l-8 35l-14 31l-15 61l-4 35l-6 27l-8 67l4 37v27l-6 35v166l12 104l6 31l4 35l8 30l7 33l8 25l14 32l31 56l41 55l72 59l55 27l35 8l30 14l66 9l27 18l20 35 l2 37l14 37l31 12l35 6l27 -20l20 -41l-2 -25l20 -39l33 -22l31 -4l31 -11l63 -8l29 -16l26 -21l27 -14l53 -43l19 -27l43 -78l12 -34l8 -31l23 -62l6 -32v-33l6 -31l4 -37v-59l8 -88l-6 -80l2 -33l-10 -67v-29l-10 -68l-8 -32l-13 -31l-10 -33l-6 -29l-12 -32l-58 -80 l-22 -25l-31 -18l-25 -19l-24 -12l-45 -16l-51 -15l-47 -6l-50 -26l-12 -31l-2 -39l-12 -33l-35 -16zM465 213l33 6l14 33l-2 186l4 54l-4 145l2 31l-2 69l4 31l-4 328l4 26l-2 54l-18 49l-27 12l-37 -12h-31l-26 -19l-27 -12l-24 -20l-43 -48l-15 -28l-12 -33l-25 -96 l-14 -166l6 -193l-2 -35l4 -34l-2 -31l29 -135l18 -29l10 -27l39 -45l27 -20l31 -14l26 -19l33 -2zM690 211h29l35 8l24 19l60 34l34 45l17 33l8 33l10 29l15 30l14 99l6 233l-8 64l4 34l-8 35v27l-8 37l-2 28l-9 37l-18 60l-41 53l-43 41l-57 29l-31 12l-31 6l-33 -14 l-16 -33l4 -29l-4 -104l4 -29l-6 -84l6 -108l-4 -35l2 -156l-4 -33l2 -344l18 -47z" />
<glyph unicode="&#x425;" horiz-adv-x="892" d="M104 -6l-30 20l-2 29l22 61l8 33l11 31l16 25l64 159l6 25l14 33l8 34l39 93l10 30l27 54l37 100l4 39l-8 51l-15 27l-32 90l-9 37l-14 22l-45 125l-41 92l-14 45l-23 43l-10 33l-12 27l-6 30v35l28 19l37 -2l45 -15l33 -33l12 -32l8 -31l15 -27l18 -65l14 -27l13 -33 l16 -30l55 -146l7 -26l14 -31l18 -51l13 -13l10 31l16 29l8 33l13 28l30 88l15 29l12 33l19 41l47 139l14 31l10 33l27 32l41 11h39l26 -15l6 -31l-8 -32l-14 -31l-12 -33l-15 -24l-47 -119l-6 -35l-10 -29l-21 -43l-28 -75l-15 -27l-8 -37l-16 -24l-8 -35l-17 -29l-6 -45 l33 -106l14 -29l8 -37l15 -29l16 -63l14 -25l13 -30l10 -39l29 -58l22 -63l14 -31l43 -127l37 -84l-8 -31l-24 -18l-41 -2l-41 16l-31 31l-8 31l-15 32l-10 25l-14 31l-12 31l-9 32l-12 29l-12 39l-64 158l-14 51l-14 26l-7 29l-14 31l-10 35l-10 24l-13 2l-10 -28l-16 -35 l-8 -29l-25 -53l-12 -53l-74 -193l-31 -61l-8 -37l-14 -25l-11 -29l-18 -43l-41 -45l-35 -22z" />
<glyph unicode="&#x426;" horiz-adv-x="1015" d="M911 -256l-32 16l-21 39l4 25l-2 80l4 47l-20 31l-31 12l-80 4l-65 -6l-45 8l-35 -4l-33 2l-33 -6l-37 2h-30l-29 2l-35 2l-65 -4l-35 6l-29 2l-31 -4h-36l-35 18l-17 31l2 66l-4 51l4 49l-2 131l7 64l-7 38l4 27l-6 119l6 86l-2 31l2 28l-4 33l7 117l-7 49l7 80l-5 49 l5 100l-9 125l2 31l-2 31l2 34l11 31l30 10l72 -8l18 -28l9 -97l-2 -59l2 -37l-4 -31l6 -43l-6 -538l2 -33l-2 -35l2 -29l-2 -104l4 -57l-4 -37l4 -31v-74l-2 -28l18 -37l35 -10l35 2l28 2l35 -4l68 4l32 -2h37l27 -4l35 6l35 -4l32 18l17 29v35l2 28v35l2 35l-4 65l2 35 l-6 35l6 35l-2 28l4 33l-4 246l4 35l-2 115l-6 45l6 282l-4 35l6 74l-4 28l20 33l31 12h33l37 -14l12 -33l4 -331l-4 -66l4 -33l2 -53l-2 -47l-6 -25l2 -41l4 -32v-459l-6 -51l6 -86l14 -31l35 -19l35 7l29 -27l18 -33l2 -55l-16 -178l-6 -27l-23 -26z" />
<glyph unicode="&#x427;" horiz-adv-x="909" d="M725 -6l-35 2l-37 18l-18 29l6 33l-4 49l4 33l-4 47l4 94l-4 35l4 94l-4 49l6 84l-2 37l-18 25l-27 2l-35 -15l-29 -10l-34 -8l-31 -10l-33 -4l-98 -3l-35 7l-31 2l-90 43l-26 26l-19 17l-18 28l-17 29l-22 64l-6 32l-2 31l-7 33l5 49l-7 119l7 63l-5 45l3 35l-5 29v39 l-4 26l4 37l-4 51l13 33l28 19l35 2l41 -13l16 -35l11 -151l-4 -35l4 -31v-49l-4 -51l6 -188l6 -25l6 -39l10 -26l11 -33l20 -21l53 -32l35 -13l92 -8l68 12l33 13l61 16l29 37l16 35l-4 32l2 37l-2 52l4 30l-2 25v153l-4 31l4 64l-2 34l2 127l12 31l54 21l49 -13l18 -37 l-2 -30l4 -31l-2 -35l2 -33l-2 -38l4 -35l-4 -27l-2 -68l4 -28l-4 -37l4 -31l-6 -69l6 -324l-4 -49l4 -146l-4 -34l6 -64l-4 -26v-35l4 -39l-6 -23l-2 -39l6 -28l-2 -62l-16 -41z" />
<glyph unicode="&#x428;" horiz-adv-x="1431" d="M520 -6l-47 2h-51l-33 4l-27 -4l-38 4l-64 -4l-70 2l-30 16l-13 33l-4 33l2 72l2 26l-6 299l6 62l-4 34l2 134l-2 32l4 29l-4 133l4 35l-4 135l4 49l-2 78l-6 33l6 33v28l-8 94l15 29l28 15l33 4l41 -15l20 -28l5 -27l2 -35l-5 -31l5 -32l-5 -35l3 -29l4 -28l-2 -300 l2 -28l-2 -33l2 -70l-4 -102l4 -31l-4 -28l4 -66l-4 -31l2 -71l-5 -97l7 -45l-4 -79l2 -37l18 -29l31 -14l270 -4l33 12l22 37l-4 403l4 29l-6 63l4 35v164l-2 35l-2 100l4 29l-4 119l6 82l-6 32l2 31l-2 39l4 27l-2 36l21 33l49 17l47 -21l16 -29l7 -131l-5 -32l-2 -39 l2 -27v-33l5 -39l-7 -51v-24l7 -88l-3 -29v-166l5 -35l-9 -65v-62l4 -37l-2 -51l5 -53l-5 -62l5 -39l-7 -65l7 -64l-5 -28l19 -35l35 -16l51 -2l84 6l47 -6l88 -3l35 17l18 39l-2 135l2 25v67l-4 37l4 98l-4 37l4 25l-4 172l4 57l-6 236l6 34l-2 31l2 64l-2 34l2 37l-2 31 l2 35l-6 63l23 35l34 15l33 4l29 -21l20 -33l2 -26l-4 -37l4 -307l-6 -54l4 -32l-2 -29l2 -33l-4 -65l6 -68l-4 -225l4 -29l-4 -39l4 -133l-4 -141l2 -49l-2 -54l-14 -45l-33 -12h-30l-35 -8l-35 6h-66l-32 -4l-35 6l-92 -6l-39 4l-35 -4l-31 -2l-65 6l-29 -4h-35l-33 4 l-30 -4l-72 4z" />
<glyph unicode="&#x429;" horiz-adv-x="1462" d="M1354 -258l-31 16l-16 39v60l4 28v66l-17 31l-32 12l-95 6l-32 -4l-39 6l-29 -6l-33 4h-26l-35 -4l-101 4l-32 -2l-29 2l-35 -8l-31 6l-30 2l-35 -4l-191 4l-38 -6l-27 2l-37 4l-33 2l-28 -2l-119 2l-45 10l-17 39l2 27l-4 69l4 33v33l-2 33l2 33l-2 30l2 64l-4 35l4 100 l-2 33l5 34l-7 31l2 29l-2 67l7 41l-5 64l2 61l-6 37l6 37v31l-4 35l-2 32l6 82l-4 47l4 27l-6 35l2 26l-2 33l4 29l-2 33l-4 34l13 27l49 21l53 -17l20 -26l9 -185l-4 -172l4 -26l-4 -35l4 -33l-2 -322l-2 -36l4 -35l-7 -35l9 -59l-6 -164l2 -64l-2 -39l2 -28l20 -35 l29 -14l39 2l47 6l53 -6h31l37 4l65 -6l37 14l18 39v26l-6 68l4 49l-2 266l-4 37l6 47l-2 52l4 34l-4 43l2 29l-4 94l4 58v88l-4 28l4 299l19 31l35 23l28 -2l33 -19l16 -37l5 -26l-5 -103l5 -61l-3 -72l5 -31l-5 -32v-68l-2 -27l5 -34l-5 -189l5 -28l-5 -48v-34l5 -31 l-3 -39l5 -66l-5 -32l3 -27l-3 -41l3 -35l-5 -57l5 -35l-3 -104l15 -29l39 -21l37 7l198 -2l31 -5l35 19l16 35l6 33l-2 32v66l-6 82l4 35v45l2 39l-2 28l4 55l-6 275l2 31l-2 34l6 70l-4 29l2 51l-4 45l4 33l-2 170l4 37l-2 28l13 37l57 21l49 -27l16 -35l-6 -78l6 -47 l-4 -32l2 -35v-86l4 -41l-6 -39l-2 -29l6 -33v-262l-4 -41l4 -26l-4 -37l2 -33v-33l2 -35l-2 -100l2 -29l-4 -65l4 -131l17 -31l31 -22l36 -3l31 -16l17 -37l2 -49l-17 -117l2 -30l-6 -27v-39l-20 -35z" />
<glyph unicode="&#x42a;" horiz-adv-x="970" d="M291 -6l-47 20l-13 45l-4 31l2 90l-2 27l2 104l-4 31l4 35l2 33l-4 32l2 232l-4 26l2 74l2 29v37l-4 34l2 39l-2 91l4 30l2 37l-6 66l6 30l-2 39l2 31l-2 27l-20 32l-31 21l-76 -2l-34 6l-31 12l-14 21l-5 30l19 31l47 19l41 2l190 -9l31 -16l19 -27l-3 -32l3 -31l-5 -72 l2 -35l-2 -63l7 -49v-53l-5 -29l3 -37l18 -33l35 -18l141 4l27 -8h37l30 -6l27 -17l37 -6l22 -16l31 -17l23 -20l24 -29l33 -51l18 -25l6 -30l13 -33l14 -27l12 -61l5 -119l-5 -45v-35l-6 -65l-8 -35l-12 -35l-6 -29l-33 -61l-29 -41l-33 -33l-57 -45l-55 -27l-35 -6 l-29 -12l-37 -6l-98 2l-33 -2l-98 2zM494 111l34 8h47l37 4l31 18l25 13l26 18l19 25l18 26l25 62l12 34l8 35l4 35v135l-6 29l-4 35l-25 96l-16 31l-45 51l-29 22l-30 19l-33 4l-33 6l-47 4l-104 -4l-31 -20l-15 -31l3 -31l-5 -30l5 -64l-5 -29l5 -37l-5 -190l5 -31l-3 -30 v-134l-2 -28l19 -35l31 -10z" />
<glyph unicode="&#x42b;" horiz-adv-x="1280" d="M1092 -2l-31 2l-37 10l-23 31l-6 57l-2 33l4 31l-2 28l4 39l-4 27l2 51l-4 47l6 33l-6 229l4 31l-4 68l4 30l-2 35l2 144l-2 53l4 27l-2 157l-4 37v29l6 35l-2 30l-4 29v37l-4 26l12 33l33 19l31 -4l37 -15l22 -26v-29l6 -96l-2 -35l5 -35v-74l-7 -67l7 -205l-5 -35 l7 -330l-9 -65l2 -29l7 -37l-7 -47l2 -43l-2 -35l9 -125l-2 -32l4 -27l-15 -35zM240 -8l-50 4l-30 18l-13 56l-4 211l4 32l-2 35l5 27l-5 35l-2 67l7 29l-3 74l-4 28l4 396l-6 30l6 35l-2 162l-2 29l4 36l-4 25l-6 65l15 37l47 9l57 -9l18 -32l2 -29v-25l7 -215l-2 -43 l4 -63l-6 -35l18 -27l35 -14l37 -4h57l113 -10l90 -31l30 -12l54 -41l22 -23l19 -22l55 -113l10 -35l8 -33l2 -32l2 -158l5 -37l-9 -35l-2 -32l-8 -29l-6 -31l-29 -69l-12 -21l-41 -53l-49 -53l-29 -21l-30 -14l-62 -19l-168 -14l-35 6l-30 -8h-50zM360 111h50l55 2l31 10 l30 6l31 8l33 19l24 18l56 82l22 98l6 117l-4 49v33l-20 102l-15 33l-30 55l-27 27l-29 21l-45 18l-51 12l-90 -4l-35 10l-24 -6l-35 -20l-12 -37l2 -27l-4 -28l2 -33l2 -68l-2 -28l4 -31l-4 -31l2 -39l-2 -26l2 -52l-4 -96l4 -47l-2 -37l2 -59l14 -33l35 -14z" />
<glyph unicode="&#x42c;" horiz-adv-x="888" d="M240 -8l-50 4l-30 18l-13 56l-4 211l4 32l-2 35l5 27l-5 35l-2 67l7 29l-3 74l-4 28l4 396l-6 30l6 35l-2 162l-2 29l4 36l-4 25l-6 65l15 37l47 9l57 -9l18 -32l2 -29v-25l7 -215l-2 -43l4 -63l-6 -35l18 -27l35 -14l37 -4h57l113 -10l90 -31l30 -12l54 -41l22 -23 l19 -22l55 -113l10 -35l8 -33l2 -32l2 -158l5 -37l-9 -35l-2 -32l-8 -29l-6 -31l-29 -69l-12 -21l-41 -53l-49 -53l-29 -21l-30 -14l-62 -19l-168 -14l-35 6l-30 -8h-50zM360 111h50l55 2l31 10l30 6l31 8l33 19l24 18l56 82l22 98l6 117l-4 49v33l-20 102l-15 33l-30 55 l-27 27l-29 21l-45 18l-51 12l-90 -4l-35 10l-24 -6l-35 -20l-12 -37l2 -27l-4 -28l2 -33l2 -68l-2 -28l4 -31l-4 -31l2 -39l-2 -26l2 -52l-4 -96l4 -47l-2 -37l2 -59l14 -33l35 -14z" />
<glyph unicode="&#x42d;" horiz-adv-x="819" d="M338 -27l-82 7l-90 20l-31 16l-31 11l-26 12l-19 37l2 49l31 22l35 -4l63 -32l35 -11l31 -2l35 -6l49 -4l51 8l25 6l28 19l27 10l23 16l18 31l14 27l15 22l8 27l22 102l11 164l4 31l2 76l-13 28l-34 21l-66 -2l-31 2h-94l-33 -6l-32 8l-45 -4l-47 18l-21 35l21 43l32 16 l25 -4l65 6h31l80 3l53 -7l33 2h27l32 15l15 33l4 28l-31 262l-6 31l-27 68l-32 53l-23 20l-55 25l-82 16l-76 -10l-33 -12l-28 -12l-66 -25l-29 12l-18 23l-2 39l12 30l92 48l31 8l31 10l168 -4l24 -4l33 -10l33 -9l49 -32l25 -21l20 -20l18 -25l46 -92l12 -27l4 -37l8 -28 l12 -33l15 -96l10 -144l-4 -37l4 -28v-137l-2 -29l4 -35l-6 -33l2 -35l-6 -32l2 -70l-8 -27l-2 -32l-25 -101l-6 -30l-21 -58l-28 -65l-21 -29l-76 -63l-22 -9l-31 -16l-30 -12l-31 2l-31 -10z" />
<glyph unicode="&#x42e;" horiz-adv-x="1339" d="M897 -23l-31 5l-35 -2l-45 2l-81 26l-43 25l-23 16l-23 21l-16 26l-16 25l-17 29l-12 34l-14 27l-17 65l-12 33l-27 246l4 33l-4 28l-18 43l-37 17l-33 -4l-69 6l-35 -14l-14 -35l-3 -33l3 -35v-35l2 -43l-2 -49l6 -115l-4 -49l2 -129l-7 -59l5 -33l-23 -35l-47 -14 l-49 14l-17 35l-4 66l2 96l-2 37l6 129l-4 102l4 68l-4 125l4 69l-4 33l4 391l-4 31l2 35v59l-2 29l-2 70l11 32l32 13l68 -13l22 -22l2 -64l-2 -30l9 -179l-4 -88l4 -37l-7 -32l7 -66l-2 -26v-39l18 -31l29 -14l34 -7l66 5l39 18l16 29l6 32v101l7 39l6 26l2 33l8 41l10 33 l6 31l11 32l20 58l19 34l38 58l23 24l20 19l29 18l29 13l33 12l65 8l125 -6l31 -4l59 -23l25 -12l22 -23l29 -12l33 -51l30 -55l11 -33l12 -29l16 -65l11 -31l4 -37l10 -68v-30l6 -39l-2 -31l6 -29l-2 -38l6 -37v-133l-4 -29l-6 -166l-20 -158l-9 -30l-14 -41l-6 -27 l-39 -86l-51 -70l-62 -47l-32 -8l-27 -6l-35 -12zM862 90l47 4l80 33l23 25l14 20l14 29l13 30l14 27l29 135l-2 33l8 31v43l6 63l-4 31l2 68l4 51v49l-6 31l4 67l-8 31l-2 104l-6 29l2 31l-41 162l-33 53l-23 24l-28 15l-29 22l-125 4l-22 -10l-31 -10l-25 -10l-43 -43 l-14 -33l-8 -27l-15 -26l-24 -105l-10 -98v-33l-5 -33l-6 -334l9 -32v-72l6 -33l2 -28l6 -35v-33l12 -31l12 -63l19 -33l16 -23l15 -30l22 -25l55 -31l31 -10z" />
<glyph unicode="&#x42f;" horiz-adv-x="937" d="M750 -2l-29 4l-41 8l-18 33l-5 29l-4 55l4 35l-8 147l6 49v123l-6 33l2 68l-14 32l-35 17l-59 -2l-29 6l-39 -17l-31 -36l-34 -88l-17 -31l-12 -31l-12 -24l-11 -35l-14 -29l-10 -27l-15 -30l-12 -35l-8 -29l-18 -30l-9 -25l-14 -31l-10 -37l-10 -24l-15 -29l-35 -35 l-38 -8l-35 -2l-29 14l-6 29l22 59l17 29l49 133l41 86l10 35l94 213l-6 39l-24 29l-27 6l-27 22l-30 17l-43 49l-21 24l-16 27l-25 64l-20 96v53l4 72l24 100l29 64l41 55l23 20l28 17l27 24l41 19l49 20l31 6l237 13l29 -2l65 4l35 -2l33 -17l21 -33v-53l-5 -78l2 -36v-31 l-2 -33l5 -70l-3 -34l5 -31l-7 -66l-2 -475l7 -51l-5 -70l2 -47l-2 -51l5 -123v-59l6 -27l-13 -33zM514 741h47l35 2l41 17l14 31l2 161l4 52l-6 47l2 32l-2 33l4 82l-2 45v29l-20 28l-27 21l-47 4l-117 -6l-65 -14l-29 -13l-35 -16l-67 -70l-13 -32l-14 -68l-8 -84l6 -51 l12 -64l29 -65l21 -25l57 -43l29 -10l34 -8l27 -4l35 -7z" />
<glyph unicode="&#x430;" horiz-adv-x="811" d="M373 -23l-84 5l-29 4l-27 10l-26 8l-23 14l-22 17l-21 16l-28 47l-15 31l-14 51l-2 29v88l4 29l4 26l8 31l11 23l10 30l18 25l15 22l18 23l20 16l25 25l25 14l79 37l31 6l58 8l43 -2l38 4l27 -4l29 11l16 26l-6 60l-4 28l-4 27l-8 33l-11 22l-16 21l-23 16l-22 18l-27 7 l-43 -2l-43 4l-45 -11l-39 -14l-53 -33l-29 -6l-26 17l-12 16l-5 33l17 30l20 17l27 12l24 14l54 23l24 2l31 8l29 2l84 -2l30 -10l41 -10l37 -19l21 -12l22 -18l35 -52l12 -26l13 -31l12 -57l8 -58v-45l4 -41l-2 -57l-2 -25l2 -28l2 -88l-4 -60l4 -22l-4 -103l4 -69l-2 -31 l2 -31l6 -53l-8 -33l-43 -14l-53 12l-21 25l-4 30l-12 11l-16 -8l-39 -35l-27 -19l-47 -18zM350 90l43 2l25 8l51 25l43 27l20 22l17 33l10 37v26l-2 29l2 143v23l-14 35l-27 8l-106 4l-29 -10l-51 -15l-47 -32l-19 -21l-18 -24l-12 -21l-13 -27l-4 -26l-4 -74v-47l4 -25 l21 -51l16 -18l25 -15l28 -12z" />
<glyph unicode="&#x431;" horiz-adv-x="845" d="M350 -18l-28 10l-29 8l-23 12l-22 11l-23 20l-22 14l-35 47l-14 27l-15 21l-8 26l-10 27l-6 28l-9 29l-10 57l-8 64l-2 317l-2 25l6 63l2 29l2 25v28l6 62l9 26l4 29l26 78l25 57l14 23l29 33l82 67l102 58l25 8l133 61l24 14l52 33l28 8l23 -12l14 -24l2 -37l-16 -31 l-21 -20l-22 -17l-80 -43l-23 -10l-28 -8l-154 -74l-51 -51l-25 -33l-14 -27l-8 -24l-10 -25l-7 -28l-2 -33l-6 -25l-4 -24l-2 -64l4 -12l23 8l18 25l23 14l22 16l56 27l28 12l29 4l43 2l70 -4l53 -14l45 -33l22 -20l33 -39l27 -51l8 -31l16 -51l19 -144l-2 -118l-4 -27v-29 l-15 -86l-6 -28l-20 -50l-11 -32l-12 -27l-12 -23l-19 -24l-20 -19l-23 -16l-18 -16l-27 -15l-24 -16l-25 -6l-31 -12h-139zM420 88l69 10l25 13l25 16l18 25l27 43l20 55l6 29l11 83l6 103l-4 72v57l-7 27l-4 32l-12 49l-12 29l-35 41l-23 16l-26 15h-43l-45 -4l-56 -11 l-53 -34l-41 -43l-20 -17l-29 -80l2 -30v-29l-4 -25l2 -47l-2 -49l4 -26v-27l10 -88l9 -35l4 -27l10 -24l16 -27l15 -22l20 -25l23 -20l26 -15l27 -8z" />
<glyph unicode="&#x432;" horiz-adv-x="776" d="M199 -6l-29 4h-27l-30 12l-15 31l2 203l2 28l-2 43l-2 23l2 41l2 31l-4 59l4 31l-2 209l2 34l-2 29l2 41l-4 27l2 61v27l15 24l28 17l29 4h199l43 -6h69l29 -2l27 -7l26 -10l27 -16l22 -12l23 -17l18 -22l17 -23l12 -27l8 -24l6 -31l-2 -82l-6 -28l-10 -33l-29 -51 l-41 -41l-12 -25l12 -14l21 -15l20 -22l21 -19l16 -20l8 -29l15 -22l12 -99l-8 -65l-8 -31l-21 -51l-12 -20l-19 -21l-20 -16l-23 -23l-24 -12l-25 -10l-24 -15l-27 -8l-43 -6h-57l-43 2l-29 -2l-86 2zM326 553l86 6l28 4l31 8l49 33l21 19l12 24l10 25l2 47l-2 41l-6 31 l-16 24l-19 19l-26 18l-27 10h-29l-43 4l-45 -2l-26 4h-54l-30 -12l-13 -29v-32l2 -31l-2 -25l2 -26l-2 -115l15 -25l26 -18h29zM270 96l29 4l109 2l30 2l29 11l29 4l24 18l43 37l12 29l9 26l6 43l-4 45l-6 31l-11 29l-18 26l-43 33l-27 15l-28 4l-45 2l-43 4l-29 2l-33 -2 l-31 -4l-28 -8l-15 -29v-58l2 -30l-2 -70l2 -26v-23l-2 -45l2 -29l13 -26z" />
<glyph unicode="&#x433;" horiz-adv-x="598" d="M178 -2l-24 4l-29 8l-16 21l-7 26v62l-2 24l2 88l-4 121l2 62v53l2 31l-2 28l-2 74l2 27l-2 28v31l2 25l2 77l-2 52v88l13 28l26 17h31l31 -2l24 -4l31 2l41 4h154l41 -4l28 2l41 -13l17 -28l-5 -27l-12 -29l-41 -16h-74l-43 -4h-26l-74 6l-29 -2l-26 -14l-15 -27v-205 l-2 -26v-31l2 -27l-2 -32l2 -27l-2 -27l2 -32v-31l-2 -25l2 -92l-2 -22l2 -58l-2 -26l2 -33l-2 -29l7 -57l-9 -27l-24 -10z" />
<glyph unicode="&#x434;" horiz-adv-x="890" d="M92 -256l-33 18l-16 29l-6 27l-2 26l-4 31l-13 160v26l15 29l22 14l35 7l29 20l18 25l13 24l12 29l12 24l31 115l10 58l8 86l4 28l21 324v28l4 56l18 30l43 13l70 -2l90 6l57 -6h29l33 4l39 -4l43 2l28 4l31 -21l17 -26v-29l-2 -31l4 -67l-2 -33v-29l2 -32l-2 -70v-27 l-2 -28l2 -90l-2 -27l4 -119l-2 -27l-2 -24l4 -78l-4 -74l14 -24l33 -17l28 4l31 -18l18 -37l-2 -55l-12 -123l-4 -25l-2 -28l-4 -33l-17 -25l-36 -16l-31 12l-19 27l3 33l2 88l2 22v29l-13 25l-30 18l-25 -2l-29 4h-57l-43 -6l-43 4l-55 -2l-27 -4l-27 4l-26 2l-43 -2 l-45 4l-25 -6l-31 -2l-28 6l-27 -4l-26 -10l-15 -33l2 -76l4 -63l-2 -25l-16 -31zM354 100l47 2l29 -2l43 4h88l41 15l16 37l3 75l-3 168l3 25v31l-3 41v32l3 39v43l2 31l-2 25v102l-3 27l3 28l-13 29l-30 14h-25l-29 -2l-41 4l-41 -2h-28l-29 -14l-14 -29l-2 -26l-11 -115 l-6 -119l-2 -24v-29l-18 -119l-2 -33l-37 -139l-21 -53l-12 -29v-26l23 -7h30z" />
<glyph unicode="&#x435;" horiz-adv-x="794" d="M375 -23l-29 7l-82 26l-24 19l-41 39l-49 67l-13 27l-22 53l-9 27l-2 34l-10 25l-2 31l-4 28l-4 31l-2 113l10 117l10 57l21 88l10 29l12 26l31 45l37 49l20 17l27 16l78 33l59 10l41 -2l43 -4l54 -8l77 -41l43 -45l29 -49l8 -25l8 -74l-10 -73l-6 -25l-6 -29l-14 -28 l-43 -74l-62 -59l-24 -21l-72 -43l-27 -10l-30 -10l-54 -21l-28 -6l-29 -2l-31 -8l-24 -15l-13 -28l13 -45l16 -43l43 -72l47 -33l27 -6l45 -4l43 2l28 8l31 4l25 13l37 22l36 29l29 12l25 -12l12 -25l4 -32l-14 -31l-21 -21l-24 -20l-25 -14l-29 -11l-28 -14l-55 -14 l-27 -4zM258 430l29 6l57 17l25 10l51 26l72 48l18 22l14 25l15 28l10 27l8 25l6 30l2 43l-2 41l-6 31l-37 45l-20 10l-31 13h-39l-53 -7l-43 -10l-21 -14l-18 -17l-19 -20l-16 -29l-20 -55l-25 -141l2 -58l-4 -57l16 -29z" />
<glyph unicode="&#x436;" horiz-adv-x="1130" d="M1036 -6l-30 2l-35 14l-29 29l-14 24l-10 27l-56 100l-12 25l-31 51l-12 29l-78 151l-12 23l-27 18h-28l-25 -22l-10 -41l2 -115l-2 -30l2 -27l-2 -27l-2 -184l-15 -31l-47 -10l-47 12l-14 41l-2 27l2 26l-4 103l2 29v43l2 28l-4 101l2 26l-15 29l-24 20l-27 -4l-28 -20 l-50 -88l-20 -41l-12 -23l-13 -26l-12 -23l-25 -55l-12 -21l-16 -22l-39 -78l-14 -23l-11 -28l-30 -25l-31 -12l-31 4l-29 -4l-22 12l8 37l19 39l16 25l12 32l15 23l14 20l33 54l26 53l11 26l18 27l25 49l38 62l35 65l4 39l-16 29l-21 18l-55 64l-16 22l-12 27l-19 24 l-29 50l-10 30l-12 23l-10 31l-11 22l-8 27l4 32l39 13l29 4l47 -14l20 -35l7 -27l12 -29l10 -24l12 -25l27 -57l49 -74l21 -18l18 -25l23 -16l49 -37l24 6l17 33l-2 24l-2 127l4 31l-2 59l-2 23l2 27l16 28l31 21l33 2l32 -21l15 -39v-155l-2 -33l4 -27l-2 -57l-2 -22 l14 -23l27 -2l22 18l25 17l22 18l58 66l14 22l31 54l10 28l14 27l19 51l8 31l22 28l35 17l29 -4l29 4l24 -19l6 -24l-20 -60l-25 -51l-84 -147l-18 -21l-19 -26l-39 -37l-18 -37l2 -31l74 -129l14 -22l12 -29l17 -23l14 -26l12 -25l17 -24l55 -105l16 -22l11 -31l18 -23 l12 -28v-27l-20 -8z" />
<glyph unicode="&#x437;" horiz-adv-x="649" d="M285 -20l-43 4l-31 -2l-82 24l-41 17l-39 26l-14 27l4 33l12 28l25 8l28 -2l25 -20l27 -10l100 -25l76 2l26 12l25 9l27 18l32 45l19 55l-2 86l-6 27l-9 27l-14 22l-41 41l-24 10l-25 9l-59 12h-91l-30 22l-15 31l13 33l30 12l50 4h41l30 8l51 23l23 20l20 25l13 27l6 30 l2 43l-4 47l-8 23l-17 25l-43 30l-30 8l-84 -2l-37 -6l-39 -18l-21 -19l-30 -4l-27 27l-8 47l18 31l23 16l53 21l59 18l29 4h92l31 -6l27 -8l51 -31l22 -14l23 -23l18 -20l15 -27l8 -29l6 -26l4 -92l-6 -25l-12 -31l-25 -51l-39 -37l-20 -22l-13 -23l15 -20l22 -10l45 -37 l35 -43l12 -23l17 -53l6 -29l2 -43l-2 -43l-2 -22l-17 -60l-12 -22l-35 -47l-39 -39l-26 -15l-23 -10l-53 -20l-31 -8h-69z" />
<glyph unicode="&#x438;" horiz-adv-x="856" d="M186 -6l-28 4l-29 16l-16 25l4 29l-2 30l-2 27l2 33l2 45l-2 24v217l-2 29l2 31l2 258l-2 22v33l-2 31l-2 51l-5 31l11 24l24 19l23 -2l29 2l26 -12l19 -23l6 -53l2 -31l-2 -29l2 -163l-2 -48l4 -69l-4 -78l2 -29l-4 -137v-25l-6 -59l2 -27l8 5l12 20l8 27l8 22l19 55 l29 60l14 41l14 26l23 54l12 22l14 23l13 26l10 27l14 25l84 182l10 26l17 25l10 27l10 22l13 27l30 29l33 10h51l27 -17l16 -26l-2 -29l2 -29l-2 -59l2 -29l2 -313l-4 -31v-57l2 -27l-2 -88l4 -26l-2 -27l-2 -59l4 -29v-29l2 -26l2 -33l-10 -25l-35 -12l-39 -2l-28 10 l-17 29l-2 24l-6 23v33l2 28l-2 88l2 33l-2 80l-2 31l2 26v27l-2 31l4 28l-4 23v29l2 39v45l6 53v31l2 30v27l-6 2l-16 -31l-8 -32l-11 -25l-20 -37l-41 -98l-10 -21l-13 -28l-20 -33l-27 -70l-30 -63l-23 -39l-104 -230l-13 -22l-24 -29l-35 -10z" />
<glyph unicode="&#x439;" horiz-adv-x="856" d="M481 1077l-41 2h-43l-24 4l-27 4l-29 11l-26 14l-15 27l5 32l24 23h33l27 -4l30 -8l88 -2l29 6l27 10l34 -4l25 -21l4 -34l-20 -29l-23 -10l-24 -6l-27 -5zM160 -4l-29 16l-14 27l-2 258l2 27v45l-2 30l2 72l-2 29l2 28l-2 56l2 32l-2 84v58l2 26l-4 115l-7 27l11 32 l22 17l27 -6l24 4l31 -17l19 -24l2 -29v-49l4 -29l2 -34l-2 -25l2 -211l-2 -27v-159l-4 -39l2 -29l-6 -111h8l20 50l13 28l24 76l19 35l14 41l53 102l8 25l15 24l12 29l12 23l13 28l10 27l12 18l25 56l14 22l22 57l15 27l10 21l21 34l32 43l29 11l29 6l26 -4l31 -19l12 -22 l2 -29l-2 -178l2 -27l-2 -51l2 -63l-4 -25l4 -33v-30l-4 -25l4 -31v-59l-2 -27l2 -86l-2 -26l2 -170l4 -31l-8 -27l-22 -10l-27 -4h-27l-26 16l-17 19l-4 26l-2 58l-4 26v33l2 33l-4 31l2 26l2 88l-2 23l8 389l-4 2l-12 -33l-57 -137l-17 -23l-22 -55l-27 -49l-12 -25 l-21 -53l-12 -24l-27 -50l-10 -26l-14 -27l-8 -26l-25 -45l-10 -31l-17 -27l-47 -102l-24 -23l-37 -14h-51z" />
<glyph unicode="&#x43a;" horiz-adv-x="817" d="M156 -2l-25 14l-14 33l-4 41l2 88l2 25l-2 30l2 158l-4 39l4 131l-2 27l2 30l-4 88l4 89l-4 106l-4 33l8 26l24 11l27 6h27l28 -17l15 -20l6 -51v-183l4 -40l-2 -41l14 -27h27l26 10l47 29l48 33l38 39l52 73l12 23l16 24l11 29l14 23l8 28l8 27l25 24l35 17l28 -2l29 4 l25 -19l4 -26l-33 -78l-10 -27l-15 -22l-12 -25l-16 -22l-13 -27l-16 -20l-14 -23l-19 -24l-59 -56l-21 -22l-14 -33l4 -29l17 -28l22 -31l23 -37l14 -25l12 -26l15 -25l16 -22l29 -52l16 -22l45 -74l14 -20l29 -51l45 -74v-25l-20 -12h-31l-33 4l-39 10l-31 21l-16 22 l-29 60l-30 43l-15 30l-30 45l-31 54l-59 94l-46 78l-30 20l-39 -2l-31 -16l-16 -35l2 -88l-2 -35l2 -29v-28l-4 -27l4 -33v-26l-4 -43l4 -74l-12 -33l-27 -10l-29 -2h-24z" />
<glyph unicode="&#x43b;" horiz-adv-x="843" d="M78 -4l-29 20l-12 25v29l20 26l39 39l21 27l14 20l12 23l15 31l32 108l5 31v28l4 31l6 29l4 90v29l10 104v43l2 31l4 24v31l4 84l4 31l17 24l41 15l28 2l183 -2l24 4h29l31 2l28 -6l29 4l39 -2l43 -15l14 -32l2 -27l-2 -43l2 -70l-2 -24l-2 -74l4 -47l-4 -254l4 -29v-26 l-2 -60l2 -43l-2 -28l2 -39l-4 -29l4 -33v-43l-14 -43l-25 -16l-26 4l-27 -2l-26 18l-13 25l-2 27l-2 63l2 27l-2 69l4 76l-2 27l-2 157l2 27v33l-2 31l4 114l-2 29v90l-16 41l-25 16h-43l-43 -4l-26 4h-29l-31 -2l-24 -14l-19 -31l-2 -28l-2 -27l-2 -25l-4 -30v-29 l-10 -147l-4 -25l-2 -61l-9 -29v-33l-4 -29l-8 -24l-4 -31l-20 -84l-21 -55l-31 -51l-12 -27l-39 -41l-59 -39z" />
<glyph unicode="&#x43c;" horiz-adv-x="1021" d="M190 -4l-26 2h-27l-24 16l-15 25l4 33l-2 86v55l2 25v34l-2 25l2 33l-2 24l2 29l-2 72l2 28v60l-2 24v43l2 31l-2 31v41l-2 30l4 74l-2 115l13 29l30 14l25 -6l51 2l29 -2l31 -13l20 -28l29 -74l41 -137l12 -23l16 -57l9 -21l6 -30l10 -25l8 -31l19 -53l6 -26l12 -41 l12 -43l4 -29l11 -29l2 -28h8l10 26l25 105l22 67l6 29l31 86l16 59l37 111l11 20l22 90l21 58l20 24l31 15l53 4l27 -4l26 4l27 -17l16 -28l-4 -29l4 -29v-30l-2 -27v-143l2 -31l-2 -70l2 -28l-2 -29v-31l2 -32l-2 -43v-41l-2 -60l2 -43l2 -31l-2 -51l2 -28l2 -113l-8 -31 l-20 -10l-25 2l-27 -6l-28 12l-17 25l-4 28l-4 56l4 30l-2 224l-2 43v32l2 25l-4 31l4 33l-2 26l4 101l2 26v31l4 41l-2 53h-4l-8 -27l-10 -26l-60 -191l-6 -30l-12 -23l-6 -29l-10 -26l-25 -84l-10 -27l-35 -104l-6 -29l-17 -53l-24 -25l-47 -18l-45 16l-23 25l-8 31 l-12 22l-6 29l-13 24l-6 33l-61 186l-17 56l-18 49l-39 137l-8 27l-6 32l-11 27l-8 -2l-2 -29l2 -30v-29l4 -23l-2 -30l4 -31l4 -158l-2 -41v-61l2 -27v-84l-2 -30l2 -115l-2 -27v-28l2 -29l-14 -27z" />
<glyph unicode="&#x43d;" horiz-adv-x="851" d="M197 -2l-43 2l-27 10l-10 35l-2 27v43l-2 24l4 49l-2 254l2 33l-2 27v86l2 26v43l-4 43v31l4 31l-2 29v81l-6 31v25l10 26l20 17l27 4l29 -2l28 -12l19 -29l4 -86l-2 -31v-29l4 -43l-2 -137l16 -33l41 -12l49 -2l31 2h86l43 -6l31 2l43 14l16 31l2 27l-4 63l2 27l2 31 l-2 32v115l2 31l12 28l39 15l41 2l25 -21l12 -28v-101l2 -26l-2 -29v-96l2 -31l-2 -29l2 -30l-2 -199l2 -27l-2 -94l-2 -26l4 -27v-23l-2 -32l6 -82v-31l-6 -27l-22 -16l-27 4h-27l-30 6l-15 21l-4 59l-4 31l2 57l-4 29v26l2 35v148l-14 30l-31 15l-29 2l-47 -4l-133 2 l-28 -4l-31 2l-29 -19l-16 -26v-56l2 -28l-4 -41l4 -103l-2 -28v-29l2 -39v-33l-12 -41z" />
<glyph unicode="&#x43e;" horiz-adv-x="851" d="M381 -20l-29 6l-26 2l-50 24l-24 17l-27 14l-37 39l-16 22l-31 56l-20 49l-15 53l-16 88l-6 62v116l6 60l4 55l4 31l23 84l12 20l23 58l16 26l35 43l24 23l21 14l35 19l41 16l41 10l57 2h43l29 -4l55 -18l22 -11l23 -14l43 -35l35 -45l29 -51l10 -29l12 -22l6 -29l10 -31 l5 -24l6 -31l4 -59l8 -58l-4 -84l2 -34l-2 -29l-14 -88l-5 -23l-26 -82l-12 -30l-15 -21l-12 -31l-16 -20l-23 -20l-21 -21l-22 -18l-47 -29l-53 -12l-31 -6h-84zM381 90l86 2l27 10l24 9l25 16l18 23l19 28l12 27l10 26l8 29l6 29l2 26l7 35l4 27l2 31l-2 32v47l4 37l-6 84 l-9 58l-8 28l-4 27l-20 53l-13 27l-16 20l-20 23l-48 28l-26 5l-39 2l-43 -5l-51 -14l-27 -26l-27 -35l-26 -45l-4 -29l-10 -29l-11 -55l-2 -31l-4 -24l-4 -62l4 -86v-57l2 -33l4 -26l23 -89l10 -30l10 -21l17 -24l18 -25l25 -20l22 -13z" />
<glyph unicode="&#x43f;" horiz-adv-x="837" d="M137 0l-24 12l-13 45l-2 29l4 43l-2 174l2 43l-2 27l2 112l-2 31v168l-2 29l4 41l-2 106l2 23v47l11 28l32 13l27 2l29 -4l26 2l41 -2l41 4l226 -2l28 -2l29 4l84 2l29 -21l16 -28l-4 -68l4 -74v-260l-4 -28l4 -27l-2 -31v-172l2 -26l-2 -90l2 -27v-27l4 -28v-33l-8 -27 l-35 -8l-41 2l-29 10l-18 19l-4 55v57l-2 33l2 29l-2 28l2 345l-2 67l2 29l-2 28l2 31l-2 60l2 32l-17 25l-47 16l-57 -2l-57 2h-47l-31 2l-41 -2l-47 -16l-15 -41l-2 -88l4 -74l-2 -82l2 -33l-2 -221l2 -24l-4 -88l2 -27l-2 -115l-12 -45l-37 -12h-43z" />
<glyph unicode="&#x440;" horiz-adv-x="890" d="M184 -512l-28 12l-17 23l-6 53v27l-2 32l2 27l-2 29l2 30l-2 33l-2 90l2 25l-2 256l2 29l2 26l-4 33v84l2 31l2 24l-2 29l-2 31v26l4 33l-4 127l2 25v49l-2 26v146l-6 84l10 33l25 12l30 -2l37 -10l23 -25l6 -31l10 -20l23 8l24 14l25 21l24 14l105 43l45 2l29 4h43 l57 -14l25 -10l43 -33l18 -16l14 -29l13 -21l10 -30l8 -23l10 -33l11 -57l10 -92l2 -55l2 -29v-86l-4 -33l-2 -27l-13 -92l-12 -53l-31 -86l-28 -49l-19 -27l-30 -33l-29 -28l-29 -17l-24 -10l-23 -12l-41 -12l-104 -7l-27 7l-90 28l-27 -2l-12 -22v-60l-2 -32l2 -27v-72 l-2 -43l4 -28l-2 -111l8 -90l-10 -27l-25 -8zM401 86h29l39 4l43 8l25 11l22 14l23 20l18 21l29 47l20 53l13 62l8 118v144l-4 53v29l-7 28l-2 25l-14 59l-27 49l-16 23l-22 14l-70 9h-43l-27 -5l-28 -10l-54 -24l-22 -15l-45 -43l-21 -35l-8 -43v-362l2 -31v-30l-4 -39 l2 -47l12 -52l23 -24l24 -15l27 -8l27 -4z" />
<glyph unicode="&#x441;" d="M469 -20l-86 2l-59 6l-54 18l-24 14l-43 39l-21 15l-16 24l-27 52l-10 24l-18 62l-9 24l-16 150l-2 73l4 45l-2 27l8 88l8 27l2 28l9 31l10 25l8 28l10 29l15 18l14 29l20 21l17 26l20 19l23 16l24 14l82 29l27 4l45 4l41 -2l61 -14l76 -33l27 -20l18 -17l17 -33l-6 -34 l-13 -23l-26 -12l-29 10l-45 33l-27 16l-24 8l-72 9l-43 -5l-25 -6l-26 -10l-21 -16l-18 -23l-17 -22l-14 -23l-10 -24l-6 -27l-10 -25l-9 -61l-4 -23l-4 -28v-31l-2 -29l2 -47v-67l10 -115l7 -25l4 -28l12 -23l22 -55l17 -23l18 -20l62 -31l53 -4l43 4l55 10l29 9l35 26 l32 29l29 8l25 -14l12 -21l8 -28l-14 -39l-25 -21l-22 -12l-49 -31l-27 -6l-29 -14l-26 -6z" />
<glyph unicode="&#x442;" horiz-adv-x="643" d="M307 -4l-26 16l-19 19l-4 86l-2 28v58l-2 28l2 35l-2 45v86l-2 31l4 72l-2 26l-2 45l4 50v81l-4 29l2 76l-12 45l-33 12l-29 4l-28 -2l-29 2h-33l-27 -4l-30 15l-13 22l-2 27l15 26l26 19h33l41 -4l86 6l74 -2l26 2l31 -6l27 2h29l26 2l33 -4l29 2l28 -2l43 2l41 -10 l17 -29l-2 -29l-13 -26l-30 -13l-89 4l-32 -2h-29l-27 -16l-16 -27l2 -73l-2 -105l2 -33l-2 -348l2 -24l-2 -31l-2 -29l4 -28l-2 -56l4 -57l-8 -33l-21 -10h-53z" />
<glyph unicode="&#x443;" d="M180 -520l-33 2l-24 16l-17 29v35l15 30l24 21l54 59l12 31l14 23l43 106l8 29l11 24l6 33l10 27v47l-14 82l-29 94l-8 25l-6 30l-19 56l-10 20l-12 55l-10 29l-11 27l-4 26l-16 56l-12 26l-13 55l-12 33l-6 21l-8 26l-7 31l-10 29l-6 26l-12 27l-29 106l-10 27l-6 31 l4 28l22 9l45 4l46 -10l22 -29l25 -86l6 -29l10 -26l20 -82l13 -27l4 -27l14 -43l10 -43l9 -28l6 -25l10 -27l8 -30l8 -27l7 -29l14 -38l26 -101l7 -31l10 -30l8 2l10 31l66 278l6 33l16 55l4 29l37 131l6 29l17 53l4 30l8 29l6 23l25 30l26 15h46l36 -13l7 -28l-17 -53 l-6 -31l-8 -25l-6 -26l-11 -31l-6 -31l-14 -49l-10 -29l-15 -55l-8 -25l-12 -61l-12 -25l-15 -53l-10 -55l-20 -53l-5 -29l-8 -29l-10 -26l-4 -29l-10 -25l-6 -26l-9 -29l-8 -31l-18 -63l-13 -57l-16 -43l-6 -27l-8 -23l-6 -28l-11 -31l-6 -29l-10 -24l-8 -27l-10 -26 l-25 -52l-12 -24l-13 -29l-67 -88l-21 -18l-22 -15z" />
<glyph unicode="&#x444;" horiz-adv-x="1163" d="M578 -516l-33 16l-23 21l-8 170l4 108l-4 41l2 31l-2 61l-12 31l-27 19l-61 -2l-27 10l-29 6l-26 8l-49 19l-27 16l-23 18l-18 21l-20 18l-17 21l-18 18l-17 31l-8 22l-10 31l-12 25l-4 22l-11 31l-6 57l-6 27l-2 29l-2 32l2 80v33l10 86l8 27l2 32l11 23l8 29l10 26 l12 27l31 47l19 20l18 23l25 18l43 31l26 10l27 7l28 14l27 8l55 4l27 4l31 13l14 26l-2 275l-4 55l-2 31l14 26l27 15l33 4l32 -19l21 -22l2 -25l4 -29l-2 -28l4 -88l-2 -62l4 -80l-4 -24l2 -31l14 -24l29 -13l27 -4l28 -2l27 -8l29 -4l26 -10l27 -7l24 -16l25 -12l45 -33 l39 -41l14 -27l13 -20l12 -29l12 -24l10 -27l13 -59l8 -25l4 -29v-30l4 -25l-2 -149l-12 -113l-12 -49l-11 -31l-12 -29l-12 -26l-29 -49l-39 -39l-22 -19l-43 -32l-27 -7l-31 -12l-80 -18l-28 -4h-29l-29 -21l-14 -24l2 -37l-2 -27v-72l2 -45v-116l2 -29v-27l4 -55l-14 -31 l-25 -12zM444 88h29l25 14l16 23v72l2 30v146l-2 24v31l2 29l-2 26l2 39v29l2 86l-4 135l2 27l-2 30l-14 39l-27 15l-59 -15l-27 -2l-27 -10l-49 -37l-37 -41l-16 -22l-18 -51l-15 -58l-4 -33l-2 -26l-4 -27l-2 -125l4 -26v-29l6 -33l8 -53l7 -29l10 -28l12 -25l14 -25 l39 -45l23 -16l53 -25l27 -8zM686 90h59l29 12l27 9l47 32l18 21l31 43l10 26l8 29l9 31l8 26l4 31l6 90l-2 41l4 47l-4 33v29l-6 22l-2 31l-6 27l-11 30l-6 31l-12 27l-16 20l-17 25l-18 18l-25 19l-22 14l-27 14l-29 6l-30 3l-29 4l-29 -13l-14 -26l4 -72l-2 -31v-41 l-2 -28l2 -56l-2 -26l2 -35l-2 -209l2 -47l-2 -72l2 -30l-2 -37l4 -29l12 -29z" />
<glyph unicode="&#x445;" horiz-adv-x="827" d="M90 -4l-20 14l4 37l37 68l12 30l24 52l17 22l24 51l15 25l10 31l14 26l17 21l24 57l29 51l8 39l-14 47l-33 66l-16 22l-13 31l-14 21l-14 22l-78 156l-14 24l-15 27v20l25 17l59 -4l39 -13l27 -22l18 -41l21 -35l16 -22l88 -183l8 -18l13 -25l14 -4l59 129l39 70l12 31 l15 22l10 27l14 20l13 29l28 24l52 13h45l22 -13l4 -24l-162 -295l-18 -39l-16 -25l-11 -26l-8 -39l4 -35l15 -22l12 -29l31 -51l24 -51l15 -23l20 -45l21 -37l22 -49l16 -25l13 -28l16 -23l12 -24l13 -33l-2 -25l-23 -8l-29 -4l-26 4l-35 10l-29 21l-12 26l-14 25l-13 27 l-14 24l-14 23l-13 26l-79 146l-11 28l-10 21l-18 24l-21 -16l-24 -41l-13 -31l-22 -36l-19 -41l-41 -74l-18 -39l-23 -39l-12 -25l-14 -24l-25 -25l-35 -12l-30 -2z" />
<glyph unicode="&#x446;" horiz-adv-x="886" d="M782 -252l-32 12l-15 31l2 80l-2 27l4 57l-14 27l-29 12l-28 2l-29 6l-31 -2l-24 -4l-27 2l-47 -2l-55 6l-43 -2l-29 -4l-27 2l-26 -2l-33 4l-25 -2l-28 4l-29 -6l-31 2h-28l-29 12l-10 45l-4 158l2 27v61l-2 29l2 28v31l-2 31l2 82l-2 28l2 31l2 199l-4 26l-2 25l2 61 l-7 60l11 24l24 17l39 2l39 -19l21 -18l4 -55v-29l-2 -29l4 -65v-29l2 -26l-4 -279l2 -33l-2 -43l4 -47l-2 -24l2 -33l-4 -43l2 -25l-2 -33l14 -30l33 -13l28 4h29l31 -2l45 -6l59 4h76l27 15l16 43l-2 47l2 26l-2 43l2 31l-2 43l2 29l2 70l-2 28l-2 131l2 33l-2 41v25l2 45 l-2 59l2 31v84l14 30l27 15l25 2h26l25 -19l14 -26v-107l2 -24l-4 -47v-82l4 -45l-4 -146l2 -24l2 -76l-4 -31l2 -24l-2 -31l2 -29l-2 -59l2 -29l-2 -29l19 -30l26 -13h31l31 -12l14 -29l2 -63l-4 -41l-4 -25l-4 -28v-27l-4 -31l-4 -55l-17 -29z" />
<glyph unicode="&#x447;" horiz-adv-x="770" d="M625 -2l-52 2l-24 8l-12 33l-2 27l2 28l-2 33l2 23v43l-5 71l5 31v27l-2 26l2 29l-11 22l-22 -6l-27 -16l-26 -14l-25 -19l-88 -18l-43 -2l-43 2l-55 12l-29 12l-25 15l-20 18l-35 45l-10 23l-10 32l-13 54l-4 247l2 27l-6 86v33l8 26l23 15l28 -2h25l31 -13l16 -26v-29 l4 -29l-2 -26l4 -33l2 -219l9 -59l8 -31l14 -21l19 -26l24 -10l29 -11l39 -2l73 15l27 6l23 12l26 18l25 13l22 39l11 39v176l2 30v23l-2 35l2 84l12 32l24 13h52l28 -10l13 -48l2 -69l-2 -29l2 -74l-2 -69v-60l2 -43v-47l-4 -37l4 -45v-26l-2 -29l2 -33l-2 -84l2 -28v-29 l-4 -23l4 -73v-56l-17 -49z" />
<glyph unicode="&#x448;" horiz-adv-x="1271" d="M170 -6l-41 16l-16 33l4 25l-4 176v28l4 27l-4 29l2 45l-2 28v297l2 29l-2 33l2 24l-4 33l4 25v32l-4 29l-5 27l11 24l22 17l27 -4l24 2l29 -11l19 -20l4 -33l2 -80l2 -32v-29l-2 -33l2 -141l-2 -49l2 -43v-138l2 -24l-2 -107l-2 -24v-62l16 -24l29 -17h24l41 2l82 -6 l45 6l54 -2l28 11l10 28v29l2 33l-2 30v115l5 27l-5 31v30l5 117l-5 25v28l2 60l-2 45l2 43l-2 129l2 24l11 49l26 13h41l39 -17l15 -26v-27l-2 -33l2 -24l-2 -31l2 -27v-73l2 -29l-2 -43l-2 -35l2 -100l2 -27l-4 -45l2 -26l-2 -62l2 -29l-2 -143l4 -27l12 -32l27 -13h55 l26 4l43 -4l37 2l29 -4l29 6l28 -2l27 17l12 28v25l2 29v26l-2 47l2 45l-2 27l2 27l-2 264l2 31l-2 28v230l15 28l26 15l51 -2l29 -15l12 -24l-2 -31l4 -469l-2 -33l2 -24l-4 -105l2 -41l-2 -71l2 -33v-27l-2 -26l4 -25l-16 -33l-41 -14l-45 -2l-57 6l-29 -2h-53l-86 -2 l-29 4h-57l-29 -4l-57 -2l-60 4l-26 -2l-41 2l-45 4l-27 -6h-57l-31 4l-53 -2l-31 2h-27l-43 -6l-30 4z" />
<glyph unicode="&#x449;" horiz-adv-x="1320" d="M1214 -248l-30 10l-15 25v90l2 25v53l-14 31l-29 12l-28 2l-25 -4l-31 2l-28 -2l-31 4l-27 -4h-188l-27 4l-43 -2l-28 2l-27 -4h-57l-29 2l-88 -2l-27 4h-86l-73 -6l-29 2l-70 2l-28 4l-31 14l-14 43v29l2 29l-2 241l4 27v33l-4 74v57l4 43l-2 26l2 37v47l-2 29v84l-2 86 l-4 27l10 28l20 13l27 4h29l24 -10l19 -25l2 -31l4 -84l4 -28v-177l-2 -28l2 -31l-2 -92l2 -27l-2 -57l2 -29l-2 -30v-33l2 -29l-2 -24l2 -33l-2 -27l2 -37l10 -22l27 -17l112 2l29 -2l27 2l41 -2l41 4l28 9l12 32l3 43l-3 332l3 33l-3 27l3 26l-3 74l-2 25l5 45l-3 30v144 l15 32l26 15l50 2l28 -21l13 -30l2 -346l-4 -39l2 -27v-47l2 -33v-53l-4 -45l2 -25v-147l16 -45l25 -11l28 -6l29 4h51l31 -2l26 2h27l27 -2l28 2l27 15l14 26v295l2 37l-2 43v86l2 33v29l-4 41v61l2 27v71l2 43l15 43l22 17l25 2l28 -6l25 -11l12 -26l2 -121l2 -27l-2 -24 v-35l2 -29l-2 -26v-64l2 -26v-228l-4 -28l4 -60l-4 -47l4 -41l-2 -27l15 -30l30 -15h31l31 -12l14 -29l2 -24l-20 -248l-21 -27z" />
<glyph unicode="&#x44a;" horiz-adv-x="862" d="M412 -6l-29 6l-88 -2h-59l-29 18l-17 29l3 29v22l-3 31l5 72v28l-5 49v31l3 23l2 59l-5 31v33l3 24v88l-3 29l3 24v91l2 59l-5 27l3 28l-15 29l-28 20l-31 -4l-43 2l-45 13l-13 24l-2 23l15 24l30 17l25 2l29 -2l26 2l27 -4l31 2h26l29 2h27l26 -17l15 -30l2 -27l-2 -29 l2 -116l-2 -86l12 -31l28 -12l33 2l99 -4l71 2l27 -9l29 -8l26 -4l31 -8l24 -18l27 -11l21 -16l18 -21l16 -24l29 -51l6 -25l2 -31l6 -28l2 -41l-2 -47l-4 -23l-12 -55l-10 -29l-15 -22l-10 -27l-18 -23l-19 -20l-22 -14l-23 -21l-24 -12l-29 -6l-27 -13l-55 -14l-29 -4 l-30 -2l-43 2zM430 98l27 4l75 9l25 6l31 12l22 12l25 19l18 16l27 51l8 33l4 27l2 43l-2 47l-16 53l-14 23l-21 22l-27 17l-26 10l-76 12l-125 4l-25 -2l-28 -14l-8 -41l-4 -96l2 -31l-2 -27l2 -28v-27l-2 -31l4 -69l12 -35l37 -17z" />
<glyph unicode="&#x44b;" horiz-adv-x="1114" d="M188 -4l-28 4l-31 12l-12 29v31l-2 24v90l2 43l-2 29l2 39l-2 31l2 26l-4 47l4 39l-2 119l2 29l-4 26v43l4 45l-4 84v31l4 27l-2 26l-6 29l-3 31l13 26l22 17l23 2l26 -2l29 -17l21 -20l6 -111v-32l2 -33l-4 -58l4 -34l14 -33l27 -10h28l27 2l72 -2l131 -15l53 -16 l25 -16l24 -11l43 -39l19 -20l14 -29l10 -24l6 -25l11 -59l2 -45l-6 -66l-7 -31l-8 -28l-22 -51l-19 -35l-30 -31l-21 -16l-47 -33l-25 -6l-28 -13l-27 -4l-29 -6l-30 -2l-31 -4l-43 -2l-102 4l-60 -6h-31zM872 33v24l-8 148l2 28l2 164l-2 29l2 31v26l-2 33l2 31l-2 26v43 l-2 41l2 41l-2 29l2 29l-2 61l2 29l-4 26l-2 56l6 30l25 11l41 -2l41 -13l14 -22l6 -55l2 -33l2 -31l2 -33l-2 -26l2 -107l-4 -74l2 -104l-2 -35l2 -225l-2 -29l4 -28l-2 -23v-29l4 -59l-6 -31l-34 -10l-43 -2l-29 12zM311 96l43 6l43 -2l27 2l86 23l25 18l26 15l19 22 l12 23l22 51l4 31l-2 88l-10 30l-10 27l-14 27l-19 18l-22 19l-31 10l-86 12l-43 2l-94 -2l-27 -12l-12 -29l-4 -100l4 -39v-43l-2 -27l2 -28l-2 -27v-59l12 -35l27 -19z" />
<glyph unicode="&#x44c;" horiz-adv-x="784" d="M188 -4l-28 4l-31 12l-12 29v31l-2 24v90l2 43l-2 29l2 39l-2 31l2 26l-4 47l4 39l-2 119l2 29l-4 26v43l4 45l-4 84v31l4 27l-2 26l-6 29l-3 31l13 26l22 17l23 2l26 -2l29 -17l21 -20l6 -111v-32l2 -33l-4 -58l4 -34l14 -33l27 -10h28l27 2l72 -2l131 -15l53 -16 l25 -16l24 -11l43 -39l19 -20l14 -29l10 -24l6 -25l11 -59l2 -45l-6 -66l-7 -31l-8 -28l-22 -51l-19 -35l-30 -31l-21 -16l-47 -33l-25 -6l-28 -13l-27 -4l-29 -6l-30 -2l-31 -4l-43 -2l-102 4l-60 -6h-31zM311 96l43 6l43 -2l27 2l86 23l25 18l26 15l19 22l12 23l22 51 l4 31l-2 88l-10 30l-10 27l-14 27l-19 18l-22 19l-31 10l-86 12l-43 2l-94 -2l-27 -12l-12 -29l-4 -100l4 -39v-43l-2 -27l2 -28l-2 -27v-59l12 -35l27 -19z" />
<glyph unicode="&#x44d;" d="M330 -20l-41 2l-29 4l-57 12l-27 14l-41 19l-33 26l-22 21l-14 31l4 36l14 19l27 14l28 -8l45 -39l49 -20l27 -11l31 -8l41 -4l43 8l26 8l27 7l23 18l18 18l31 52l24 80l2 30l9 27l2 31v28l-15 27l-24 14l-31 4l-57 2l-29 -2l-29 2l-114 -4l-27 4l-31 11l-10 24l-2 27 l14 22l27 15l45 4h43l57 -4l29 2l25 -2l32 4l27 2l27 -4l28 12l15 29l-2 26l-5 31l-2 31l-12 51l-22 57l-13 25l-37 41l-45 24l-26 7l-82 4l-33 -7l-27 -10l-24 -14l-23 -19l-18 -16l-29 -6l-28 6l-17 25l-2 37l12 28l23 19l25 20l22 12l86 33l27 -2l45 2l69 -2l58 -16 l26 -13l25 -12l45 -37l18 -16l17 -27l16 -22l12 -23l13 -33l8 -28l8 -27l6 -26l4 -29l9 -31l10 -119l-2 -88l-13 -141l-22 -90l-19 -51l-47 -76l-18 -23l-21 -14l-24 -16l-21 -19l-55 -20l-29 -6z" />
<glyph unicode="&#x44e;" horiz-adv-x="1193" d="M811 -23l-43 3l-45 4l-53 6l-29 10l-23 12l-22 17l-21 10l-22 20l-39 43l-12 25l-15 25l-10 24l-10 29l-10 22l-6 27l-2 29l-13 61l-2 29l-4 28v31l-16 25l-45 14l-47 2l-31 -2l-33 -12l-14 -27l2 -43l-4 -166l4 -43l-2 -26l2 -72l-2 -41l-13 -25l-26 -16l-51 -4l-27 16 l-14 29l-2 31l4 24l-4 119l4 29l-4 86l4 26l-2 90l2 29l-2 84l2 33l-2 139l-2 27l2 30l-2 58l2 24l-2 33l-5 27l9 26l24 13l23 2l28 -2l31 -11l17 -18l4 -61v-27l2 -29l2 -30l-2 -29v-29l-2 -30l4 -91l10 -24l29 -12l55 -3l37 -6l43 17l16 35l21 112l18 51l14 25l13 31 l12 22l16 25l64 55l22 14l52 25l30 6l29 -2l41 2l41 -2h31l26 -4l27 -8l25 -19l26 -12l23 -14l20 -19l45 -69l25 -56l10 -24l10 -27l8 -28l5 -29l2 -31l6 -33v-24l6 -31l2 -72l-4 -49l2 -24l-2 -31l-2 -27l-8 -28l-2 -29l-7 -27l-8 -26l-6 -33l-8 -29l-12 -22l-15 -23 l-14 -31l-19 -18l-16 -20l-22 -23l-21 -16l-27 -15l-22 -16l-27 -8l-28 -2zM739 90l25 2l57 6l39 15l23 10l35 45l14 22l10 29l21 82l8 113l4 24v43l-2 47v29l-6 82l-6 27l-5 24l-6 35l-6 27l-14 24l-12 27l-17 20l-20 17l-21 18l-22 12l-27 7l-88 -3l-27 -4l-22 -12 l-43 -31l-43 -71l-8 -31l-7 -29l-4 -24l-10 -60l-6 -82l2 -47v-67l10 -117l6 -27l11 -30l18 -52l14 -22l17 -21l20 -20l47 -29z" />
<glyph unicode="&#x44f;" horiz-adv-x="804" d="M94 -4l-22 14l2 23l14 24l12 31l15 23l14 26l16 21l33 65l23 35l14 21l27 57l18 20l2 33l-20 21l-27 10l-25 12l-32 25l-31 26l-16 27l-15 20l-10 25l-20 82v43l2 45l8 55l10 31l8 29l12 22l17 25l43 39l51 28l23 15l30 6l29 10l27 6h45l32 2l41 -6h27l29 -4h30l31 -8 l25 -4l30 -8l31 -7l25 -22l14 -31l2 -31l-2 -30l2 -41l-2 -31v-68l4 -32l-4 -58l2 -28v-375l-2 -31l4 -26l-2 -25l6 -61l-2 -29l-8 -29l-22 -12l-27 2l-27 -2l-24 12l-21 23l-2 30l-6 82l2 64l-2 26v78l4 41l-16 25l-29 12h-31l-28 -2l-35 -12l-27 -29l-16 -20l-17 -33 l-24 -39l-14 -29l-39 -69l-25 -52l-16 -20l-27 -53l-31 -21l-32 -14h-58zM389 481l107 2l45 19l16 45v112l-2 29l4 82l-4 47l-14 35l-29 16l-92 11h-45l-68 -7l-24 -14l-25 -18l-18 -19l-15 -20l-12 -27l-6 -22l-8 -33l2 -84l6 -29l26 -53l19 -23l51 -30l59 -17z" />
<glyph unicode="&#x451;" horiz-adv-x="794" d="M541 1126l-47 9l-17 20l-10 41l8 41l23 20l41 15l45 -8l18 -25l8 -43l-6 -49l-26 -17zM299 1130l-43 11l-23 12l-6 45l6 37l23 18l45 17l39 -4l20 -27l9 -39l-13 -45l-18 -16zM375 -23l-29 7l-82 26l-24 19l-41 39l-49 67l-13 27l-22 53l-9 27l-2 34l-10 25l-2 31l-4 28 l-4 31l-2 113l10 117l10 57l21 88l10 29l12 26l31 45l37 49l20 17l27 16l78 33l59 10l41 -2l43 -4l54 -8l77 -41l43 -45l29 -49l8 -25l8 -74l-10 -73l-6 -25l-6 -29l-14 -28l-43 -74l-62 -59l-24 -21l-72 -43l-27 -10l-30 -10l-54 -21l-28 -6l-29 -2l-31 -8l-24 -15l-13 -28 l13 -45l16 -43l43 -72l47 -33l27 -6l45 -4l43 2l28 8l31 4l25 13l37 22l36 29l29 12l25 -12l12 -25l4 -32l-14 -31l-21 -21l-24 -20l-25 -14l-29 -11l-28 -14l-55 -14l-27 -4zM258 430l29 6l57 17l25 10l51 26l72 48l18 22l14 25l15 28l10 27l8 25l6 30l2 43l-2 41l-6 31 l-37 45l-20 10l-31 13h-39l-53 -7l-43 -10l-21 -14l-18 -17l-19 -20l-16 -29l-20 -55l-25 -141l2 -58l-4 -57l16 -29z" />
<glyph unicode="&#x452;" horiz-adv-x="843" d="M498 -526l-29 6l-25 26l-2 31l9 29l24 24l25 13l22 14l23 21l14 20l16 29l9 26l10 27l6 29l2 32v25l4 31l4 133l-4 43l2 26l-2 121l2 23l2 104l-4 72l2 55v27l-2 28l2 48l-2 28v213l-6 27l-8 26l-17 19l-20 16l-27 11l-41 4h-41l-28 -13l-31 -8l-27 -12l-20 -17l-25 -14 l-22 -20l-23 -33l-6 -43l-2 -29l2 -43l-2 -26l4 -103l-4 -110l2 -27l-2 -61l2 -27l-2 -57l2 -140l-2 -30v-31l-12 -23l-23 -18l-28 -2l-27 2l-27 12l-12 33v145l4 43v185l-4 28l2 27l-2 29l2 202l-2 27v313l4 35l-4 27l-12 28l-88 33l-17 27l15 24l30 19l29 -2l31 12l12 27 v33l-2 28v27l-6 31l8 30l23 11h30l25 4l29 -13l18 -30v-25l4 -90l17 -29l28 -16l62 -2l43 4h73l27 -16l18 -27l-16 -35l-29 -12l-32 4l-41 2l-45 -6l-27 2l-31 -2l-28 -15l-15 -45l-2 -30v-29l2 -29l-2 -28l2 -33l8 -33l21 2l27 19l26 14l25 18l41 13l43 14l67 6h43l31 -8 l27 -6l49 -33l33 -43l12 -25l18 -84l2 -47l-2 -55l2 -41l-2 -27l2 -26l-2 -29l4 -74l-4 -40l2 -125l2 -31v-31l-2 -24l2 -31l-2 -43l-2 -27l2 -57l-2 -68l2 -116l-4 -74v-29l-14 -82l-8 -26l-13 -31l-8 -27l-45 -73l-18 -23l-25 -12l-24 -21z" />
<glyph unicode="&#x453;" horiz-adv-x="598" d="M319 1083l-26 15v26l26 54l17 26l12 27l35 24l37 19h35l16 -21v-24l-18 -27l-21 -28l-16 -21l-19 -27l-35 -32zM178 -2l-24 4l-29 8l-16 21l-7 26v62l-2 24l2 88l-4 121l2 62v53l2 31l-2 28l-2 74l2 27l-2 28v31l2 25l2 77l-2 52v88l13 28l26 17h31l31 -2l24 -4l31 2 l41 4h154l41 -4l28 2l41 -13l17 -28l-5 -27l-12 -29l-41 -16h-74l-43 -4h-26l-74 6l-29 -2l-26 -14l-15 -27v-205l-2 -26v-31l2 -27l-2 -32l2 -27l-2 -27l2 -32v-31l-2 -25l2 -92l-2 -22l2 -58l-2 -26l2 -33l-2 -29l7 -57l-9 -27l-24 -10z" />
<glyph unicode="&#x454;" d="M383 -18l-57 8l-27 10l-25 12l-24 11l-25 20l-20 20l-19 17l-16 24l-27 52l-12 26l-10 27l-10 24l-19 119v29l-6 31l-2 28l2 119v29l8 55l2 33l8 24l5 29l18 59l41 80l16 19l41 43l25 18l37 19l41 14l28 2l27 6l45 6l45 -2l27 -6l26 -10l29 -6l55 -33l45 -37l13 -29 l-6 -28l-15 -23l-24 -16l-29 6l-23 25l-20 14l-27 14l-26 10l-29 7l-88 -4l-23 -9l-26 -6l-21 -16l-22 -25l-15 -18l-12 -21l-24 -86l-13 -57l-2 -27l-2 -28l10 -31l43 -16h27l31 4h43l31 -2l28 2l25 -2l90 6l26 -15l15 -26v-25l-15 -24l-43 -17h-59l-53 4l-31 -4l-41 2 l-86 -4l-29 -12l-14 -29l4 -53l6 -31l4 -28l7 -29l18 -55l14 -23l15 -24l22 -23l47 -29l27 -6l43 -6l41 2l27 4l28 10l76 43l23 17l28 8l21 -8l16 -25l6 -33l-14 -30l-47 -37l-23 -16l-26 -11l-56 -24l-26 -2l-29 -4l-45 2z" />
<glyph unicode="&#x455;" horiz-adv-x="692" d="M340 -20l-33 2l-26 6l-25 8l-29 4l-26 6l-25 14l-49 23l-21 18l-24 17l-14 24l4 39l12 23l22 12l29 -6l25 -12l80 -47l57 -13l72 -8l43 6l24 8l25 15l22 22l25 43l6 31l2 43l-4 49l-10 25l-17 28l-20 23l-37 29l-37 22l-22 12l-45 17l-39 18l-49 29l-72 49l-49 66l-13 30 l-8 27l-6 27l-4 84l6 28l6 25l13 24l12 31l41 39l22 10l21 19l96 22l31 -2h71l27 -4l57 -18l27 -4l27 -15l24 -14l19 -31v-35l-9 -22l-22 -17l-31 7l-28 8l-41 16l-43 10l-29 11l-88 -7l-25 -12l-24 -20l-15 -19l-6 -26l-4 -43l2 -47l10 -23l17 -27l20 -22l19 -10l24 -21 l27 -12l39 -23l133 -69l41 -35l18 -19l37 -45l23 -51l8 -24l4 -29l2 -86l-4 -27l-16 -55l-13 -27l-32 -49l-21 -20l-78 -37l-28 -8l-27 -6l-41 -2h-43z" />
<glyph unicode="&#x456;" horiz-adv-x="391" d="M190 1137l-38 2l-27 16l-14 25l-9 43l9 39l18 24l21 19l45 2h41l20 -19l20 -24l7 -41l-9 -47l-18 -19l-23 -16zM182 -6l-28 16l-17 25l-6 24v25l-4 29l2 28l-4 121l2 47l-2 172l2 45l-2 176l2 29l-2 29v22l2 33l-4 27l2 30l-2 29l-4 27l10 33l23 8l26 4l27 -4l28 -11 l17 -30l2 -56l4 -26v-92l2 -47l-2 -72l2 -29v-131l2 -26l-4 -46l2 -98l-2 -41v-26l4 -27l-2 -33v-28l2 -25v-31l2 -28v-27l-4 -29l-25 -14z" />
<glyph unicode="&#x457;" horiz-adv-x="364" d="M285 1126l-47 9l-17 20l-10 41l8 41l23 20l41 15l45 -8l18 -25l8 -43l-6 -49l-26 -17zM43 1130l-43 11l-23 12l-6 45l6 37l23 18l45 17l39 -4l20 -27l9 -39l-13 -45l-18 -16zM121 33v24l-8 148l2 28l2 164l-2 29l2 31v26l-2 33l2 31l-2 26v43l-2 41l2 41l-2 29l2 29 l-2 61l2 29l-4 26l-2 56l6 30l24 11l41 -2l41 -13l15 -22l6 -55l2 -33l2 -31l2 -33l-2 -26l2 -107l-4 -74l2 -104l-2 -35l2 -225l-2 -29l4 -28l-2 -23v-29l4 -59l-6 -31l-35 -10l-43 -2l-29 12z" />
<glyph unicode="&#x458;" horiz-adv-x="434" d="M238 1137l-45 4l-21 20l-18 21l-4 39l6 43l16 26l21 15l45 4l43 -4l20 -17l21 -24l2 -43l-5 -41l-18 -25l-20 -12zM61 -526l-30 8l-21 26l-6 29l8 31l27 22l29 9l22 16l37 43l25 51l6 29l10 63l2 54v120l2 33v70l2 33l-4 39v178l2 24l-2 88l2 35v55l-2 31v25l4 28l-4 45 l2 41l-2 33l2 25l-2 30l-2 27l2 31l-2 26v29l-2 29l6 26l27 17l26 -4l27 4l29 -15l16 -22l2 -57l4 -31l2 -371l-4 -26l2 -31l-2 -31l2 -78l-2 -102l2 -41v-57l-2 -29l2 -86l-2 -27l2 -114l-10 -86l-2 -33l-6 -27l-15 -53l-43 -84l-37 -39l-22 -18l-23 -15l-28 -12l-27 -4z " />
<glyph unicode="&#x459;" horiz-adv-x="1208" d="M705 -6l-52 6h-26l-31 14l-10 41l-4 129l2 33l-2 27l2 28v119l-2 25l2 33v40l2 29l-4 88l2 27l-2 104l4 43v29l-15 45l-30 16l-29 -4l-115 -2l-32 -10l-15 -31l-12 -186l-10 -98l-2 -62l-11 -86l-20 -112l-10 -31l-15 -58l-12 -24l-25 -39l-18 -41l-39 -39l-47 -37 l-25 -12l-30 -2l-25 14l-12 27v35l16 30l25 13l20 18l33 45l14 29l27 82l12 61l17 113l4 59l4 31v29l2 28l4 31l-2 43l8 74l-2 28l8 84v29l4 31l15 26l28 15l41 -2l29 2l29 -2l100 4l53 -4l31 4h25l28 -2h43l41 -17l17 -36l-2 -125l2 -29l2 -57l-4 -56l2 -30l10 -21l41 -16 l24 4l56 -4h41l28 -4l31 -7l109 -34l45 -35l20 -21l19 -26l24 -49l15 -62l-3 -82l-2 -33l-8 -24l-10 -23l-8 -30l-15 -23l-16 -22l-22 -23l-21 -18l-25 -21l-79 -29l-56 -14l-32 -2h-74zM819 98l31 6l29 2l55 17l29 14l24 15l19 18l28 53l4 25l2 43l-2 45l-6 29l-12 22 l-16 27l-19 14l-24 21l-25 12l-27 4l-30 8l-74 6h-49l-31 -18l-16 -27v-90l2 -25l-2 -30l2 -29v-35l-2 -26l4 -43l16 -37l45 -19z" />
<glyph unicode="&#x45a;" horiz-adv-x="1200" d="M770 -6l-45 2l-41 6l-43 -2l-29 -4l-24 14l-13 47v25l-4 45l2 25l-2 28l2 27v26l-2 31l2 29l-2 69l2 41v29l-12 29l-33 14l-149 -4l-31 4l-26 -2l-33 6l-31 -20l-12 -27l-2 -24v-31l2 -27l-2 -26l2 -33l-2 -39l2 -197l-15 -43l-24 -14l-27 2l-26 -2l-27 14l-12 27l-2 33 v30l2 27v27l-2 28l2 88v60l-2 24l2 31l-2 31l2 24v29l-2 29l4 71l-4 91l2 71l-2 27v117l-4 24l-3 29l13 26l35 17l36 -2l29 -13l19 -24l4 -31l4 -88l-2 -29l2 -43l-2 -69v-56l16 -26l45 -8l43 -2l62 4l26 -4l33 2l31 -2l28 4l33 12l10 25l2 28l-2 99l2 28l-2 29l2 41v31 l-2 26v23l15 28l26 13l27 4l25 -4l26 -13l10 -28l2 -27l-2 -53l2 -25l-2 -41l2 -75l-2 -58l2 -22l13 -29l26 -12l52 -2l38 2h46l57 -11l27 -8l26 -4l29 -14l74 -49l18 -19l16 -24l15 -25l20 -53l6 -31l2 -43l-2 -45l-6 -22l-2 -31l-20 -49l-35 -54l-29 -26l-37 -27l-39 -16 l-67 -25l-58 -10l-28 2l-47 -4zM766 100h47l27 2l30 4l27 7l29 10l28 12l25 15l20 20l17 27l6 26l8 29l2 41l-2 39l-6 33l-12 20l-15 27l-18 20l-25 17l-26 12l-31 6l-57 8l-45 2l-45 4l-31 -16l-19 -35l5 -41l-3 -43l-2 -29l5 -143l-3 -29l15 -28z" />
<glyph unicode="&#x45b;" horiz-adv-x="858" d="M172 -4l-25 16l-12 27v57l-2 31l2 29l-2 24v94l2 27l-2 123l2 33l-2 43l4 43l-4 43v98l2 31l-2 159l2 25l-2 203l-16 31l-84 24l-15 29l15 33l28 14l29 2l29 10l14 29v29l-4 26v31l-2 31l8 28l25 15l26 -7h27l25 -10l18 -22l2 -29l6 -90l15 -31l28 -16l29 2l31 4l28 -4 l31 4l45 -4l41 -12l18 -31l-16 -27l-31 -16l-28 4l-31 -6l-55 4l-33 -4l-29 2l-28 -15l-15 -30l-2 -29v-149l12 -19l23 2l49 35l53 21l29 12l25 8l30 4l86 4l29 -6l53 -25l21 -18l18 -25l15 -18l14 -27l6 -28l8 -23l4 -31l2 -83l-2 -35l2 -31l-2 -113l2 -30v-58l-2 -28 l2 -142l-2 -26l4 -92l-2 -25l4 -27l2 -30l-2 -31l-8 -25l-33 -14l-40 -2l-31 16l-15 19l-6 30l2 25l-4 33l-2 84l4 30l-2 29l2 49l-2 70l-2 31l2 28v70l2 31v30l-2 29l-2 152l-6 53l-8 24l-17 19l-24 16l-25 8l-41 11l-41 -6l-28 -9l-51 -20l-52 -35l-20 -14l-19 -37 l-10 -53l2 -27l-2 -45l-2 -25l2 -147l-2 -31l2 -28l-2 -93l2 -32v-23l-2 -31l4 -92l-4 -82l-10 -43l-29 -10l-26 2z" />
<glyph unicode="&#x45c;" horiz-adv-x="817" d="M385 1106l-27 14v27l27 53l16 27l13 26l35 25l36 18h35l17 -20v-25l-19 -26l-20 -29l-17 -20l-18 -27l-35 -33zM156 -2l-25 14l-14 33l-4 41l2 88l2 25l-2 30l2 158l-4 39l4 131l-2 27l2 30l-4 88l4 89l-4 106l-4 33l8 26l24 11l27 6h27l28 -17l15 -20l6 -51v-183l4 -40 l-2 -41l14 -27h27l26 10l47 29l48 33l38 39l52 73l12 23l16 24l11 29l14 23l8 28l8 27l25 24l35 17l28 -2l29 4l25 -19l4 -26l-33 -78l-10 -27l-15 -22l-12 -25l-16 -22l-13 -27l-16 -20l-14 -23l-19 -24l-59 -56l-21 -22l-14 -33l4 -29l17 -28l22 -31l23 -37l14 -25l12 -26 l15 -25l16 -22l29 -52l16 -22l45 -74l14 -20l29 -51l45 -74v-25l-20 -12h-31l-33 4l-39 10l-31 21l-16 22l-29 60l-30 43l-15 30l-30 45l-31 54l-59 94l-46 78l-30 20l-39 -2l-31 -16l-16 -35l2 -88l-2 -35l2 -29v-28l-4 -27l4 -33v-26l-4 -43l4 -74l-12 -33l-27 -10l-29 -2 h-24z" />
<glyph unicode="&#x45e;" d="M336 1098l-31 2l-31 16l-26 10l-29 19l-22 18l-21 27l-2 35l12 30h35l29 -18l55 -29l31 -12l43 -6l51 8l29 8l26 13l27 26l27 19l32 -13l19 -26l-6 -37l-21 -29l-20 -18l-25 -19l-33 -10l-30 -10l-27 -4l-49 -2zM180 -520l-33 2l-24 16l-17 29v35l15 30l24 21l54 59 l12 31l14 23l43 106l8 29l11 24l6 33l10 27v47l-14 82l-29 94l-8 25l-6 30l-19 56l-10 20l-12 55l-10 29l-11 27l-4 26l-16 56l-12 26l-13 55l-12 33l-6 21l-8 26l-7 31l-10 29l-6 26l-12 27l-29 106l-10 27l-6 31l4 28l22 9l45 4l46 -10l22 -29l25 -86l6 -29l10 -26l20 -82 l13 -27l4 -27l14 -43l10 -43l9 -28l6 -25l10 -27l8 -30l8 -27l7 -29l14 -38l26 -101l7 -31l10 -30l8 2l10 31l66 278l6 33l16 55l4 29l37 131l6 29l17 53l4 30l8 29l6 23l25 30l26 15h46l36 -13l7 -28l-17 -53l-6 -31l-8 -25l-6 -26l-11 -31l-6 -31l-14 -49l-10 -29l-15 -55 l-8 -25l-12 -61l-12 -25l-15 -53l-10 -55l-20 -53l-5 -29l-8 -29l-10 -26l-4 -29l-10 -25l-6 -26l-9 -29l-8 -31l-18 -63l-13 -57l-16 -43l-6 -27l-8 -23l-6 -28l-11 -31l-6 -29l-10 -24l-8 -27l-10 -26l-25 -52l-12 -24l-13 -29l-67 -88l-21 -18l-22 -15z" />
<glyph unicode="&#x45f;" horiz-adv-x="858" d="M420 -250l-29 14l-12 23l-4 33v135l-13 31l-30 14l-27 -4l-117 4l-28 -2l-31 14l-14 29v29l-2 174l2 30v70l-2 27v32l2 25l-2 33v28l2 27l-2 27l2 49l-2 26l-4 312l6 26l24 19l25 -4l29 2l28 -10l17 -23l4 -29l2 -28l-2 -29v-27l4 -28l-2 -31l2 -106l-2 -46l2 -59l-2 -27 l4 -145l-4 -31l2 -32v-148l-2 -29l14 -30l31 -15h88l29 4h83l31 -2h29l29 4l28 13l17 28v105l-2 27l4 114l-4 103l4 28l-4 31v168l2 35v30l-2 25l4 27l-4 30l2 25l-2 33l14 33l24 10l29 2l25 -2l26 -15l13 -26l2 -47l2 -25l-2 -31v-239l-2 -29l4 -29l-4 -30l2 -31l-2 -55 l4 -72l-4 -82v-47l4 -27l-4 -32v-27l2 -53l-2 -31l-13 -27l-28 -16l-45 -2l-29 4l-43 -4l-29 4l-30 -6l-29 -12l-17 -29l5 -139l-5 -29l-14 -27l-24 -10h-31z" />
<glyph unicode="&#x490;" horiz-adv-x="749" d="M199 -2l-37 16l-23 21l-2 33l-4 30l2 31v96l-4 31l4 57v41l-6 35l-2 41l6 33l2 469l-4 51v39l-2 27l6 237l-6 31l4 31l-4 30l16 37l35 17l35 4l72 -4l28 -5l66 11l37 -6h94l37 4l35 16l14 25l2 39l-2 24l23 31l32 24l39 -18l17 -49l-4 -158l-13 -39l-37 -10h-65l-37 -4 l-35 4l-63 -6l-35 4l-84 4l-53 -23l-17 -32l4 -25l-4 -41l-2 -61l4 -66l-2 -33l2 -61l-2 -37l2 -422l-4 -33l4 -28l-4 -156l4 -78l-2 -28l2 -31l-4 -31l2 -33l4 -28l2 -31l-8 -33l-33 -8z" />
<glyph unicode="&#x491;" horiz-adv-x="598" d="M154 -4l-29 14l-19 23l-4 28l-2 115l-2 27l2 35v159l-2 29l4 43v115l-2 24v60l2 32l-2 82l2 33v53l-2 29l2 29l11 30l28 11l29 2l27 6l84 -2l26 -4h82l29 4l28 -4l27 16l14 29l2 30l-2 31l15 25l33 14l26 -12l17 -27v-47l-5 -127l-12 -29l-29 -16l-28 4l-58 -4l-55 4h-45 l-41 -2l-29 2l-28 -16l-15 -33l-2 -25l2 -28l-2 -29v-133l-2 -31l4 -41v-88l-4 -39l2 -30v-54l2 -47v-57l-2 -29l2 -84l5 -28v-27l-9 -31l-22 -12l-29 2z" />
<glyph unicode="&#x2000;" horiz-adv-x="893" />
<glyph unicode="&#x2001;" horiz-adv-x="1786" />
<glyph unicode="&#x2002;" horiz-adv-x="893" />
<glyph unicode="&#x2003;" horiz-adv-x="1786" />
<glyph unicode="&#x2004;" horiz-adv-x="595" />
<glyph unicode="&#x2005;" horiz-adv-x="446" />
<glyph unicode="&#x2006;" horiz-adv-x="297" />
<glyph unicode="&#x2007;" horiz-adv-x="297" />
<glyph unicode="&#x2008;" horiz-adv-x="223" />
<glyph unicode="&#x2009;" horiz-adv-x="357" />
<glyph unicode="&#x200a;" horiz-adv-x="99" />
<glyph unicode="&#x2010;" horiz-adv-x="622" d="M150 535l-31 16l-15 39l15 35l31 14l32 8l68 -8l26 8l70 -2h29l31 2l59 -4l35 -16l18 -33l-20 -39l-33 -14l-33 -4h-57l-33 2l-37 -4l-33 2l-30 -2l-27 2l-35 4z" />
<glyph unicode="&#x2011;" horiz-adv-x="622" d="M150 535l-31 16l-15 39l15 35l31 14l32 8l68 -8l26 8l70 -2h29l31 2l59 -4l35 -16l18 -33l-20 -39l-33 -14l-33 -4h-57l-33 2l-37 -4l-33 2l-30 -2l-27 2l-35 4z" />
<glyph unicode="&#x2012;" horiz-adv-x="622" d="M150 535l-31 16l-15 39l15 35l31 14l32 8l68 -8l26 8l70 -2h29l31 2l59 -4l35 -16l18 -33l-20 -39l-33 -14l-33 -4h-57l-33 2l-37 -4l-33 2l-30 -2l-27 2l-35 4z" />
<glyph unicode="&#x2013;" horiz-adv-x="720" d="M279 539l-33 2l-29 4l-63 -4l-37 18l-13 35l13 29l33 20l32 6l31 -4l37 6l29 -4h59l37 4l43 2l49 -2l37 -6l31 2h32l35 -12l12 -35l-14 -43l-35 -18l-61 4l-33 -4l-37 4l-28 -2l-33 4l-27 -2l-33 -4h-34z" />
<glyph unicode="&#x2014;" horiz-adv-x="1148" d="M963 535l-31 4l-51 -2l-47 6h-33l-31 2l-33 -8h-37l-47 2l-96 6l-49 -2l-35 -6l-29 6l-34 -2l-35 -4l-31 4l-33 -2l-28 4l-31 -2h-39l-31 -4l-32 6l-33 18l-17 33l19 33l51 14l47 8h31l31 2l34 -6l33 4h33l35 -8l30 4l31 2l33 -4l35 2h30l33 -2l33 4l29 -2l34 6h48l49 -6 h51l33 -4l43 4l35 6l30 -6l37 -18l14 -39l-18 -37l-31 -10z" />
<glyph unicode="&#x2018;" horiz-adv-x="385" d="M139 1051l-22 14l-21 29l-2 49v41l4 33l8 28l13 31l10 35l18 28l13 21l22 26l13 27l36 14l37 -10l6 -37l-10 -32l-37 -56l-16 -37l6 -38l23 -31l22 -23l4 -28l-2 -33l-8 -29l-20 -20l-50 -6z" />
<glyph unicode="&#x2019;" horiz-adv-x="385" d="M152 1067l-33 6l-10 37l4 33l20 26l23 31l18 31l-4 45l-25 31l-18 24l-12 25v35l14 28l18 23l48 4l49 -8l22 -8l15 -31l8 -45l2 -49l-4 -35l-6 -29l-15 -27l-10 -32l-12 -31l-23 -25l-18 -28l-19 -23z" />
<glyph unicode="&#x201a;" horiz-adv-x="387" d="M152 -236l-33 5l-10 38l4 33l20 27l23 31l18 30l-4 45l-25 31l-18 25l-12 24v35l14 29l18 22l48 4l49 -8l22 -8l15 -31l8 -45l2 -49l-4 -35l-6 -28l-15 -27l-10 -33l-12 -31l-23 -24l-18 -29l-19 -22z" />
<glyph unicode="&#x201c;" horiz-adv-x="630" d="M190 1044l-47 5l-28 14l-17 27l-8 49l2 47l4 35l8 28l15 29l8 29l16 26l15 23l18 35l21 24l34 15l33 -7l12 -34l-8 -37l-22 -33l-17 -29l-18 -33l4 -43l21 -30l24 -15l8 -36l-4 -31l-6 -23l-22 -26zM430 1044l-43 5l-20 12l-19 31l-8 45l2 45l2 35l10 36l8 27l11 27 l16 28l19 29l20 20l16 27l37 16l33 -6l12 -35l-16 -45l-55 -86l6 -32l22 -33l19 -31l10 -26l-2 -31l-6 -31l-27 -18z" />
<glyph unicode="&#x201d;" horiz-adv-x="630" d="M147 1059l-30 8l-13 37l15 37l18 33l19 26l12 31l-2 39l-21 39l-26 22l-6 27v31l12 26l20 25l43 10l48 -8l28 -21l21 -20l6 -49l-2 -49l-8 -33l-9 -23l-6 -28l-12 -37l-16 -23l-17 -33l-18 -22l-21 -31zM395 1055l-30 18l-13 33l6 39l19 29l24 26l17 31l-8 43l-19 29 l-24 26l-5 29l-4 22l13 39l22 25l47 2l41 -2l29 -19l18 -24l9 -49l-7 -45v-29l-14 -45l-18 -47l-15 -33l-14 -20l-23 -25l-20 -31z" />
<glyph unicode="&#x201e;" horiz-adv-x="378" d="M289 51l2 -49l-4 -35l-6 -28l-15 -27l-10 -33l-12 -31l-23 -24l-18 -29l-19 -22l-32 -9l-33 5l-10 38l4 33l20 27l23 31l18 30l-4 45l-25 31l-18 25l-12 24v35l14 29l18 22l48 4l49 -8l22 -8l15 -31z" />
<glyph unicode="&#x2026;" horiz-adv-x="1114" d="M551 -18l-43 14l-27 20l-10 45l10 50l23 22l47 14l51 -6l25 -26l10 -49l-12 -56l-23 -16zM168 -18l-47 10l-23 24l-10 52l4 43l27 24l45 8l47 -8l25 -26l8 -43l-4 -54l-29 -20zM942 -23l-43 15l-27 28l-10 46l12 47l19 22l51 6l49 -8l25 -22l8 -54l-6 -41l-27 -26z" />
<glyph unicode="&#x202f;" horiz-adv-x="357" />
<glyph unicode="&#x2039;" horiz-adv-x="425" d="M315 469l-30 27l-25 22l-22 19l-27 18l-25 27l-26 18l-27 16l-24 29l-25 35l2 53l20 41l25 19l27 22l28 19l29 24l23 23l24 14l29 20l22 19l27 10l12 -16l2 -25l-10 -45l-31 -39l-24 -18l-29 -27l-22 -14l-29 -23l-12 -30l14 -33l29 -21l24 -20l23 -21l26 -22l23 -29 l16 -43l-2 -35l-12 -20z" />
<glyph unicode="&#x203a;" horiz-adv-x="425" d="M72 483l-2 29l10 47l26 31l27 20l29 25l22 16l25 19l16 39l-12 26l-29 27l-37 33l-41 26l-26 33l-10 39l4 35l8 16l27 -8l24 -16l27 -25l26 -14l29 -23l25 -24l36 -29l35 -33l27 -43l4 -53l-31 -39l-20 -14l-29 -25l-26 -16l-25 -25l-27 -25l-24 -18l-23 -22l-28 -17 l-23 -10z" />
<glyph unicode="&#x205f;" horiz-adv-x="446" />
<glyph unicode="&#x20ac;" horiz-adv-x="952" d="M573 -27l-47 9l-30 6l-35 2l-29 10l-31 12l-26 23l-49 31l-17 26l-20 23l-25 63l-14 29l-31 96l-10 64l2 34l-8 39l-2 27l-17 35l-78 26l-16 27l14 35l39 12l35 16l19 31l-4 39l-15 29l-35 22l-37 9l-18 32l18 25l37 18l37 11l19 36l6 29l2 68l4 32l8 31l4 35l8 27l7 36 l14 31l8 29l14 33l15 26l20 27l19 24l26 25l21 27l31 14l24 14l100 23h45l46 -4l34 -8h29l61 -25l29 -16l25 -17l16 -35l-6 -26l-16 -27l-29 -18l-37 8l-47 35l-31 2l-35 8l-47 2h-47l-26 -14l-29 -9l-25 -14l-39 -49l-16 -25l-10 -36l-13 -64l-10 -29l-6 -39v-28l-2 -31 l-2 -33l-4 -37l12 -30l37 -23h33l31 4l36 -6l33 4l33 -2h37l26 2h31l33 -12l20 -31l-18 -33l-35 -8l-31 2l-32 -8h-47l-35 2l-53 6l-29 -10l-33 4l-33 -18l-18 -29l-2 -33l14 -30l33 -21h37l51 6h49l33 -6l35 -2l32 6l29 -6l35 -10l18 -29l-14 -31l-33 -12l-49 -2h-37l-51 6 l-33 -8l-32 2h-35l-33 -2l-31 -10l-14 -35l4 -68l6 -28l6 -58l13 -34l6 -35l12 -31l12 -27l21 -28l22 -29l52 -27l28 -10l45 -6l47 4l39 10l33 2l31 11l30 12l31 25l29 -9l26 -22l3 -43l-21 -31l-55 -31l-33 -16l-35 -10l-33 -6l-30 -11h-54z" />
<glyph unicode="&#x2122;" horiz-adv-x="1224" d="M281 672l-45 22l-19 27v31l-6 30l2 39l-4 31l2 45v90l2 29l-2 98l2 35v65l2 29l-22 37l-35 12l-47 2l-45 19l-13 33l13 34l49 19l53 2l63 -6l37 4l31 -6l29 6l39 -4l69 6l29 -21l18 -37l-18 -32l-35 -19l-29 4h-32l-29 -22l-16 -27v-100l-2 -31l2 -29l-5 -36l3 -52 l-3 -51l3 -92l-3 -35l5 -92l-13 -39zM600 672l-33 22l-18 31v37l2 65l-4 56l4 71l-4 47l2 82l-4 35v64l4 35v133l12 26l31 15l35 8h35l32 -25l29 -24l10 -33l4 -29l15 -37l10 -45l14 -45l15 -28l4 -33l14 -29l6 -39l31 -100l10 -14l12 16l27 104l10 25l8 31l9 39l18 55l8 35 l17 30l10 64l10 33l31 26l37 23l30 -4l29 6l33 -23l18 -26v-49l-4 -54l4 -67l-6 -29l4 -27l-2 -39l6 -30v-37l-4 -31l-2 -35l4 -49l-4 -43v-33l4 -34l2 -68l-14 -35l-35 -12l-37 4l-24 37l4 63v33l-6 41v51l2 49v25l-4 35l8 106l-2 50l4 30v33l6 35l-10 2l-8 -27l-7 -35 l-12 -47l-16 -49l-8 -31l-11 -26l-10 -35l-12 -29l-10 -30l-7 -31l-38 -119l-29 -39l-35 -16l-37 22l-20 29l-25 57l-8 33l-12 31l-17 65l-22 62l-6 28l-13 29l-8 51l-18 47l-6 29l-11 31l-2 -4l-4 -58l4 -32l2 -31l8 -47l-2 -45l-2 -37v-31l2 -33l-2 -71l2 -47l-2 -50 l4 -65l-22 -37z" />
<glyph unicode="&#x25fc;" horiz-adv-x="972" d="M0 973h973v-973h-973v973z" />
</font>
</defs>
</svg>
